<svg width="439" height="439" viewBox="0 0 439 439" fill="none" xmlns="http://www.w3.org/2000/svg">
<path d="M267.542 349.857C267.542 349.857 354.07 263.036 387.79 229.214C390.597 226.4 392 222.7 392 219C392 215.3 390.597 211.619 387.79 208.786C354.09 174.983 267.542 88.182 267.542 88.182C264.773 85.3876 261.121 84 257.468 84C253.758 84 250.067 85.4261 247.241 88.2591C241.608 93.8865 235.456 112.584 241.05 118.173L354.089 214.147L60.4183 204.546C52.4594 204.546 46 211.021 46 219C46 226.979 52.4594 233.454 60.4183 233.454L354.089 229.214L241.031 325.169C235.475 330.739 241.646 344.094 247.26 349.722C250.105 352.574 253.815 354 257.506 354C261.159 354 264.773 352.612 267.542 349.857Z" fill="#62516E"/>
<circle cx="219.5" cy="219.5" r="209.5" stroke="#62516E" stroke-width="20"/>
</svg>
