<svg width="3151" height="1805" viewBox="0 0 3151 1805" fill="none" xmlns="http://www.w3.org/2000/svg">
<path d="M2611.24 131.151V1633.45C2611.24 1674.92 2572.94 1705.78 2532.42 1696.97L1592.4 1492.47C1573.29 1488.31 1553.51 1488.36 1534.43 1492.6L617.114 1696.35C576.522 1705.37 538.02 1674.48 538.02 1632.9V131.883C538.02 88.8342 579.111 57.6767 620.562 69.2953L1527.32 323.453C1550.91 330.066 1575.86 330.133 1599.49 323.646L2529.03 68.4703C2570.41 57.1125 2611.24 88.2472 2611.24 131.151Z" stroke="#EFDDDD" stroke-width="70"/>
<path d="M2409.32 316.663V1447.08C2409.32 1504.49 2356.29 1547.23 2300.19 1535.02L1589.45 1380.37C1573.88 1376.99 1557.76 1377.02 1542.21 1380.48L849.458 1534.38C793.253 1546.87 739.939 1504.1 739.939 1446.52V317.395C739.939 257.787 796.839 214.645 854.234 230.736L1536.42 421.99C1555.65 427.381 1575.99 427.435 1595.24 422.148L2295.49 229.875C2352.78 214.146 2409.32 257.255 2409.32 316.663Z" stroke="#EFDDDD" stroke-width="20"/>
<path d="M1182.91 778.022L1268.89 718.721L1755.49 1424.24C1763.89 1436.41 1760.83 1453.09 1748.65 1461.49V1461.49C1713.34 1485.84 1664.98 1476.96 1640.62 1441.65L1182.91 778.022Z" fill="#EFDDDD"/>
<path d="M1246.94 609.737C1210.58 715.01 1304.89 775.147 1262.34 802.625C1219.79 830.102 1194.3 718.266 1092.86 709.243C1138.95 596.171 1053.22 502.836 1065.15 502.836C1087.44 513.689 1112.91 586.404 1246.94 609.737Z" fill="#EFDDDD"/>
</svg>
