<svg width="3686" height="2037" viewBox="0 0 3686 2037" fill="none" xmlns="http://www.w3.org/2000/svg">
<path d="M2464 131.151V1912.91C2464 1963.94 2416.86 2001.93 2366.99 1991.08L1254.81 1749.13C1237.82 1745.44 1220.24 1745.47 1203.28 1749.24L117.347 1990.45C67.3878 2001.54 20 1963.53 20 1912.35V131.883C20 78.8998 70.5741 40.5522 121.591 54.8519L1196.96 356.271C1217.94 362.149 1240.11 362.209 1261.12 356.443L2362.82 54.0054C2413.74 40.0266 2464 78.3462 2464 131.151Z" stroke="#EFDDDD" stroke-width="40"/>
<path d="M1696 849.73L1795.65 781L2359.62 1598.7C2369.35 1612.81 2365.8 1632.14 2351.69 1641.87C2310.77 1670.1 2254.71 1659.8 2226.49 1618.88L1696 849.73Z" fill="#EFDDDD"/>
<path d="M289.5 429L1032 614" stroke="#EFDDDD" stroke-width="20"/>
<path d="M291.202 716.762L1018.36 818.304M291.793 1063.54L1018.36 1030.3" stroke="#EFDDDD" stroke-width="20"/>
<path d="M307 1355L1032 1255" stroke="#EFDDDD" stroke-width="20"/>
<path d="M324 1622.5L1050 1469.5" stroke="#EFDDDD" stroke-width="20"/>
<path d="M1372.5 598.58L1564.87 534.304" stroke="#EFDDDD" stroke-width="20"/>
<path d="M1770.2 654.687C1728.06 776.699 1837.37 846.398 1788.05 878.244C1738.74 910.091 1709.2 780.472 1591.63 770.014C1645.05 638.964 1545.68 530.788 1559.51 530.788C1585.34 543.367 1614.86 627.643 1770.2 654.687Z" fill="#EFDDDD"/>
</svg>
