<svg width="3651" height="2038" viewBox="0 0 3651 2038" fill="none" xmlns="http://www.w3.org/2000/svg">
<path d="M1408 1394.86C1463.95 1438.97 1537.12 1398.14 1505.94 1334.07C1477.09 1274.78 1433.14 1219.02 1375.51 1169.58C1265.09 1074.86 1111.07 1009 938.972 982.919C766.873 956.833 587.019 972.085 429.204 1026.15C271.39 1080.21 145.086 1169.84 71.215 1280.19C-2.65547 1390.54 -19.6591 1514.98 23.0209 1632.91C65.7009 1750.83 343.5 1743.04 524 1791.04C643 1833.04 618.842 2040.23 794.976 2036.78C968.375 2033.39 1135 1989.87 1268.11 1913.31C1272.15 1910.99 1275.09 1907.16 1276.37 1902.68V1902.68C1280.83 1886.96 1263.47 1873.11 1248.6 1879.87C1125.08 1936.06 930.395 1967.85 792.253 1970.55C638.004 1973.57 688.76 1803.66 565.813 1739.34C442.866 1675.02 153.593 1720.13 116.216 1616.86C78.8396 1513.59 93.7305 1404.6 158.422 1307.97C223.114 1211.33 333.724 1132.84 471.93 1085.49C610.135 1038.15 767.642 1024.79 918.357 1047.63C1069.07 1070.48 1203.95 1128.15 1300.65 1211.1C1381.96 1280.85 1379.46 1269.86 1376.6 1327.86C1375.32 1353.96 1387.48 1378.68 1408 1394.86V1394.86Z" fill="#EFDDDD"/>
<path d="M491.5 1475.54C491.5 1517.43 464.324 1542.39 422.433 1542.39C380.542 1542.39 346.583 1508.43 346.583 1466.54C346.583 1424.65 380.542 1390.69 422.433 1390.69C464.324 1390.69 491.5 1433.64 491.5 1475.54Z" fill="#EFDDDD"/>
<path d="M774.808 1260.83C774.808 1302.72 740.849 1336.68 698.958 1336.68C657.067 1336.68 623.107 1302.72 623.107 1260.83C623.107 1218.94 657.067 1172.01 698.958 1172.01C740.849 1172.01 774.808 1218.94 774.808 1260.83Z" fill="#EFDDDD"/>
<path d="M1096.33 1336.87C1096.33 1378.76 1062.37 1412.72 1020.48 1412.72C978.588 1412.72 947 1378.75 947 1336.86C947 1294.96 978.588 1261.02 1020.48 1261.02C1062.37 1261.02 1096.33 1294.98 1096.33 1336.87Z" fill="#EFDDDD"/>
<path d="M1021.57 1618.24C1021.57 1660.14 987.615 1701.01 945.724 1701.01C903.833 1701.01 869.874 1660.14 869.874 1618.24C869.874 1576.35 903.833 1542.39 945.724 1542.39C987.615 1542.39 1021.57 1576.35 1021.57 1618.24Z" fill="#EFDDDD"/>
<path d="M1254.1 982.385L1149.22 921.936L1645.24 61.3248C1653.8 46.4725 1672.78 41.3718 1687.64 49.932V49.932C1730.71 74.7569 1745.5 129.798 1720.68 172.87L1254.1 982.385Z" fill="#EFDDDD"/>
<path d="M1045.35 1032.52C1037.32 1004.42 1039.35 973.754 1055.14 949.159C1118.21 850.911 1181.9 798.396 1245.57 835.093C1317.3 876.433 1326.45 994.943 1255.6 1117.87C1184.75 1240.8 1042.83 1368.21 971.104 1326.87C980.992 1295.02 1111.87 1265.26 1045.35 1032.52Z" fill="#EFDDDD"/>
</svg>
