<svg width="3651" height="2045" viewBox="0 0 3651 2045" fill="none" xmlns="http://www.w3.org/2000/svg">
<g filter="url(#filter0_d_126_40)">
<path d="M2320 1394.79C2375.95 1438.9 2449.12 1398.07 2417.94 1334.01C2389.09 1274.71 2345.14 1218.96 2287.51 1169.52C2177.09 1074.8 2023.07 1008.94 1850.97 982.855C1678.87 956.769 1499.02 972.022 1341.2 1026.08C1183.39 1080.15 1057.09 1169.78 983.215 1280.13C909.345 1390.47 892.341 1514.92 935.021 1632.84C977.701 1750.77 1243.54 1757.72 1383.93 1831.17C1524.32 1904.62 1530.84 2040.16 1706.98 2036.72C1880.38 2033.32 2047 1989.81 2180.11 1913.25C2184.15 1910.92 2187.09 1907.1 2188.37 1902.61V1902.61C2192.83 1886.9 2175.47 1873.04 2160.6 1879.81C2037.08 1936 1842.4 1967.78 1704.25 1970.48C1550 1973.5 1600.76 1803.6 1477.81 1739.28C1354.87 1674.95 1065.59 1720.07 1028.22 1616.79C990.84 1513.52 1005.73 1404.54 1070.42 1307.9C1135.11 1211.27 1245.72 1132.77 1383.93 1085.43C1522.14 1038.08 1679.64 1024.73 1830.36 1047.57C1981.07 1070.41 2115.95 1128.09 2212.65 1211.04C2293.96 1280.78 2291.46 1269.79 2288.6 1327.79C2287.32 1353.89 2299.48 1378.62 2320 1394.79V1394.79Z" fill="#EFDDDD"/>
<path d="M1443.23 1489.46C1443.23 1531.36 1376.32 1542.33 1334.43 1542.33C1292.54 1542.33 1258.58 1508.37 1258.58 1466.48C1258.58 1424.59 1292.54 1390.63 1334.43 1390.63C1376.32 1390.63 1443.23 1447.57 1443.23 1489.46Z" fill="#EFDDDD"/>
<path d="M1686.81 1260.76C1686.81 1302.66 1652.85 1336.62 1610.96 1336.62C1569.07 1336.62 1535.11 1302.66 1535.11 1260.76C1535.11 1218.87 1569.07 1161.55 1610.96 1161.55C1652.85 1161.55 1686.81 1218.87 1686.81 1260.76Z" fill="#EFDDDD"/>
<path d="M2052.33 1321.68C2052.33 1363.57 2018.37 1397.53 1976.48 1397.53C1934.59 1397.53 1860.41 1363.57 1860.41 1321.68C1860.41 1279.78 1934.59 1245.82 1976.48 1245.82C2018.37 1245.82 2052.33 1279.78 2052.33 1321.68Z" fill="#EFDDDD"/>
<path d="M1933.57 1618.18C1933.57 1660.07 1899.61 1743.45 1857.72 1743.45C1815.83 1743.45 1781.87 1660.07 1781.87 1618.18C1781.87 1576.29 1815.83 1542.33 1857.72 1542.33C1899.61 1542.33 1933.57 1576.29 1933.57 1618.18Z" fill="#EFDDDD"/>
<path d="M2166.1 982.385L2061.22 921.936L2557.24 61.3248C2565.8 46.4725 2584.78 41.3718 2599.64 49.932V49.932C2642.71 74.7569 2657.5 129.798 2632.68 172.87L2166.1 982.385Z" fill="#EFDDDD"/>
<path d="M1957.35 1032.52C1949.32 1004.42 1951.35 973.754 1967.14 949.159C2030.21 850.911 2093.9 798.396 2157.57 835.093C2229.3 876.433 2238.45 994.943 2167.6 1117.87C2096.75 1240.8 1954.83 1368.21 1883.1 1326.87C1892.99 1295.02 2023.87 1265.26 1957.35 1032.52Z" fill="#EFDDDD"/>
</g>
<defs>
<filter id="filter0_d_126_40" x="908" y="45.7798" width="1740.72" height="1999" filterUnits="userSpaceOnUse" color-interpolation-filters="sRGB">
<feFlood flood-opacity="0" result="BackgroundImageFix"/>
<feColorMatrix in="SourceAlpha" type="matrix" values="0 0 0 0 0 0 0 0 0 0 0 0 0 0 0 0 0 0 127 0" result="hardAlpha"/>
<feOffset dy="4"/>
<feGaussianBlur stdDeviation="2"/>
<feComposite in2="hardAlpha" operator="out"/>
<feColorMatrix type="matrix" values="0 0 0 0 0 0 0 0 0 0 0 0 0 0 0 0 0 0 0.25 0"/>
<feBlend mode="normal" in2="BackgroundImageFix" result="effect1_dropShadow_126_40"/>
<feBlend mode="normal" in="SourceGraphic" in2="effect1_dropShadow_126_40" result="shape"/>
</filter>
</defs>
</svg>
