<svg width="3651" height="2037" viewBox="0 0 3651 2037" fill="none" xmlns="http://www.w3.org/2000/svg">
<path d="M100 35H3551C3586.9 35 3616 64.1015 3616 100V1937C3616 1972.9 3586.9 2002 3551 2002H100C64.1015 2002 35 1972.9 35 1937V100C35 64.1015 64.1015 35 100 35Z" stroke="#EFDDDD" stroke-width="70"/>
<path d="M362.4 334.4L372.4 352.4L317.2 382.4L372.4 412L362.4 430.6L297 393.4V371.6L362.4 334.4Z" fill="#EFDDDD"/>
<path d="M494.045 440.4V385.8C494.045 380.333 493.112 375.8 491.245 372.2C489.379 368.6 486.379 365.867 482.245 364C478.245 362.133 472.845 361.2 466.045 361.2C459.512 361.2 453.579 362.467 448.245 365C442.912 367.4 438.579 370.6 435.245 374.6C431.912 378.467 430.045 382.6 429.645 387L429.445 376C430.112 371.6 431.645 367.2 434.045 362.8C436.445 358.4 439.645 354.4 443.645 350.8C447.645 347.2 452.445 344.333 458.045 342.2C463.779 339.933 470.179 338.8 477.245 338.8C483.379 338.8 489.045 339.6 494.245 341.2C499.445 342.667 503.979 345 507.845 348.2C511.712 351.4 514.712 355.4 516.845 360.2C518.979 364.867 520.045 370.4 520.045 376.8V440.4H494.045ZM405.045 440.4V301H431.045V440.4H405.045Z" fill="#EFDDDD"/>
<path d="M607.275 410.2L574.875 425.4L573.875 420.4H648.475V440.4H541.875V420.4C553.875 414.933 564.675 410.267 574.275 406.4C583.875 402.533 592.008 399.067 598.675 396C605.342 392.8 610.408 389.6 613.875 386.4C617.475 383.067 619.275 379.4 619.275 375.4C619.275 372.2 618.342 369.467 616.475 367.2C614.608 364.8 611.675 362.933 607.675 361.6C603.675 360.267 598.475 359.6 592.075 359.6C583.675 359.6 576.875 361.267 571.675 364.6C566.608 367.8 563.942 372.2 563.675 377.8H538.475C538.075 370.067 539.942 363.267 544.075 357.4C548.342 351.533 554.542 346.933 562.675 343.6C570.808 340.267 580.408 338.6 591.475 338.6C599.608 338.6 607.008 339.4 613.675 341C620.342 342.467 626.075 344.667 630.875 347.6C635.808 350.533 639.542 354.067 642.075 358.2C644.742 362.333 646.075 367 646.075 372.2C646.075 376.2 645.342 379.867 643.875 383.2C642.408 386.4 640.075 389.467 636.875 392.4C633.808 395.333 629.808 398.267 624.875 401.2C619.942 404 614.075 407 607.275 410.2Z" fill="#EFDDDD"/>
<path d="M834.722 401.2C834.055 409.867 831.255 417.333 826.322 423.6C821.522 429.867 814.855 434.667 806.322 438C797.789 441.2 787.655 442.8 775.922 442.8C763.655 442.8 752.655 440.867 742.922 437C733.322 433 725.722 427.2 720.122 419.6C714.655 411.867 711.922 402.333 711.922 391C711.922 379.667 714.655 370.133 720.122 362.4C725.722 354.667 733.322 348.8 742.922 344.8C752.655 340.8 763.655 338.8 775.922 338.8C787.655 338.8 797.722 340.467 806.122 343.8C814.522 347 821.122 351.667 825.922 357.8C830.855 363.933 833.722 371.333 834.522 380H810.722C808.455 373.333 804.255 368.133 798.122 364.4C791.989 360.667 784.589 358.8 775.922 358.8C768.989 358.8 762.655 360 756.922 362.4C751.322 364.8 746.789 368.4 743.322 373.2C739.989 377.867 738.322 383.8 738.322 391C738.322 398.067 739.989 404 743.322 408.8C746.655 413.467 751.189 417 756.922 419.4C762.655 421.667 768.989 422.8 775.922 422.8C785.255 422.8 792.855 420.933 798.722 417.2C804.722 413.467 808.789 408.133 810.922 401.2H834.722Z" fill="#EFDDDD"/>
<path d="M855.831 301H881.831V440.4H855.831V301Z" fill="#EFDDDD"/>
<path d="M956.528 442.6C946.661 442.6 937.661 440.467 929.528 436.2C921.528 431.8 915.128 425.733 910.328 418C905.661 410.133 903.328 401.067 903.328 390.8C903.328 380.267 905.728 371.133 910.528 363.4C915.328 355.667 921.795 349.667 929.928 345.4C938.195 341 947.528 338.8 957.928 338.8C969.395 338.8 978.595 341.133 985.528 345.8C992.595 350.333 997.728 356.533 1000.93 364.4C1004.13 372.267 1005.73 381.067 1005.73 390.8C1005.73 396.667 1004.79 402.667 1002.93 408.8C1001.06 414.8 998.195 420.4 994.328 425.6C990.461 430.667 985.395 434.8 979.128 438C972.861 441.067 965.328 442.6 956.528 442.6ZM964.928 422.6C972.795 422.6 979.595 421.267 985.328 418.6C991.061 415.933 995.461 412.2 998.528 407.4C1001.59 402.6 1003.13 397.067 1003.13 390.8C1003.13 384 1001.53 378.267 998.328 373.6C995.261 368.8 990.861 365.2 985.128 362.8C979.528 360.267 972.795 359 964.928 359C953.861 359 945.261 361.933 939.128 367.8C932.995 373.533 929.928 381.2 929.928 390.8C929.928 397.2 931.395 402.8 934.328 407.6C937.261 412.267 941.328 415.933 946.528 418.6C951.861 421.267 957.995 422.6 964.928 422.6ZM1003.13 341H1029.13V440.4H1004.93C1004.93 440.4 1004.73 439.133 1004.33 436.6C1004.06 433.933 1003.79 430.6 1003.53 426.6C1003.26 422.6 1003.13 418.667 1003.13 414.8V341Z" fill="#EFDDDD"/>
<path d="M1048.66 407.4H1072.66C1074.13 411.933 1077.13 415.667 1081.66 418.6C1086.33 421.4 1092.39 422.8 1099.86 422.8C1104.93 422.8 1108.86 422.333 1111.66 421.4C1114.46 420.467 1116.39 419.133 1117.46 417.4C1118.53 415.533 1119.06 413.467 1119.06 411.2C1119.06 408.4 1118.19 406.267 1116.46 404.8C1114.73 403.2 1112.06 401.933 1108.46 401C1104.86 400.067 1100.26 399.2 1094.66 398.4C1089.06 397.467 1083.66 396.333 1078.46 395C1073.26 393.667 1068.66 391.933 1064.66 389.8C1060.66 387.533 1057.46 384.733 1055.06 381.4C1052.79 377.933 1051.66 373.733 1051.66 368.8C1051.66 364 1052.79 359.733 1055.06 356C1057.46 352.267 1060.73 349.133 1064.86 346.6C1069.13 344.067 1074.06 342.133 1079.66 340.8C1085.39 339.467 1091.53 338.8 1098.06 338.8C1107.93 338.8 1116.13 340.267 1122.66 343.2C1129.19 346 1134.06 350 1137.26 355.2C1140.59 360.267 1142.26 366.133 1142.26 372.8H1119.26C1118.19 367.867 1116.06 364.333 1112.86 362.2C1109.66 359.933 1104.73 358.8 1098.06 358.8C1091.53 358.8 1086.59 359.8 1083.26 361.8C1079.93 363.8 1078.26 366.533 1078.26 370C1078.26 372.8 1079.26 375 1081.26 376.6C1083.39 378.067 1086.46 379.267 1090.46 380.2C1094.59 381.133 1099.73 382.133 1105.86 383.2C1111.06 384.267 1115.99 385.467 1120.66 386.8C1125.46 388.133 1129.73 389.867 1133.46 392C1137.19 394 1140.13 396.733 1142.26 400.2C1144.53 403.533 1145.66 407.8 1145.66 413C1145.66 419.4 1143.79 424.8 1140.06 429.2C1136.46 433.6 1131.26 437 1124.46 439.4C1117.66 441.667 1109.53 442.8 1100.06 442.8C1091.66 442.8 1084.39 441.933 1078.26 440.2C1072.26 438.333 1067.26 436 1063.26 433.2C1059.26 430.267 1056.13 427.2 1053.86 424C1051.73 420.667 1050.26 417.533 1049.46 414.6C1048.66 411.667 1048.39 409.267 1048.66 407.4Z" fill="#EFDDDD"/>
<path d="M1161.55 407.4H1185.55C1187.02 411.933 1190.02 415.667 1194.55 418.6C1199.22 421.4 1205.28 422.8 1212.75 422.8C1217.82 422.8 1221.75 422.333 1224.55 421.4C1227.35 420.467 1229.28 419.133 1230.35 417.4C1231.42 415.533 1231.95 413.467 1231.95 411.2C1231.95 408.4 1231.08 406.267 1229.35 404.8C1227.62 403.2 1224.95 401.933 1221.35 401C1217.75 400.067 1213.15 399.2 1207.55 398.4C1201.95 397.467 1196.55 396.333 1191.35 395C1186.15 393.667 1181.55 391.933 1177.55 389.8C1173.55 387.533 1170.35 384.733 1167.95 381.4C1165.68 377.933 1164.55 373.733 1164.55 368.8C1164.55 364 1165.68 359.733 1167.95 356C1170.35 352.267 1173.62 349.133 1177.75 346.6C1182.02 344.067 1186.95 342.133 1192.55 340.8C1198.28 339.467 1204.42 338.8 1210.95 338.8C1220.82 338.8 1229.02 340.267 1235.55 343.2C1242.08 346 1246.95 350 1250.15 355.2C1253.48 360.267 1255.15 366.133 1255.15 372.8H1232.15C1231.08 367.867 1228.95 364.333 1225.75 362.2C1222.55 359.933 1217.62 358.8 1210.95 358.8C1204.42 358.8 1199.48 359.8 1196.15 361.8C1192.82 363.8 1191.15 366.533 1191.15 370C1191.15 372.8 1192.15 375 1194.15 376.6C1196.28 378.067 1199.35 379.267 1203.35 380.2C1207.48 381.133 1212.62 382.133 1218.75 383.2C1223.95 384.267 1228.88 385.467 1233.55 386.8C1238.35 388.133 1242.62 389.867 1246.35 392C1250.08 394 1253.02 396.733 1255.15 400.2C1257.42 403.533 1258.55 407.8 1258.55 413C1258.55 419.4 1256.68 424.8 1252.95 429.2C1249.35 433.6 1244.15 437 1237.35 439.4C1230.55 441.667 1222.42 442.8 1212.95 442.8C1204.55 442.8 1197.28 441.933 1191.15 440.2C1185.15 438.333 1180.15 436 1176.15 433.2C1172.15 430.267 1169.02 427.2 1166.75 424C1164.62 420.667 1163.15 417.533 1162.35 414.6C1161.55 411.667 1161.28 409.267 1161.55 407.4Z" fill="#EFDDDD"/>
<path d="M1276.44 354.8H1373.64V374.4H1276.44V354.8ZM1276.44 395.4H1373.64V415H1276.44V395.4Z" fill="#EFDDDD"/>
<path d="M1397.03 362.6L1393.43 355.8C1395.43 352.867 1397.36 349.6 1399.23 346C1401.23 342.267 1402.29 338.533 1402.43 334.8L1391.43 332.6V309.8H1422.03V326.2C1422.03 335.533 1419.76 343.133 1415.23 349C1410.83 354.733 1404.76 359.267 1397.03 362.6ZM1436.63 362.6L1433.03 355.8C1435.03 352.867 1436.96 349.6 1438.83 346C1440.83 342.267 1441.89 338.533 1442.03 334.8L1431.03 332.6V309.8H1461.63V326.2C1461.63 335.533 1459.36 343.133 1454.83 349C1450.43 354.733 1444.36 359.267 1436.63 362.6Z" fill="#EFDDDD"/>
<path d="M1598 401.2C1597.34 409.867 1594.54 417.333 1589.6 423.6C1584.8 429.867 1578.14 434.667 1569.6 438C1561.07 441.2 1550.94 442.8 1539.2 442.8C1526.94 442.8 1515.94 440.867 1506.2 437C1496.6 433 1489 427.2 1483.4 419.6C1477.94 411.867 1475.2 402.333 1475.2 391C1475.2 379.667 1477.94 370.133 1483.4 362.4C1489 354.667 1496.6 348.8 1506.2 344.8C1515.94 340.8 1526.94 338.8 1539.2 338.8C1550.94 338.8 1561 340.467 1569.4 343.8C1577.8 347 1584.4 351.667 1589.2 357.8C1594.14 363.933 1597 371.333 1597.8 380H1574C1571.74 373.333 1567.54 368.133 1561.4 364.4C1555.27 360.667 1547.87 358.8 1539.2 358.8C1532.27 358.8 1525.94 360 1520.2 362.4C1514.6 364.8 1510.07 368.4 1506.6 373.2C1503.27 377.867 1501.6 383.8 1501.6 391C1501.6 398.067 1503.27 404 1506.6 408.8C1509.94 413.467 1514.47 417 1520.2 419.4C1525.94 421.667 1532.27 422.8 1539.2 422.8C1548.54 422.8 1556.14 420.933 1562 417.2C1568 413.467 1572.07 408.133 1574.2 401.2H1598Z" fill="#EFDDDD"/>
<path d="M1619.11 301H1645.11V440.4H1619.11V301Z" fill="#EFDDDD"/>
<path d="M1719.81 442.6C1709.94 442.6 1700.94 440.467 1692.81 436.2C1684.81 431.8 1678.41 425.733 1673.61 418C1668.94 410.133 1666.61 401.067 1666.61 390.8C1666.61 380.267 1669.01 371.133 1673.81 363.4C1678.61 355.667 1685.08 349.667 1693.21 345.4C1701.48 341 1710.81 338.8 1721.21 338.8C1732.68 338.8 1741.88 341.133 1748.81 345.8C1755.88 350.333 1761.01 356.533 1764.21 364.4C1767.41 372.267 1769.01 381.067 1769.01 390.8C1769.01 396.667 1768.08 402.667 1766.21 408.8C1764.34 414.8 1761.48 420.4 1757.61 425.6C1753.74 430.667 1748.68 434.8 1742.41 438C1736.14 441.067 1728.61 442.6 1719.81 442.6ZM1728.21 422.6C1736.08 422.6 1742.88 421.267 1748.61 418.6C1754.34 415.933 1758.74 412.2 1761.81 407.4C1764.88 402.6 1766.41 397.067 1766.41 390.8C1766.41 384 1764.81 378.267 1761.61 373.6C1758.54 368.8 1754.14 365.2 1748.41 362.8C1742.81 360.267 1736.08 359 1728.21 359C1717.14 359 1708.54 361.933 1702.41 367.8C1696.28 373.533 1693.21 381.2 1693.21 390.8C1693.21 397.2 1694.68 402.8 1697.61 407.6C1700.54 412.267 1704.61 415.933 1709.81 418.6C1715.14 421.267 1721.28 422.6 1728.21 422.6ZM1766.41 341H1792.41V440.4H1768.21C1768.21 440.4 1768.01 439.133 1767.61 436.6C1767.34 433.933 1767.08 430.6 1766.81 426.6C1766.54 422.6 1766.41 418.667 1766.41 414.8V341Z" fill="#EFDDDD"/>
<path d="M1811.94 407.4H1835.94C1837.41 411.933 1840.41 415.667 1844.94 418.6C1849.61 421.4 1855.67 422.8 1863.14 422.8C1868.21 422.8 1872.14 422.333 1874.94 421.4C1877.74 420.467 1879.67 419.133 1880.74 417.4C1881.81 415.533 1882.34 413.467 1882.34 411.2C1882.34 408.4 1881.47 406.267 1879.74 404.8C1878.01 403.2 1875.34 401.933 1871.74 401C1868.14 400.067 1863.54 399.2 1857.94 398.4C1852.34 397.467 1846.94 396.333 1841.74 395C1836.54 393.667 1831.94 391.933 1827.94 389.8C1823.94 387.533 1820.74 384.733 1818.34 381.4C1816.07 377.933 1814.94 373.733 1814.94 368.8C1814.94 364 1816.07 359.733 1818.34 356C1820.74 352.267 1824.01 349.133 1828.14 346.6C1832.41 344.067 1837.34 342.133 1842.94 340.8C1848.67 339.467 1854.81 338.8 1861.34 338.8C1871.21 338.8 1879.41 340.267 1885.94 343.2C1892.47 346 1897.34 350 1900.54 355.2C1903.87 360.267 1905.54 366.133 1905.54 372.8H1882.54C1881.47 367.867 1879.34 364.333 1876.14 362.2C1872.94 359.933 1868.01 358.8 1861.34 358.8C1854.81 358.8 1849.87 359.8 1846.54 361.8C1843.21 363.8 1841.54 366.533 1841.54 370C1841.54 372.8 1842.54 375 1844.54 376.6C1846.67 378.067 1849.74 379.267 1853.74 380.2C1857.87 381.133 1863.01 382.133 1869.14 383.2C1874.34 384.267 1879.27 385.467 1883.94 386.8C1888.74 388.133 1893.01 389.867 1896.74 392C1900.47 394 1903.41 396.733 1905.54 400.2C1907.81 403.533 1908.94 407.8 1908.94 413C1908.94 419.4 1907.07 424.8 1903.34 429.2C1899.74 433.6 1894.54 437 1887.74 439.4C1880.94 441.667 1872.81 442.8 1863.34 442.8C1854.94 442.8 1847.67 441.933 1841.54 440.2C1835.54 438.333 1830.54 436 1826.54 433.2C1822.54 430.267 1819.41 427.2 1817.14 424C1815.01 420.667 1813.54 417.533 1812.74 414.6C1811.94 411.667 1811.67 409.267 1811.94 407.4Z" fill="#EFDDDD"/>
<path d="M1924.83 407.4H1948.83C1950.3 411.933 1953.3 415.667 1957.83 418.6C1962.5 421.4 1968.56 422.8 1976.03 422.8C1981.1 422.8 1985.03 422.333 1987.83 421.4C1990.63 420.467 1992.56 419.133 1993.63 417.4C1994.7 415.533 1995.23 413.467 1995.23 411.2C1995.23 408.4 1994.36 406.267 1992.63 404.8C1990.9 403.2 1988.23 401.933 1984.63 401C1981.03 400.067 1976.43 399.2 1970.83 398.4C1965.23 397.467 1959.83 396.333 1954.63 395C1949.43 393.667 1944.83 391.933 1940.83 389.8C1936.83 387.533 1933.63 384.733 1931.23 381.4C1928.96 377.933 1927.83 373.733 1927.83 368.8C1927.83 364 1928.96 359.733 1931.23 356C1933.63 352.267 1936.9 349.133 1941.03 346.6C1945.3 344.067 1950.23 342.133 1955.83 340.8C1961.56 339.467 1967.7 338.8 1974.23 338.8C1984.1 338.8 1992.3 340.267 1998.83 343.2C2005.36 346 2010.23 350 2013.43 355.2C2016.76 360.267 2018.43 366.133 2018.43 372.8H1995.43C1994.36 367.867 1992.23 364.333 1989.03 362.2C1985.83 359.933 1980.9 358.8 1974.23 358.8C1967.7 358.8 1962.76 359.8 1959.43 361.8C1956.1 363.8 1954.43 366.533 1954.43 370C1954.43 372.8 1955.43 375 1957.43 376.6C1959.56 378.067 1962.63 379.267 1966.63 380.2C1970.76 381.133 1975.9 382.133 1982.03 383.2C1987.23 384.267 1992.16 385.467 1996.83 386.8C2001.63 388.133 2005.9 389.867 2009.63 392C2013.36 394 2016.3 396.733 2018.43 400.2C2020.7 403.533 2021.83 407.8 2021.83 413C2021.83 419.4 2019.96 424.8 2016.23 429.2C2012.63 433.6 2007.43 437 2000.63 439.4C1993.83 441.667 1985.7 442.8 1976.23 442.8C1967.83 442.8 1960.56 441.933 1954.43 440.2C1948.43 438.333 1943.43 436 1939.43 433.2C1935.43 430.267 1932.3 427.2 1930.03 424C1927.9 420.667 1926.43 417.533 1925.63 414.6C1924.83 411.667 1924.56 409.267 1924.83 407.4Z" fill="#EFDDDD"/>
<path d="M2029.01 341H2056.61L2099.61 436.4L2077.21 440.4L2029.01 341ZM2150.61 341L2081.81 480.4H2054.81L2084.21 425.6L2122.81 341H2150.61Z" fill="#EFDDDD"/>
<path d="M2167.15 362.6L2163.55 355.8C2165.55 352.867 2167.48 349.6 2169.35 346C2171.35 342.267 2172.41 338.533 2172.55 334.8L2161.55 332.6V309.8H2192.15V326.2C2192.15 335.533 2189.88 343.133 2185.35 349C2180.95 354.733 2174.88 359.267 2167.15 362.6ZM2206.75 362.6L2203.15 355.8C2205.15 352.867 2207.08 349.6 2208.95 346C2210.95 342.267 2212.01 338.533 2212.15 334.8L2201.15 332.6V309.8H2231.75V326.2C2231.75 335.533 2229.48 343.133 2224.95 349C2220.55 354.733 2214.48 359.267 2206.75 362.6Z" fill="#EFDDDD"/>
<path d="M2258.29 352.4L2268.09 334.4L2333.69 371.6V393.4L2268.09 430.6L2258.29 412L2313.49 382.4L2258.29 352.4Z" fill="#EFDDDD"/>
<path d="M362.4 574.4L372.4 592.4L317.2 622.4L372.4 652L362.4 670.6L297 633.4V611.6L362.4 574.4Z" fill="#EFDDDD"/>
<path d="M436.645 640.2V607H448.445C459.245 607 467.179 605 472.245 601C477.312 597 479.845 591.333 479.845 584C479.845 576.667 477.445 571.067 472.645 567.2C467.845 563.333 461.445 561.4 453.445 561.4C447.712 561.4 442.912 562.333 439.045 564.2C435.312 565.933 432.445 568.333 430.445 571.4C428.579 574.333 427.579 577.667 427.445 581.4H401.645C401.512 577.533 402.045 573.6 403.245 569.6C404.579 565.6 406.579 561.733 409.245 558C411.912 554.267 415.312 550.933 419.445 548C423.579 545.067 428.512 542.8 434.245 541.2C440.112 539.467 446.712 538.6 454.045 538.6C462.979 538.6 470.712 539.733 477.245 542C483.912 544.267 489.379 547.4 493.645 551.4C498.045 555.4 501.312 560.133 503.445 565.6C505.579 570.933 506.645 576.8 506.645 583.2C506.645 592 504.645 599.467 500.645 605.6C496.645 611.6 491.245 616.267 484.445 619.6C477.779 622.8 470.312 624.667 462.045 625.2V640.2H436.645ZM434.845 680.4V657.6H465.045V680.4H434.845Z" fill="#EFDDDD"/>
<path d="M600.841 682.8C592.041 682.8 584.507 681.267 578.241 678.2C572.107 675 567.107 670.867 563.241 665.8C559.374 660.6 556.507 654.933 554.641 648.8C552.774 642.667 551.841 636.667 551.841 630.8C551.841 623.467 552.707 616.667 554.441 610.4C556.307 604.133 559.174 598.667 563.041 594C566.907 589.2 571.907 585.467 578.041 582.8C584.307 580.133 591.907 578.8 600.841 578.8C610.841 578.8 619.841 581 627.841 585.4C635.841 589.8 642.174 595.933 646.841 603.8C651.641 611.533 654.041 620.533 654.041 630.8C654.041 641.333 651.641 650.533 646.841 658.4C642.041 666.133 635.641 672.133 627.641 676.4C619.641 680.667 610.707 682.8 600.841 682.8ZM592.441 662.6C599.507 662.6 605.641 661.267 610.841 658.6C616.174 655.933 620.241 652.267 623.041 647.6C625.974 642.8 627.441 637.2 627.441 630.8C627.441 621.2 624.374 613.467 618.241 607.6C612.241 601.733 603.641 598.8 592.441 598.8C585.374 598.8 578.907 600.067 573.041 602.6C567.307 605.133 562.774 608.8 559.441 613.6C556.107 618.267 554.441 624 554.441 630.8C554.441 637.2 555.974 642.8 559.041 647.6C562.107 652.267 566.507 655.933 572.241 658.6C577.974 661.267 584.707 662.6 592.441 662.6ZM528.441 581H553.241L554.441 607.4V720.4H528.441V581Z" fill="#EFDDDD"/>
<path d="M763.967 680.4V625.8C763.967 620.333 763.034 615.8 761.167 612.2C759.301 608.6 756.301 605.867 752.167 604C748.167 602.133 742.767 601.2 735.967 601.2C729.434 601.2 723.501 602.467 718.167 605C712.834 607.4 708.501 610.6 705.167 614.6C701.834 618.467 699.967 622.6 699.567 627L699.367 616C700.034 611.6 701.567 607.2 703.967 602.8C706.367 598.4 709.567 594.4 713.567 590.8C717.567 587.2 722.367 584.333 727.967 582.2C733.701 579.933 740.1 578.8 747.167 578.8C753.301 578.8 758.967 579.6 764.167 581.2C769.367 582.667 773.901 585 777.767 588.2C781.634 591.4 784.634 595.4 786.767 600.2C788.901 604.867 789.967 610.4 789.967 616.8V680.4H763.967ZM674.967 680.4V541H700.967V680.4H674.967Z" fill="#EFDDDD"/>
<path d="M885.997 682.8C877.197 682.8 869.664 681.267 863.397 678.2C857.263 675 852.263 670.867 848.397 665.8C844.53 660.6 841.664 654.933 839.797 648.8C837.93 642.667 836.997 636.667 836.997 630.8C836.997 623.467 837.864 616.667 839.597 610.4C841.464 604.133 844.33 598.667 848.197 594C852.064 589.2 857.064 585.467 863.197 582.8C869.464 580.133 877.064 578.8 885.997 578.8C895.997 578.8 904.997 581 912.997 585.4C920.997 589.8 927.33 595.933 931.997 603.8C936.797 611.533 939.197 620.533 939.197 630.8C939.197 641.333 936.797 650.533 931.997 658.4C927.197 666.133 920.797 672.133 912.797 676.4C904.797 680.667 895.864 682.8 885.997 682.8ZM877.597 662.6C884.664 662.6 890.797 661.267 895.997 658.6C901.33 655.933 905.397 652.267 908.197 647.6C911.13 642.8 912.597 637.2 912.597 630.8C912.597 621.2 909.53 613.467 903.397 607.6C897.397 601.733 888.797 598.8 877.597 598.8C870.53 598.8 864.064 600.067 858.197 602.6C852.464 605.133 847.93 608.8 844.597 613.6C841.264 618.267 839.597 624 839.597 630.8C839.597 637.2 841.13 642.8 844.197 647.6C847.264 652.267 851.664 655.933 857.397 658.6C863.13 661.267 869.864 662.6 877.597 662.6ZM813.597 581H838.397L839.597 607.4V720.4H813.597V581Z" fill="#EFDDDD"/>
<path d="M997.566 581H1025.17L1068.17 676.4L1045.77 680.4L997.566 581ZM1119.17 581L1050.37 720.4H1023.37L1052.77 665.6L1091.37 581H1119.17Z" fill="#EFDDDD"/>
<path d="M1178.21 682.6C1168.34 682.6 1159.34 680.467 1151.21 676.2C1143.21 671.8 1136.81 665.733 1132.01 658C1127.34 650.133 1125.01 641.067 1125.01 630.8C1125.01 620.267 1127.41 611.133 1132.21 603.4C1137.01 595.667 1143.47 589.667 1151.61 585.4C1159.87 581 1169.21 578.8 1179.61 578.8C1191.07 578.8 1200.27 581.133 1207.21 585.8C1214.27 590.333 1219.41 596.533 1222.61 604.4C1225.81 612.267 1227.41 621.067 1227.41 630.8C1227.41 636.667 1226.47 642.667 1224.61 648.8C1222.74 654.8 1219.87 660.4 1216.01 665.6C1212.14 670.667 1207.07 674.8 1200.81 678C1194.54 681.067 1187.01 682.6 1178.21 682.6ZM1186.61 662.6C1194.47 662.6 1201.27 661.267 1207.01 658.6C1212.74 655.933 1217.14 652.2 1220.21 647.4C1223.27 642.6 1224.81 637.067 1224.81 630.8C1224.81 624 1223.21 618.267 1220.01 613.6C1216.94 608.8 1212.54 605.2 1206.81 602.8C1201.21 600.267 1194.47 599 1186.61 599C1175.54 599 1166.94 601.933 1160.81 607.8C1154.67 613.533 1151.61 621.2 1151.61 630.8C1151.61 637.2 1153.07 642.8 1156.01 647.6C1158.94 652.267 1163.01 655.933 1168.21 658.6C1173.54 661.267 1179.67 662.6 1186.61 662.6ZM1224.81 581H1250.81V680.4H1226.61C1226.61 680.4 1226.41 679.133 1226.01 676.6C1225.74 673.933 1225.47 670.6 1225.21 666.6C1224.94 662.6 1224.81 658.667 1224.81 654.8V581Z" fill="#EFDDDD"/>
<path d="M1322.74 682.6C1312.74 682.6 1303.67 680.467 1295.54 676.2C1287.54 671.8 1281.21 665.733 1276.54 658C1271.87 650.133 1269.54 641.067 1269.54 630.8C1269.54 620.267 1271.81 611.133 1276.34 603.4C1281.01 595.667 1287.34 589.667 1295.34 585.4C1303.34 581 1312.47 578.8 1322.74 578.8C1331.67 578.8 1339.27 580.133 1345.54 582.8C1351.81 585.467 1356.87 589.2 1360.74 594C1364.61 598.667 1367.41 604.133 1369.14 610.4C1371.01 616.667 1371.94 623.467 1371.94 630.8C1371.94 636.667 1371.01 642.667 1369.14 648.8C1367.27 654.8 1364.41 660.4 1360.54 665.6C1356.67 670.667 1351.61 674.8 1345.34 678C1339.07 681.067 1331.54 682.6 1322.74 682.6ZM1331.14 662.6C1339.01 662.6 1345.81 661.267 1351.54 658.6C1357.27 655.933 1361.67 652.2 1364.74 647.4C1367.81 642.6 1369.34 637.067 1369.34 630.8C1369.34 624 1367.74 618.267 1364.54 613.6C1361.47 608.8 1357.07 605.133 1351.34 602.6C1345.74 600.067 1339.01 598.8 1331.14 598.8C1320.07 598.8 1311.47 601.733 1305.34 607.6C1299.21 613.467 1296.14 621.2 1296.14 630.8C1296.14 637.2 1297.61 642.8 1300.54 647.6C1303.47 652.267 1307.54 655.933 1312.74 658.6C1318.07 661.267 1324.21 662.6 1331.14 662.6ZM1369.34 541H1395.34V680.4H1371.14C1370.74 677.333 1370.34 673.4 1369.94 668.6C1369.54 663.667 1369.34 659.067 1369.34 654.8V541Z" fill="#EFDDDD"/>
<path d="M1471.76 682.6C1461.9 682.6 1452.9 680.467 1444.76 676.2C1436.76 671.8 1430.36 665.733 1425.56 658C1420.9 650.133 1418.56 641.067 1418.56 630.8C1418.56 620.267 1420.96 611.133 1425.76 603.4C1430.56 595.667 1437.03 589.667 1445.16 585.4C1453.43 581 1462.76 578.8 1473.16 578.8C1484.63 578.8 1493.83 581.133 1500.76 585.8C1507.83 590.333 1512.96 596.533 1516.16 604.4C1519.36 612.267 1520.96 621.067 1520.96 630.8C1520.96 636.667 1520.03 642.667 1518.16 648.8C1516.3 654.8 1513.43 660.4 1509.56 665.6C1505.7 670.667 1500.63 674.8 1494.36 678C1488.1 681.067 1480.56 682.6 1471.76 682.6ZM1480.16 662.6C1488.03 662.6 1494.83 661.267 1500.56 658.6C1506.3 655.933 1510.7 652.2 1513.76 647.4C1516.83 642.6 1518.36 637.067 1518.36 630.8C1518.36 624 1516.76 618.267 1513.56 613.6C1510.5 608.8 1506.1 605.2 1500.36 602.8C1494.76 600.267 1488.03 599 1480.16 599C1469.1 599 1460.5 601.933 1454.36 607.8C1448.23 613.533 1445.16 621.2 1445.16 630.8C1445.16 637.2 1446.63 642.8 1449.56 647.6C1452.5 652.267 1456.56 655.933 1461.76 658.6C1467.1 661.267 1473.23 662.6 1480.16 662.6ZM1518.36 581H1544.36V680.4H1520.16C1520.16 680.4 1519.96 679.133 1519.56 676.6C1519.3 673.933 1519.03 670.6 1518.76 666.6C1518.5 662.6 1518.36 658.667 1518.36 654.8V581Z" fill="#EFDDDD"/>
<path d="M1558.89 581H1586.49L1629.49 676.4L1607.09 680.4L1558.89 581ZM1680.49 581L1611.69 720.4H1584.69L1614.09 665.6L1652.69 581H1680.49Z" fill="#EFDDDD"/>
<path d="M1739.54 682.6C1729.67 682.6 1720.67 680.467 1712.54 676.2C1704.54 671.8 1698.14 665.733 1693.34 658C1688.67 650.133 1686.34 641.067 1686.34 630.8C1686.34 620.267 1688.74 611.133 1693.54 603.4C1698.34 595.667 1704.8 589.667 1712.94 585.4C1721.2 581 1730.54 578.8 1740.94 578.8C1752.4 578.8 1761.6 581.133 1768.54 585.8C1775.6 590.333 1780.74 596.533 1783.94 604.4C1787.14 612.267 1788.74 621.067 1788.74 630.8C1788.74 636.667 1787.8 642.667 1785.94 648.8C1784.07 654.8 1781.2 660.4 1777.34 665.6C1773.47 670.667 1768.4 674.8 1762.14 678C1755.87 681.067 1748.34 682.6 1739.54 682.6ZM1747.94 662.6C1755.8 662.6 1762.6 661.267 1768.34 658.6C1774.07 655.933 1778.47 652.2 1781.54 647.4C1784.6 642.6 1786.14 637.067 1786.14 630.8C1786.14 624 1784.54 618.267 1781.34 613.6C1778.27 608.8 1773.87 605.2 1768.14 602.8C1762.54 600.267 1755.8 599 1747.94 599C1736.87 599 1728.27 601.933 1722.14 607.8C1716 613.533 1712.94 621.2 1712.94 630.8C1712.94 637.2 1714.4 642.8 1717.34 647.6C1720.27 652.267 1724.34 655.933 1729.54 658.6C1734.87 661.267 1741 662.6 1747.94 662.6ZM1786.14 581H1812.14V680.4H1787.94C1787.94 680.4 1787.74 679.133 1787.34 676.6C1787.07 673.933 1786.8 670.6 1786.54 666.6C1786.27 662.6 1786.14 658.667 1786.14 654.8V581Z" fill="#EFDDDD"/>
<path d="M1884.07 682.6C1874.07 682.6 1865 680.467 1856.87 676.2C1848.87 671.8 1842.53 665.733 1837.87 658C1833.2 650.133 1830.87 641.067 1830.87 630.8C1830.87 620.267 1833.13 611.133 1837.67 603.4C1842.33 595.667 1848.67 589.667 1856.67 585.4C1864.67 581 1873.8 578.8 1884.07 578.8C1893 578.8 1900.6 580.133 1906.87 582.8C1913.13 585.467 1918.2 589.2 1922.07 594C1925.93 598.667 1928.73 604.133 1930.47 610.4C1932.33 616.667 1933.27 623.467 1933.27 630.8C1933.27 636.667 1932.33 642.667 1930.47 648.8C1928.6 654.8 1925.73 660.4 1921.87 665.6C1918 670.667 1912.93 674.8 1906.67 678C1900.4 681.067 1892.87 682.6 1884.07 682.6ZM1892.47 662.6C1900.33 662.6 1907.13 661.267 1912.87 658.6C1918.6 655.933 1923 652.2 1926.07 647.4C1929.13 642.6 1930.67 637.067 1930.67 630.8C1930.67 624 1929.07 618.267 1925.87 613.6C1922.8 608.8 1918.4 605.133 1912.67 602.6C1907.07 600.067 1900.33 598.8 1892.47 598.8C1881.4 598.8 1872.8 601.733 1866.67 607.6C1860.53 613.467 1857.47 621.2 1857.47 630.8C1857.47 637.2 1858.93 642.8 1861.87 647.6C1864.8 652.267 1868.87 655.933 1874.07 658.6C1879.4 661.267 1885.53 662.6 1892.47 662.6ZM1930.67 541H1956.67V680.4H1932.47C1932.07 677.333 1931.67 673.4 1931.27 668.6C1930.87 663.667 1930.67 659.067 1930.67 654.8V541Z" fill="#EFDDDD"/>
<path d="M2033.09 682.6C2023.22 682.6 2014.22 680.467 2006.09 676.2C1998.09 671.8 1991.69 665.733 1986.89 658C1982.22 650.133 1979.89 641.067 1979.89 630.8C1979.89 620.267 1982.29 611.133 1987.09 603.4C1991.89 595.667 1998.36 589.667 2006.49 585.4C2014.76 581 2024.09 578.8 2034.49 578.8C2045.96 578.8 2055.16 581.133 2062.09 585.8C2069.16 590.333 2074.29 596.533 2077.49 604.4C2080.69 612.267 2082.29 621.067 2082.29 630.8C2082.29 636.667 2081.36 642.667 2079.49 648.8C2077.62 654.8 2074.76 660.4 2070.89 665.6C2067.02 670.667 2061.96 674.8 2055.69 678C2049.42 681.067 2041.89 682.6 2033.09 682.6ZM2041.49 662.6C2049.36 662.6 2056.16 661.267 2061.89 658.6C2067.62 655.933 2072.02 652.2 2075.09 647.4C2078.16 642.6 2079.69 637.067 2079.69 630.8C2079.69 624 2078.09 618.267 2074.89 613.6C2071.82 608.8 2067.42 605.2 2061.69 602.8C2056.09 600.267 2049.36 599 2041.49 599C2030.42 599 2021.82 601.933 2015.69 607.8C2009.56 613.533 2006.49 621.2 2006.49 630.8C2006.49 637.2 2007.96 642.8 2010.89 647.6C2013.82 652.267 2017.89 655.933 2023.09 658.6C2028.42 661.267 2034.56 662.6 2041.49 662.6ZM2079.69 581H2105.69V680.4H2081.49C2081.49 680.4 2081.29 679.133 2080.89 676.6C2080.62 673.933 2080.36 670.6 2080.09 666.6C2079.82 662.6 2079.69 658.667 2079.69 654.8V581Z" fill="#EFDDDD"/>
<path d="M2120.22 581H2147.82L2190.82 676.4L2168.42 680.4L2120.22 581ZM2241.82 581L2173.02 720.4H2146.02L2175.42 665.6L2214.02 581H2241.82Z" fill="#EFDDDD"/>
<path d="M2300.86 682.6C2291 682.6 2282 680.467 2273.86 676.2C2265.86 671.8 2259.46 665.733 2254.66 658C2250 650.133 2247.66 641.067 2247.66 630.8C2247.66 620.267 2250.06 611.133 2254.86 603.4C2259.66 595.667 2266.13 589.667 2274.26 585.4C2282.53 581 2291.86 578.8 2302.26 578.8C2313.73 578.8 2322.93 581.133 2329.86 585.8C2336.93 590.333 2342.06 596.533 2345.26 604.4C2348.46 612.267 2350.06 621.067 2350.06 630.8C2350.06 636.667 2349.13 642.667 2347.26 648.8C2345.4 654.8 2342.53 660.4 2338.66 665.6C2334.8 670.667 2329.73 674.8 2323.46 678C2317.2 681.067 2309.66 682.6 2300.86 682.6ZM2309.26 662.6C2317.13 662.6 2323.93 661.267 2329.66 658.6C2335.4 655.933 2339.8 652.2 2342.86 647.4C2345.93 642.6 2347.46 637.067 2347.46 630.8C2347.46 624 2345.86 618.267 2342.66 613.6C2339.6 608.8 2335.2 605.2 2329.46 602.8C2323.86 600.267 2317.13 599 2309.26 599C2298.2 599 2289.6 601.933 2283.46 607.8C2277.33 613.533 2274.26 621.2 2274.26 630.8C2274.26 637.2 2275.73 642.8 2278.66 647.6C2281.6 652.267 2285.66 655.933 2290.86 658.6C2296.2 661.267 2302.33 662.6 2309.26 662.6ZM2347.46 581H2373.46V680.4H2349.26C2349.26 680.4 2349.06 679.133 2348.66 676.6C2348.4 673.933 2348.13 670.6 2347.86 666.6C2347.6 662.6 2347.46 658.667 2347.46 654.8V581Z" fill="#EFDDDD"/>
<path d="M2445.4 682.6C2435.4 682.6 2426.33 680.467 2418.2 676.2C2410.2 671.8 2403.86 665.733 2399.2 658C2394.53 650.133 2392.2 641.067 2392.2 630.8C2392.2 620.267 2394.46 611.133 2399 603.4C2403.66 595.667 2410 589.667 2418 585.4C2426 581 2435.13 578.8 2445.4 578.8C2454.33 578.8 2461.93 580.133 2468.2 582.8C2474.46 585.467 2479.53 589.2 2483.4 594C2487.26 598.667 2490.06 604.133 2491.8 610.4C2493.66 616.667 2494.6 623.467 2494.6 630.8C2494.6 636.667 2493.66 642.667 2491.8 648.8C2489.93 654.8 2487.06 660.4 2483.2 665.6C2479.33 670.667 2474.26 674.8 2468 678C2461.73 681.067 2454.2 682.6 2445.4 682.6ZM2453.8 662.6C2461.66 662.6 2468.46 661.267 2474.2 658.6C2479.93 655.933 2484.33 652.2 2487.4 647.4C2490.46 642.6 2492 637.067 2492 630.8C2492 624 2490.4 618.267 2487.2 613.6C2484.13 608.8 2479.73 605.133 2474 602.6C2468.4 600.067 2461.66 598.8 2453.8 598.8C2442.73 598.8 2434.13 601.733 2428 607.6C2421.86 613.467 2418.8 621.2 2418.8 630.8C2418.8 637.2 2420.26 642.8 2423.2 647.6C2426.13 652.267 2430.2 655.933 2435.4 658.6C2440.73 661.267 2446.86 662.6 2453.8 662.6ZM2492 541H2518V680.4H2493.8C2493.4 677.333 2493 673.4 2492.6 668.6C2492.2 663.667 2492 659.067 2492 654.8V541Z" fill="#EFDDDD"/>
<path d="M2594.42 682.6C2584.55 682.6 2575.55 680.467 2567.42 676.2C2559.42 671.8 2553.02 665.733 2548.22 658C2543.55 650.133 2541.22 641.067 2541.22 630.8C2541.22 620.267 2543.62 611.133 2548.42 603.4C2553.22 595.667 2559.69 589.667 2567.82 585.4C2576.09 581 2585.42 578.8 2595.82 578.8C2607.29 578.8 2616.49 581.133 2623.42 585.8C2630.49 590.333 2635.62 596.533 2638.82 604.4C2642.02 612.267 2643.62 621.067 2643.62 630.8C2643.62 636.667 2642.69 642.667 2640.82 648.8C2638.95 654.8 2636.09 660.4 2632.22 665.6C2628.35 670.667 2623.29 674.8 2617.02 678C2610.75 681.067 2603.22 682.6 2594.42 682.6ZM2602.82 662.6C2610.69 662.6 2617.49 661.267 2623.22 658.6C2628.95 655.933 2633.35 652.2 2636.42 647.4C2639.49 642.6 2641.02 637.067 2641.02 630.8C2641.02 624 2639.42 618.267 2636.22 613.6C2633.15 608.8 2628.75 605.2 2623.02 602.8C2617.42 600.267 2610.69 599 2602.82 599C2591.75 599 2583.15 601.933 2577.02 607.8C2570.89 613.533 2567.82 621.2 2567.82 630.8C2567.82 637.2 2569.29 642.8 2572.22 647.6C2575.15 652.267 2579.22 655.933 2584.42 658.6C2589.75 661.267 2595.89 662.6 2602.82 662.6ZM2641.02 581H2667.02V680.4H2642.82C2642.82 680.4 2642.62 679.133 2642.22 676.6C2641.95 673.933 2641.69 670.6 2641.42 666.6C2641.15 662.6 2641.02 658.667 2641.02 654.8V581Z" fill="#EFDDDD"/>
<path d="M2735.15 698.4L2721.35 709.6C2721.35 709.6 2720.22 708.333 2717.95 705.8C2715.82 703.4 2713.15 699.8 2709.95 695C2706.88 690.2 2703.75 684.333 2700.55 677.4C2697.35 670.333 2694.62 662.267 2692.35 653.2C2690.22 644.133 2689.15 634.133 2689.15 623.2C2689.15 612.133 2690.22 602.133 2692.35 593.2C2694.62 584.133 2697.35 576.2 2700.55 569.4C2703.75 562.467 2706.88 556.667 2709.95 552C2713.15 547.2 2715.82 543.6 2717.95 541.2C2720.22 538.8 2721.35 537.6 2721.35 537.6L2735.15 548.6C2735.15 548.6 2733.82 550.2 2731.15 553.4C2728.62 556.6 2725.68 561.4 2722.35 567.8C2719.02 574.067 2716.02 581.867 2713.35 591.2C2710.82 600.4 2709.55 611.067 2709.55 623.2C2709.55 633.2 2710.42 642.2 2712.15 650.2C2713.88 658.2 2716.02 665.2 2718.55 671.2C2721.08 677.2 2723.62 682.2 2726.15 686.2C2728.68 690.333 2730.82 693.4 2732.55 695.4C2734.28 697.4 2735.15 698.4 2735.15 698.4Z" fill="#EFDDDD"/>
<path d="M2756.34 698.4C2756.34 698.4 2757.2 697.4 2758.94 695.4C2760.67 693.4 2762.8 690.333 2765.34 686.2C2767.87 682.2 2770.4 677.2 2772.94 671.2C2775.47 665.2 2777.6 658.2 2779.34 650.2C2781.07 642.2 2781.94 633.2 2781.94 623.2C2781.94 611.067 2780.6 600.4 2777.94 591.2C2775.4 581.867 2772.47 574.067 2769.14 567.8C2765.8 561.4 2762.8 556.6 2760.14 553.4C2757.6 550.2 2756.34 548.6 2756.34 548.6L2770.14 537.6C2770.14 537.6 2771.2 538.8 2773.34 541.2C2775.6 543.6 2778.34 547.2 2781.54 552C2784.74 556.667 2787.87 562.467 2790.94 569.4C2794.14 576.2 2796.8 584.133 2798.94 593.2C2801.2 602.133 2802.34 612.133 2802.34 623.2C2802.34 634.133 2801.2 644.133 2798.94 653.2C2796.8 662.267 2794.14 670.333 2790.94 677.4C2787.87 684.333 2784.74 690.2 2781.54 695C2778.34 699.8 2775.6 703.4 2773.34 705.8C2771.2 708.333 2770.14 709.6 2770.14 709.6L2756.34 698.4Z" fill="#EFDDDD"/>
<path d="M2855.12 583.8V606.6H2824.93V583.8H2855.12ZM2830.52 707.6L2826.93 700.8C2828.93 697.867 2830.86 694.6 2832.73 691C2834.73 687.4 2835.79 683.733 2835.93 680L2824.93 677.8V654.8H2855.52V671.2C2855.52 680.667 2853.26 688.267 2848.73 694C2844.33 699.867 2838.26 704.4 2830.52 707.6Z" fill="#EFDDDD"/>
<path d="M2961.25 640.2V607H2973.05C2983.85 607 2991.79 605 2996.85 601C3001.92 597 3004.45 591.333 3004.45 584C3004.45 576.667 3002.05 571.067 2997.25 567.2C2992.45 563.333 2986.05 561.4 2978.05 561.4C2972.32 561.4 2967.52 562.333 2963.65 564.2C2959.92 565.933 2957.05 568.333 2955.05 571.4C2953.19 574.333 2952.19 577.667 2952.05 581.4H2926.25C2926.12 577.533 2926.65 573.6 2927.85 569.6C2929.19 565.6 2931.19 561.733 2933.85 558C2936.52 554.267 2939.92 550.933 2944.05 548C2948.19 545.067 2953.12 542.8 2958.85 541.2C2964.72 539.467 2971.32 538.6 2978.65 538.6C2987.59 538.6 2995.32 539.733 3001.85 542C3008.52 544.267 3013.99 547.4 3018.25 551.4C3022.65 555.4 3025.92 560.133 3028.05 565.6C3030.19 570.933 3031.25 576.8 3031.25 583.2C3031.25 592 3029.25 599.467 3025.25 605.6C3021.25 611.6 3015.85 616.267 3009.05 619.6C3002.39 622.8 2994.92 624.667 2986.65 625.2V640.2H2961.25ZM2959.45 680.4V657.6H2989.65V680.4H2959.45Z" fill="#EFDDDD"/>
<path d="M3059.85 592.4L3069.65 574.4L3135.25 611.6V633.4L3069.65 670.6L3059.85 652L3115.05 622.4L3059.85 592.4Z" fill="#EFDDDD"/>
<path d="M362.4 814.4L372.4 832.4L317.2 862.4L372.4 892L362.4 910.6L297 873.4V851.6L362.4 814.4Z" fill="#EFDDDD"/>
<path d="M452.409 769.8L473.409 777.4L412.409 944.4L391.609 936.8L452.409 769.8Z" fill="#EFDDDD"/>
<path d="M583.498 920.4V865.8C583.498 860.333 582.565 855.8 580.698 852.2C578.832 848.6 575.832 845.867 571.698 844C567.698 842.133 562.298 841.2 555.498 841.2C548.965 841.2 543.032 842.467 537.698 845C532.365 847.4 528.032 850.6 524.698 854.6C521.365 858.467 519.498 862.6 519.098 867L518.898 856C519.565 851.6 521.098 847.2 523.498 842.8C525.898 838.4 529.098 834.4 533.098 830.8C537.098 827.2 541.898 824.333 547.498 822.2C553.232 819.933 559.632 818.8 566.698 818.8C572.832 818.8 578.498 819.6 583.698 821.2C588.898 822.667 593.432 825 597.298 828.2C601.165 831.4 604.165 835.4 606.298 840.2C608.432 844.867 609.498 850.4 609.498 856.8V920.4H583.498ZM494.498 920.4V781H520.498V920.4H494.498Z" fill="#EFDDDD"/>
<path d="M696.728 890.2L664.328 905.4L663.328 900.4H737.928V920.4H631.328V900.4C643.328 894.933 654.128 890.267 663.728 886.4C673.328 882.533 681.461 879.067 688.128 876C694.795 872.8 699.861 869.6 703.328 866.4C706.928 863.067 708.728 859.4 708.728 855.4C708.728 852.2 707.795 849.467 705.928 847.2C704.061 844.8 701.128 842.933 697.128 841.6C693.128 840.267 687.928 839.6 681.528 839.6C673.128 839.6 666.328 841.267 661.128 844.6C656.061 847.8 653.395 852.2 653.128 857.8H627.928C627.528 850.067 629.395 843.267 633.528 837.4C637.795 831.533 643.995 826.933 652.128 823.6C660.261 820.267 669.861 818.6 680.928 818.6C689.061 818.6 696.461 819.4 703.128 821C709.795 822.467 715.528 824.667 720.328 827.6C725.261 830.533 728.995 834.067 731.528 838.2C734.195 842.333 735.528 847 735.528 852.2C735.528 856.2 734.795 859.867 733.328 863.2C731.861 866.4 729.528 869.467 726.328 872.4C723.261 875.333 719.261 878.267 714.328 881.2C709.395 884 703.528 887 696.728 890.2Z" fill="#EFDDDD"/>
<path d="M764.733 832.4L774.533 814.4L840.133 851.6V873.4L774.533 910.6L764.733 892L819.933 862.4L764.733 832.4Z" fill="#EFDDDD"/>
</svg>
