<svg width="3004" height="1676" viewBox="0 0 3004 1676" fill="none" xmlns="http://www.w3.org/2000/svg">
<path d="M100 35H2903.96C2939.86 35 2968.96 64.1015 2968.96 100V1576C2968.96 1611.9 2939.86 1641 2903.96 1641H100C64.1015 1641 35 1611.9 35 1576V100C35 64.1015 64.1015 35 100 35Z" stroke="#EFDDDD" stroke-width="70"/>
<path d="M298.175 275.137L306.403 289.947L260.985 314.63L306.403 338.985L298.175 354.288L244.365 323.681V305.744L298.175 275.137Z" fill="#EFDDDD"/>
<path d="M406.49 362.352V317.428C406.49 312.93 405.722 309.2 404.186 306.238C402.65 303.276 400.182 301.027 396.781 299.491C393.49 297.955 389.047 297.188 383.452 297.188C378.077 297.188 373.195 298.23 368.807 300.314C364.418 302.289 360.853 304.922 358.111 308.213C355.368 311.394 353.832 314.795 353.503 318.415L353.338 309.365C353.887 305.744 355.149 302.124 357.123 298.504C359.098 294.884 361.731 291.593 365.022 288.631C368.313 285.669 372.262 283.31 376.87 281.555C381.587 279.69 386.853 278.757 392.667 278.757C397.714 278.757 402.376 279.416 406.654 280.732C410.933 281.939 414.663 283.859 417.844 286.491C421.026 289.124 423.494 292.415 425.249 296.365C427.005 300.204 427.882 304.757 427.882 310.023V362.352H406.49ZM333.263 362.352V247.656H354.655V362.352H333.263Z" fill="#EFDDDD"/>
<path d="M499.653 337.504L472.995 350.01L472.172 345.896H533.551V362.352H445.843V345.896C455.716 341.398 464.603 337.559 472.501 334.377C480.4 331.196 487.092 328.343 492.577 325.82C498.062 323.187 502.231 320.554 505.083 317.922C508.045 315.179 509.526 312.162 509.526 308.871C509.526 306.238 508.758 303.989 507.222 302.124C505.687 300.15 503.273 298.614 499.982 297.517C496.691 296.42 492.412 295.871 487.147 295.871C480.235 295.871 474.64 297.242 470.362 299.985C466.193 302.618 463.999 306.238 463.78 310.846H443.046C442.717 304.483 444.252 298.888 447.653 294.061C451.164 289.234 456.265 285.449 462.957 282.707C469.649 279.964 477.548 278.593 486.653 278.593C493.345 278.593 499.433 279.251 504.919 280.567C510.404 281.774 515.121 283.584 519.07 285.998C523.129 288.411 526.201 291.318 528.286 294.719C530.48 298.12 531.577 301.96 531.577 306.238C531.577 309.529 530.973 312.546 529.767 315.289C528.56 317.922 526.64 320.445 524.007 322.858C521.484 325.272 518.193 327.685 514.134 330.099C510.075 332.402 505.248 334.871 499.653 337.504Z" fill="#EFDDDD"/>
<path d="M686.791 330.099C686.243 337.229 683.939 343.373 679.88 348.529C675.931 353.685 670.445 357.634 663.424 360.377C656.403 363.01 648.066 364.326 638.412 364.326C628.319 364.326 619.269 362.736 611.26 359.554C603.362 356.263 597.108 351.491 592.501 345.238C588.003 338.875 585.754 331.031 585.754 321.706C585.754 312.382 588.003 304.538 592.501 298.175C597.108 291.812 603.362 286.985 611.26 283.694C619.269 280.403 628.319 278.757 638.412 278.757C648.066 278.757 656.349 280.129 663.26 282.871C670.171 285.504 675.602 289.344 679.551 294.39C683.61 299.436 685.969 305.525 686.627 312.656H667.045C665.18 307.171 661.724 302.892 656.678 299.82C651.631 296.749 645.543 295.213 638.412 295.213C632.707 295.213 627.496 296.2 622.779 298.175C618.172 300.15 614.442 303.112 611.589 307.061C608.847 310.9 607.475 315.782 607.475 321.706C607.475 327.521 608.847 332.402 611.589 336.352C614.332 340.191 618.062 343.099 622.779 345.073C627.496 346.938 632.707 347.871 638.412 347.871C646.091 347.871 652.344 346.335 657.171 343.263C662.108 340.191 665.454 335.803 667.209 330.099H686.791Z" fill="#EFDDDD"/>
<path d="M704.16 247.656H725.552V362.352H704.16V247.656Z" fill="#EFDDDD"/>
<path d="M787.011 364.162C778.893 364.162 771.488 362.406 764.796 358.896C758.214 355.276 752.948 350.284 748.999 343.921C745.159 337.449 743.239 329.989 743.239 321.542C743.239 312.875 745.214 305.36 749.163 298.998C753.112 292.635 758.433 287.698 765.125 284.188C771.927 280.567 779.606 278.757 788.163 278.757C797.597 278.757 805.167 280.677 810.871 284.517C816.686 288.247 820.909 293.348 823.542 299.82C826.175 306.293 827.492 313.533 827.492 321.542C827.492 326.369 826.724 331.305 825.188 336.352C823.652 341.288 821.293 345.896 818.112 350.174C814.931 354.343 810.762 357.744 805.606 360.377C800.45 362.9 794.251 364.162 787.011 364.162ZM793.922 347.706C800.395 347.706 805.99 346.609 810.707 344.415C815.424 342.221 819.044 339.149 821.568 335.2C824.091 331.251 825.352 326.698 825.352 321.542C825.352 315.947 824.036 311.23 821.403 307.39C818.88 303.441 815.26 300.479 810.542 298.504C805.935 296.42 800.395 295.377 793.922 295.377C784.817 295.377 777.741 297.791 772.695 302.618C767.648 307.335 765.125 313.643 765.125 321.542C765.125 326.808 766.332 331.415 768.745 335.364C771.159 339.204 774.505 342.221 778.783 344.415C783.171 346.609 788.218 347.706 793.922 347.706ZM825.352 280.567H846.745V362.352H826.833C826.833 362.352 826.669 361.309 826.34 359.225C826.12 357.031 825.901 354.288 825.681 350.997C825.462 347.706 825.352 344.47 825.352 341.288V280.567Z" fill="#EFDDDD"/>
<path d="M862.815 335.2H882.561C883.768 338.93 886.236 342.002 889.966 344.415C893.806 346.719 898.797 347.871 904.941 347.871C909.11 347.871 912.346 347.487 914.65 346.719C916.953 345.951 918.544 344.854 919.422 343.428C920.299 341.892 920.738 340.191 920.738 338.326C920.738 336.023 920.025 334.267 918.599 333.061C917.173 331.744 914.979 330.702 912.017 329.934C909.055 329.166 905.27 328.453 900.662 327.795C896.055 327.027 891.612 326.094 887.333 324.997C883.055 323.9 879.27 322.474 875.979 320.719C872.688 318.854 870.055 316.55 868.08 313.808C866.215 310.955 865.283 307.5 865.283 303.441C865.283 299.491 866.215 295.981 868.08 292.909C870.055 289.837 872.743 287.259 876.144 285.175C879.654 283.091 883.713 281.5 888.321 280.403C893.038 279.306 898.084 278.757 903.46 278.757C911.578 278.757 918.325 279.964 923.7 282.378C929.076 284.681 933.08 287.972 935.713 292.251C938.455 296.42 939.827 301.247 939.827 306.732H920.903C920.025 302.673 918.27 299.766 915.637 298.01C913.004 296.145 908.945 295.213 903.46 295.213C898.084 295.213 894.025 296.036 891.283 297.681C888.54 299.327 887.169 301.576 887.169 304.428C887.169 306.732 887.992 308.542 889.637 309.858C891.392 311.065 893.916 312.052 897.207 312.82C900.607 313.588 904.831 314.411 909.877 315.289C914.156 316.166 918.215 317.154 922.055 318.251C926.004 319.348 929.514 320.774 932.586 322.529C935.658 324.175 938.071 326.424 939.827 329.276C941.692 332.018 942.624 335.529 942.624 339.807C942.624 345.073 941.088 349.516 938.016 353.136C935.054 356.757 930.776 359.554 925.181 361.529C919.586 363.394 912.894 364.326 905.105 364.326C898.194 364.326 892.215 363.613 887.169 362.187C882.232 360.651 878.118 358.731 874.827 356.428C871.536 354.014 868.958 351.491 867.093 348.858C865.338 346.115 864.131 343.537 863.473 341.124C862.814 338.71 862.595 336.736 862.815 335.2Z" fill="#EFDDDD"/>
<path d="M955.698 335.2H975.445C976.652 338.93 979.12 342.002 982.85 344.415C986.69 346.719 991.681 347.871 997.825 347.871C1001.99 347.871 1005.23 347.487 1007.53 346.719C1009.84 345.951 1011.43 344.854 1012.31 343.428C1013.18 341.892 1013.62 340.191 1013.62 338.326C1013.62 336.023 1012.91 334.267 1011.48 333.061C1010.06 331.744 1007.86 330.702 1004.9 329.934C1001.94 329.166 998.154 328.453 993.546 327.795C988.939 327.027 984.496 326.094 980.217 324.997C975.939 323.9 972.154 322.474 968.863 320.719C965.572 318.854 962.939 316.55 960.964 313.808C959.099 310.955 958.167 307.5 958.167 303.441C958.167 299.491 959.099 295.981 960.964 292.909C962.939 289.837 965.627 287.259 969.028 285.175C972.538 283.091 976.597 281.5 981.205 280.403C985.922 279.306 990.968 278.757 996.344 278.757C1004.46 278.757 1011.21 279.964 1016.58 282.378C1021.96 284.681 1025.96 287.972 1028.6 292.251C1031.34 296.42 1032.71 301.247 1032.71 306.732H1013.79C1012.91 302.673 1011.15 299.766 1008.52 298.01C1005.89 296.145 1001.83 295.213 996.344 295.213C990.968 295.213 986.909 296.036 984.167 297.681C981.424 299.327 980.053 301.576 980.053 304.428C980.053 306.732 980.876 308.542 982.521 309.858C984.276 311.065 986.8 312.052 990.091 312.82C993.491 313.588 997.715 314.411 1002.76 315.289C1007.04 316.166 1011.1 317.154 1014.94 318.251C1018.89 319.348 1022.4 320.774 1025.47 322.529C1028.54 324.175 1030.96 326.424 1032.71 329.276C1034.58 332.018 1035.51 335.529 1035.51 339.807C1035.51 345.073 1033.97 349.516 1030.9 353.136C1027.94 356.757 1023.66 359.554 1018.07 361.529C1012.47 363.394 1005.78 364.326 997.989 364.326C991.078 364.326 985.099 363.613 980.053 362.187C975.116 360.651 971.002 358.731 967.711 356.428C964.42 354.014 961.842 351.491 959.977 348.858C958.222 346.115 957.015 343.537 956.357 341.124C955.698 338.71 955.479 336.736 955.698 335.2Z" fill="#EFDDDD"/>
<path d="M1050.23 291.922H1130.2V308.048H1050.23V291.922ZM1050.23 325.327H1130.2V341.453H1050.23V325.327Z" fill="#EFDDDD"/>
<path d="M1149.44 298.339L1146.48 292.745C1148.13 290.331 1149.72 287.643 1151.26 284.681C1152.9 281.61 1153.78 278.538 1153.89 275.466L1144.84 273.656V254.897H1170.01V268.39C1170.01 276.07 1168.15 282.323 1164.42 287.15C1160.8 291.867 1155.81 295.597 1149.44 298.339ZM1182.03 298.339L1179.06 292.745C1180.71 290.331 1182.3 287.643 1183.84 284.681C1185.48 281.61 1186.36 278.538 1186.47 275.466L1177.42 273.656V254.897H1202.6V268.39C1202.6 276.07 1200.73 282.323 1197 287.15C1193.38 291.867 1188.39 295.597 1182.03 298.339Z" fill="#EFDDDD"/>
<path d="M1314.8 330.099C1314.25 337.229 1311.95 343.373 1307.89 348.529C1303.94 353.685 1298.46 357.634 1291.44 360.377C1284.41 363.01 1276.08 364.326 1266.42 364.326C1256.33 364.326 1247.28 362.736 1239.27 359.554C1231.37 356.263 1225.12 351.491 1220.51 345.238C1216.01 338.875 1213.77 331.031 1213.77 321.706C1213.77 312.382 1216.01 304.538 1220.51 298.175C1225.12 291.812 1231.37 286.985 1239.27 283.694C1247.28 280.403 1256.33 278.757 1266.42 278.757C1276.08 278.757 1284.36 280.129 1291.27 282.871C1298.18 285.504 1303.61 289.344 1307.56 294.39C1311.62 299.436 1313.98 305.525 1314.64 312.656H1295.06C1293.19 307.171 1289.74 302.892 1284.69 299.82C1279.64 296.749 1273.55 295.213 1266.42 295.213C1260.72 295.213 1255.51 296.2 1250.79 298.175C1246.18 300.15 1242.45 303.112 1239.6 307.061C1236.86 310.9 1235.49 315.782 1235.49 321.706C1235.49 327.521 1236.86 332.402 1239.6 336.352C1242.34 340.191 1246.07 343.099 1250.79 345.073C1255.51 346.938 1260.72 347.871 1266.42 347.871C1274.1 347.871 1280.36 346.335 1285.18 343.263C1290.12 340.191 1293.47 335.803 1295.22 330.099H1314.8Z" fill="#EFDDDD"/>
<path d="M1332.17 247.656H1353.56V362.352H1332.17V247.656Z" fill="#EFDDDD"/>
<path d="M1415.02 364.162C1406.9 364.162 1399.5 362.406 1392.81 358.896C1386.23 355.276 1380.96 350.284 1377.01 343.921C1373.17 337.449 1371.25 329.989 1371.25 321.542C1371.25 312.875 1373.23 305.36 1377.17 298.998C1381.12 292.635 1386.44 287.698 1393.14 284.188C1399.94 280.567 1407.62 278.757 1416.17 278.757C1425.61 278.757 1433.18 280.677 1438.88 284.517C1444.7 288.247 1448.92 293.348 1451.55 299.82C1454.19 306.293 1455.5 313.533 1455.5 321.542C1455.5 326.369 1454.74 331.305 1453.2 336.352C1451.66 341.288 1449.3 345.896 1446.12 350.174C1442.94 354.343 1438.77 357.744 1433.62 360.377C1428.46 362.9 1422.26 364.162 1415.02 364.162ZM1421.93 347.706C1428.41 347.706 1434 346.609 1438.72 344.415C1443.44 342.221 1447.06 339.149 1449.58 335.2C1452.1 331.251 1453.36 326.698 1453.36 321.542C1453.36 315.947 1452.05 311.23 1449.41 307.39C1446.89 303.441 1443.27 300.479 1438.55 298.504C1433.95 296.42 1428.41 295.377 1421.93 295.377C1412.83 295.377 1405.75 297.791 1400.71 302.618C1395.66 307.335 1393.14 313.643 1393.14 321.542C1393.14 326.808 1394.34 331.415 1396.76 335.364C1399.17 339.204 1402.52 342.221 1406.79 344.415C1411.18 346.609 1416.23 347.706 1421.93 347.706ZM1453.36 280.567H1474.76V362.352H1454.84C1454.84 362.352 1454.68 361.309 1454.35 359.225C1454.13 357.031 1453.91 354.288 1453.69 350.997C1453.47 347.706 1453.36 344.47 1453.36 341.288V280.567Z" fill="#EFDDDD"/>
<path d="M1490.83 335.2H1510.57C1511.78 338.93 1514.25 342.002 1517.98 344.415C1521.82 346.719 1526.81 347.871 1532.95 347.871C1537.12 347.871 1540.36 347.487 1542.66 346.719C1544.96 345.951 1546.56 344.854 1547.43 343.428C1548.31 341.892 1548.75 340.191 1548.75 338.326C1548.75 336.023 1548.04 334.267 1546.61 333.061C1545.18 331.744 1542.99 330.702 1540.03 329.934C1537.07 329.166 1533.28 328.453 1528.67 327.795C1524.07 327.027 1519.62 326.094 1515.34 324.997C1511.07 323.9 1507.28 322.474 1503.99 320.719C1500.7 318.854 1498.07 316.55 1496.09 313.808C1494.23 310.955 1493.29 307.5 1493.29 303.441C1493.29 299.491 1494.23 295.981 1496.09 292.909C1498.07 289.837 1500.75 287.259 1504.16 285.175C1507.67 283.091 1511.72 281.5 1516.33 280.403C1521.05 279.306 1526.1 278.757 1531.47 278.757C1539.59 278.757 1546.34 279.964 1551.71 282.378C1557.09 284.681 1561.09 287.972 1563.72 292.251C1566.47 296.42 1567.84 301.247 1567.84 306.732H1548.91C1548.04 302.673 1546.28 299.766 1543.65 298.01C1541.02 296.145 1536.96 295.213 1531.47 295.213C1526.1 295.213 1522.04 296.036 1519.29 297.681C1516.55 299.327 1515.18 301.576 1515.18 304.428C1515.18 306.732 1516 308.542 1517.65 309.858C1519.4 311.065 1521.93 312.052 1525.22 312.82C1528.62 313.588 1532.84 314.411 1537.89 315.289C1542.17 316.166 1546.23 317.154 1550.07 318.251C1554.02 319.348 1557.53 320.774 1560.6 322.529C1563.67 324.175 1566.08 326.424 1567.84 329.276C1569.7 332.018 1570.64 335.529 1570.64 339.807C1570.64 345.073 1569.1 349.516 1566.03 353.136C1563.07 356.757 1558.79 359.554 1553.19 361.529C1547.6 363.394 1540.91 364.326 1533.12 364.326C1526.21 364.326 1520.23 363.613 1515.18 362.187C1510.24 360.651 1506.13 358.731 1502.84 356.428C1499.55 354.014 1496.97 351.491 1495.1 348.858C1493.35 346.115 1492.14 343.537 1491.48 341.124C1490.83 338.71 1490.61 336.736 1490.83 335.2Z" fill="#EFDDDD"/>
<path d="M1583.71 335.2H1603.46C1604.66 338.93 1607.13 342.002 1610.86 344.415C1614.7 346.719 1619.69 347.871 1625.84 347.871C1630.01 347.871 1633.24 347.487 1635.55 346.719C1637.85 345.951 1639.44 344.854 1640.32 343.428C1641.19 341.892 1641.63 340.191 1641.63 338.326C1641.63 336.023 1640.92 334.267 1639.49 333.061C1638.07 331.744 1635.87 330.702 1632.91 329.934C1629.95 329.166 1626.17 328.453 1621.56 327.795C1616.95 327.027 1612.51 326.094 1608.23 324.997C1603.95 323.9 1600.17 322.474 1596.87 320.719C1593.58 318.854 1590.95 316.55 1588.98 313.808C1587.11 310.955 1586.18 307.5 1586.18 303.441C1586.18 299.491 1587.11 295.981 1588.98 292.909C1590.95 289.837 1593.64 287.259 1597.04 285.175C1600.55 283.091 1604.61 281.5 1609.22 280.403C1613.93 279.306 1618.98 278.757 1624.36 278.757C1632.47 278.757 1639.22 279.964 1644.6 282.378C1649.97 284.681 1653.98 287.972 1656.61 292.251C1659.35 296.42 1660.72 301.247 1660.72 306.732H1641.8C1640.92 302.673 1639.17 299.766 1636.53 298.01C1633.9 296.145 1629.84 295.213 1624.36 295.213C1618.98 295.213 1614.92 296.036 1612.18 297.681C1609.44 299.327 1608.06 301.576 1608.06 304.428C1608.06 306.732 1608.89 308.542 1610.53 309.858C1612.29 311.065 1614.81 312.052 1618.1 312.82C1621.5 313.588 1625.73 314.411 1630.77 315.289C1635.05 316.166 1639.11 317.154 1642.95 318.251C1646.9 319.348 1650.41 320.774 1653.48 322.529C1656.55 324.175 1658.97 326.424 1660.72 329.276C1662.59 332.018 1663.52 335.529 1663.52 339.807C1663.52 345.073 1661.98 349.516 1658.91 353.136C1655.95 356.757 1651.67 359.554 1646.08 361.529C1640.48 363.394 1633.79 364.326 1626 364.326C1619.09 364.326 1613.11 363.613 1608.06 362.187C1603.13 360.651 1599.01 358.731 1595.72 356.428C1592.43 354.014 1589.85 351.491 1587.99 348.858C1586.23 346.115 1585.03 343.537 1584.37 341.124C1583.71 338.71 1583.49 336.736 1583.71 335.2Z" fill="#EFDDDD"/>
<path d="M1669.43 280.567H1692.14L1727.52 359.06L1709.08 362.352L1669.43 280.567ZM1769.48 280.567L1712.87 395.263H1690.65L1714.84 350.174L1746.6 280.567H1769.48Z" fill="#EFDDDD"/>
<path d="M1783.08 298.339L1780.12 292.745C1781.76 290.331 1783.36 287.643 1784.89 284.681C1786.54 281.61 1787.41 278.538 1787.52 275.466L1778.47 273.656V254.897H1803.65V268.39C1803.65 276.07 1801.79 282.323 1798.06 287.15C1794.44 291.867 1789.44 295.597 1783.08 298.339ZM1815.66 298.339L1812.7 292.745C1814.35 290.331 1815.94 287.643 1817.47 284.681C1819.12 281.61 1820 278.538 1820.11 275.466L1811.06 273.656V254.897H1836.23V268.39C1836.23 276.07 1834.37 282.323 1830.64 287.15C1827.02 291.867 1822.03 295.597 1815.66 298.339Z" fill="#EFDDDD"/>
<path d="M1858.07 289.947L1866.13 275.137L1920.11 305.744V323.681L1866.13 354.288L1858.07 338.985L1903.49 314.63L1858.07 289.947Z" fill="#EFDDDD"/>
<path d="M298.175 472.604L306.403 487.414L260.985 512.097L306.403 536.452L298.175 551.755L244.365 521.148V503.211L298.175 472.604Z" fill="#EFDDDD"/>
<path d="M359.262 526.743V499.427H368.971C377.857 499.427 384.385 497.781 388.553 494.49C392.722 491.199 394.806 486.536 394.806 480.503C394.806 474.469 392.832 469.861 388.882 466.68C384.933 463.499 379.667 461.908 373.085 461.908C368.368 461.908 364.418 462.676 361.237 464.212C358.165 465.638 355.807 467.612 354.161 470.136C352.625 472.549 351.803 475.292 351.693 478.363H330.465C330.355 475.182 330.794 471.946 331.782 468.655C332.879 465.363 334.524 462.182 336.718 459.11C338.912 456.039 341.71 453.296 345.111 450.883C348.511 448.469 352.57 446.604 357.288 445.288C362.115 443.862 367.545 443.148 373.579 443.148C380.929 443.148 387.292 444.081 392.667 445.946C398.152 447.811 402.65 450.389 406.161 453.68C409.781 456.971 412.469 460.866 414.224 465.363C415.979 469.752 416.857 474.579 416.857 479.844C416.857 487.085 415.211 493.228 411.92 498.275C408.629 503.211 404.186 507.051 398.591 509.794C393.106 512.426 386.963 513.962 380.161 514.401V526.743H359.262ZM357.781 559.818V541.059H382.629V559.818H357.781Z" fill="#EFDDDD"/>
<path d="M494.359 561.793C487.118 561.793 480.92 560.532 475.764 558.008C470.718 555.375 466.604 551.975 463.422 547.806C460.241 543.527 457.882 538.865 456.346 533.819C454.811 528.772 454.043 523.836 454.043 519.009C454.043 512.975 454.756 507.38 456.182 502.224C457.718 497.068 460.076 492.57 463.258 488.73C466.439 484.781 470.553 481.709 475.599 479.515C480.756 477.321 487.009 476.224 494.359 476.224C502.587 476.224 509.992 478.034 516.574 481.654C523.156 485.275 528.367 490.321 532.207 496.794C536.156 503.156 538.131 510.561 538.131 519.009C538.131 527.675 536.156 535.245 532.207 541.717C528.257 548.08 522.992 553.017 516.409 556.527C509.827 560.038 502.477 561.793 494.359 561.793ZM487.447 545.173C493.262 545.173 498.308 544.076 502.587 541.882C506.975 539.688 510.321 536.671 512.625 532.831C515.038 528.882 516.245 524.274 516.245 519.009C516.245 511.11 513.722 504.747 508.675 499.92C503.738 495.093 496.663 492.68 487.447 492.68C481.633 492.68 476.313 493.722 471.486 495.806C466.768 497.891 463.038 500.908 460.296 504.857C457.553 508.696 456.182 513.414 456.182 519.009C456.182 524.274 457.443 528.882 459.967 532.831C462.49 536.671 466.11 539.688 470.827 541.882C475.545 544.076 481.085 545.173 487.447 545.173ZM434.79 478.034H455.195L456.182 499.756V592.73H434.79V478.034Z" fill="#EFDDDD"/>
<path d="M628.576 559.818V514.895C628.576 510.397 627.808 506.667 626.272 503.705C624.736 500.743 622.268 498.494 618.867 496.958C615.576 495.422 611.133 494.654 605.538 494.654C600.163 494.654 595.281 495.697 590.893 497.781C586.504 499.756 582.939 502.389 580.196 505.68C577.454 508.861 575.918 512.262 575.589 515.882L575.424 506.832C575.973 503.211 577.234 499.591 579.209 495.971C581.184 492.351 583.817 489.059 587.108 486.097C590.399 483.135 594.348 480.777 598.956 479.022C603.673 477.157 608.939 476.224 614.753 476.224C619.8 476.224 624.462 476.882 628.74 478.199C633.019 479.406 636.749 481.325 639.93 483.958C643.112 486.591 645.58 489.882 647.335 493.832C649.09 497.671 649.968 502.224 649.968 507.49V559.818H628.576ZM555.349 559.818V445.123H576.741V559.818H555.349Z" fill="#EFDDDD"/>
<path d="M728.979 561.793C721.739 561.793 715.541 560.532 710.384 558.008C705.338 555.375 701.224 551.975 698.043 547.806C694.861 543.527 692.503 538.865 690.967 533.819C689.431 528.772 688.663 523.836 688.663 519.009C688.663 512.975 689.376 507.38 690.802 502.224C692.338 497.068 694.697 492.57 697.878 488.73C701.06 484.781 705.174 481.709 710.22 479.515C715.376 477.321 721.629 476.224 728.979 476.224C737.207 476.224 744.612 478.034 751.194 481.654C757.777 485.275 762.987 490.321 766.827 496.794C770.776 503.156 772.751 510.561 772.751 519.009C772.751 527.675 770.776 535.245 766.827 541.717C762.878 548.08 757.612 553.017 751.03 556.527C744.448 560.038 737.097 561.793 728.979 561.793ZM722.068 545.173C727.882 545.173 732.929 544.076 737.207 541.882C741.595 539.688 744.941 536.671 747.245 532.831C749.658 528.882 750.865 524.274 750.865 519.009C750.865 511.11 748.342 504.747 743.296 499.92C738.359 495.093 731.283 492.68 722.068 492.68C716.254 492.68 710.933 493.722 706.106 495.806C701.389 497.891 697.659 500.908 694.916 504.857C692.174 508.696 690.802 513.414 690.802 519.009C690.802 524.274 692.064 528.882 694.587 532.831C697.11 536.671 700.731 539.688 705.448 541.882C710.165 544.076 715.705 545.173 722.068 545.173ZM669.41 478.034H689.815L690.802 499.756V592.73H669.41V478.034Z" fill="#EFDDDD"/>
<path d="M820.776 478.034H843.484L878.864 556.527L860.434 559.818L820.776 478.034ZM920.826 478.034L864.218 592.73H842.003L866.193 547.641L897.952 478.034H920.826Z" fill="#EFDDDD"/>
<path d="M969.404 561.629C961.286 561.629 953.881 559.873 947.189 556.363C940.607 552.743 935.341 547.751 931.392 541.388C927.552 534.916 925.632 527.456 925.632 519.009C925.632 510.342 927.607 502.827 931.556 496.465C935.506 490.102 940.826 485.165 947.518 481.654C954.32 478.034 961.999 476.224 970.556 476.224C979.991 476.224 987.56 478.144 993.265 481.984C999.079 485.714 1003.3 490.815 1005.94 497.287C1008.57 503.76 1009.88 511 1009.88 519.009C1009.88 523.836 1009.12 528.772 1007.58 533.819C1006.05 538.755 1003.69 543.363 1000.51 547.641C997.324 551.81 993.155 555.211 987.999 557.844C982.843 560.367 976.645 561.629 969.404 561.629ZM976.316 545.173C982.788 545.173 988.383 544.076 993.1 541.882C997.817 539.688 1001.44 536.616 1003.96 532.667C1006.48 528.717 1007.75 524.165 1007.75 519.009C1007.75 513.414 1006.43 508.696 1003.8 504.857C1001.27 500.908 997.653 497.946 992.936 495.971C988.328 493.886 982.788 492.844 976.316 492.844C967.21 492.844 960.134 495.258 955.088 500.085C950.041 504.802 947.518 511.11 947.518 519.009C947.518 524.274 948.725 528.882 951.139 532.831C953.552 536.671 956.898 539.688 961.176 541.882C965.565 544.076 970.611 545.173 976.316 545.173ZM1007.75 478.034H1029.14V559.818H1009.23C1009.23 559.818 1009.06 558.776 1008.73 556.692C1008.51 554.498 1008.29 551.755 1008.07 548.464C1007.86 545.173 1007.75 541.937 1007.75 538.755V478.034Z" fill="#EFDDDD"/>
<path d="M1088.32 561.629C1080.09 561.629 1072.63 559.873 1065.94 556.363C1059.36 552.743 1054.15 547.751 1050.31 541.388C1046.47 534.916 1044.55 527.456 1044.55 519.009C1044.55 510.342 1046.41 502.827 1050.14 496.465C1053.98 490.102 1059.2 485.165 1065.78 481.654C1072.36 478.034 1079.87 476.224 1088.32 476.224C1095.67 476.224 1101.92 477.321 1107.08 479.515C1112.24 481.709 1116.41 484.781 1119.59 488.73C1122.77 492.57 1125.07 497.068 1126.5 502.224C1128.03 507.38 1128.8 512.975 1128.8 519.009C1128.8 523.836 1128.03 528.772 1126.5 533.819C1124.96 538.755 1122.6 543.363 1119.42 547.641C1116.24 551.81 1112.07 555.211 1106.92 557.844C1101.76 560.367 1095.56 561.629 1088.32 561.629ZM1095.23 545.173C1101.71 545.173 1107.3 544.076 1112.02 541.882C1116.73 539.688 1120.35 536.616 1122.88 532.667C1125.4 528.717 1126.66 524.165 1126.66 519.009C1126.66 513.414 1125.35 508.696 1122.71 504.857C1120.19 500.908 1116.57 497.891 1111.85 495.806C1107.25 493.722 1101.71 492.68 1095.23 492.68C1086.13 492.68 1079.05 495.093 1074.01 499.92C1068.96 504.747 1066.44 511.11 1066.44 519.009C1066.44 524.274 1067.64 528.882 1070.06 532.831C1072.47 536.671 1075.82 539.688 1080.09 541.882C1084.48 544.076 1089.53 545.173 1095.23 545.173ZM1126.66 445.123H1148.06V559.818H1128.14C1127.81 557.295 1127.49 554.059 1127.16 550.11C1126.83 546.051 1126.66 542.266 1126.66 538.755V445.123Z" fill="#EFDDDD"/>
<path d="M1210.93 561.629C1202.82 561.629 1195.41 559.873 1188.72 556.363C1182.14 552.743 1176.87 547.751 1172.92 541.388C1169.08 534.916 1167.16 527.456 1167.16 519.009C1167.16 510.342 1169.14 502.827 1173.09 496.465C1177.04 490.102 1182.36 485.165 1189.05 481.654C1195.85 478.034 1203.53 476.224 1212.09 476.224C1221.52 476.224 1229.09 478.144 1234.8 481.984C1240.61 485.714 1244.83 490.815 1247.47 497.287C1250.1 503.76 1251.42 511 1251.42 519.009C1251.42 523.836 1250.65 528.772 1249.11 533.819C1247.58 538.755 1245.22 543.363 1242.04 547.641C1238.85 551.81 1234.69 555.211 1229.53 557.844C1224.37 560.367 1218.18 561.629 1210.93 561.629ZM1217.85 545.173C1224.32 545.173 1229.91 544.076 1234.63 541.882C1239.35 539.688 1242.97 536.616 1245.49 532.667C1248.01 528.717 1249.28 524.165 1249.28 519.009C1249.28 513.414 1247.96 508.696 1245.33 504.857C1242.8 500.908 1239.18 497.946 1234.47 495.971C1229.86 493.886 1224.32 492.844 1217.85 492.844C1208.74 492.844 1201.66 495.258 1196.62 500.085C1191.57 504.802 1189.05 511.11 1189.05 519.009C1189.05 524.274 1190.26 528.882 1192.67 532.831C1195.08 536.671 1198.43 539.688 1202.71 541.882C1207.1 544.076 1212.14 545.173 1217.85 545.173ZM1249.28 478.034H1270.67V559.818H1250.76C1250.76 559.818 1250.59 558.776 1250.26 556.692C1250.04 554.498 1249.82 551.755 1249.61 548.464C1249.39 545.173 1249.28 541.937 1249.28 538.755V478.034Z" fill="#EFDDDD"/>
<path d="M1282.62 478.034H1305.33L1340.71 556.527L1322.28 559.818L1282.62 478.034ZM1382.67 478.034L1326.07 592.73H1303.85L1328.04 547.641L1359.8 478.034H1382.67Z" fill="#EFDDDD"/>
<path d="M1431.25 561.629C1423.13 561.629 1415.73 559.873 1409.04 556.363C1402.46 552.743 1397.19 547.751 1393.24 541.388C1389.4 534.916 1387.48 527.456 1387.48 519.009C1387.48 510.342 1389.46 502.827 1393.41 496.465C1397.35 490.102 1402.68 485.165 1409.37 481.654C1416.17 478.034 1423.85 476.224 1432.4 476.224C1441.84 476.224 1449.41 478.144 1455.11 481.984C1460.93 485.714 1465.15 490.815 1467.78 497.287C1470.42 503.76 1471.73 511 1471.73 519.009C1471.73 523.836 1470.97 528.772 1469.43 533.819C1467.89 538.755 1465.54 543.363 1462.35 547.641C1459.17 551.81 1455 555.211 1449.85 557.844C1444.69 560.367 1438.49 561.629 1431.25 561.629ZM1438.16 545.173C1444.64 545.173 1450.23 544.076 1454.95 541.882C1459.67 539.688 1463.29 536.616 1465.81 532.667C1468.33 528.717 1469.59 524.165 1469.59 519.009C1469.59 513.414 1468.28 508.696 1465.65 504.857C1463.12 500.908 1459.5 497.946 1454.78 495.971C1450.18 493.886 1444.64 492.844 1438.16 492.844C1429.06 492.844 1421.98 495.258 1416.94 500.085C1411.89 504.802 1409.37 511.11 1409.37 519.009C1409.37 524.274 1410.57 528.882 1412.99 532.831C1415.4 536.671 1418.75 539.688 1423.03 541.882C1427.41 544.076 1432.46 545.173 1438.16 545.173ZM1469.59 478.034H1490.99V559.818H1471.08C1471.08 559.818 1470.91 558.776 1470.58 556.692C1470.36 554.498 1470.14 551.755 1469.92 548.464C1469.7 545.173 1469.59 541.937 1469.59 538.755V478.034Z" fill="#EFDDDD"/>
<path d="M1550.17 561.629C1541.94 561.629 1534.48 559.873 1527.79 556.363C1521.21 552.743 1516 547.751 1512.16 541.388C1508.32 534.916 1506.4 527.456 1506.4 519.009C1506.4 510.342 1508.26 502.827 1511.99 496.465C1515.83 490.102 1521.04 485.165 1527.63 481.654C1534.21 478.034 1541.72 476.224 1550.17 476.224C1557.52 476.224 1563.77 477.321 1568.93 479.515C1574.09 481.709 1578.25 484.781 1581.44 488.73C1584.62 492.57 1586.92 497.068 1588.35 502.224C1589.88 507.38 1590.65 512.975 1590.65 519.009C1590.65 523.836 1589.88 528.772 1588.35 533.819C1586.81 538.755 1584.45 543.363 1581.27 547.641C1578.09 551.81 1573.92 555.211 1568.77 557.844C1563.61 560.367 1557.41 561.629 1550.17 561.629ZM1557.08 545.173C1563.55 545.173 1569.15 544.076 1573.87 541.882C1578.58 539.688 1582.2 536.616 1584.73 532.667C1587.25 528.717 1588.51 524.165 1588.51 519.009C1588.51 513.414 1587.2 508.696 1584.56 504.857C1582.04 500.908 1578.42 497.891 1573.7 495.806C1569.09 493.722 1563.55 492.68 1557.08 492.68C1547.98 492.68 1540.9 495.093 1535.85 499.92C1530.81 504.747 1528.28 511.11 1528.28 519.009C1528.28 524.274 1529.49 528.882 1531.9 532.831C1534.32 536.671 1537.66 539.688 1541.94 541.882C1546.33 544.076 1551.38 545.173 1557.08 545.173ZM1588.51 445.123H1609.9V559.818H1589.99C1589.66 557.295 1589.33 554.059 1589.01 550.11C1588.68 546.051 1588.51 542.266 1588.51 538.755V445.123Z" fill="#EFDDDD"/>
<path d="M1672.78 561.629C1664.67 561.629 1657.26 559.873 1650.57 556.363C1643.99 552.743 1638.72 547.751 1634.77 541.388C1630.93 534.916 1629.01 527.456 1629.01 519.009C1629.01 510.342 1630.99 502.827 1634.94 496.465C1638.89 490.102 1644.21 485.165 1650.9 481.654C1657.7 478.034 1665.38 476.224 1673.94 476.224C1683.37 476.224 1690.94 478.144 1696.64 481.984C1702.46 485.714 1706.68 490.815 1709.31 497.287C1711.95 503.76 1713.26 511 1713.26 519.009C1713.26 523.836 1712.5 528.772 1710.96 533.819C1709.42 538.755 1707.07 543.363 1703.88 547.641C1700.7 551.81 1696.53 555.211 1691.38 557.844C1686.22 560.367 1680.02 561.629 1672.78 561.629ZM1679.69 545.173C1686.17 545.173 1691.76 544.076 1696.48 541.882C1701.2 539.688 1704.82 536.616 1707.34 532.667C1709.86 528.717 1711.13 524.165 1711.13 519.009C1711.13 513.414 1709.81 508.696 1707.18 504.857C1704.65 500.908 1701.03 497.946 1696.32 495.971C1691.71 493.886 1686.17 492.844 1679.69 492.844C1670.59 492.844 1663.51 495.258 1658.47 500.085C1653.42 504.802 1650.9 511.11 1650.9 519.009C1650.9 524.274 1652.1 528.882 1654.52 532.831C1656.93 536.671 1660.28 539.688 1664.56 541.882C1668.94 544.076 1673.99 545.173 1679.69 545.173ZM1711.13 478.034H1732.52V559.818H1712.61C1712.61 559.818 1712.44 558.776 1712.11 556.692C1711.89 554.498 1711.67 551.755 1711.45 548.464C1711.23 545.173 1711.13 541.937 1711.13 538.755V478.034Z" fill="#EFDDDD"/>
<path d="M1744.47 478.034H1767.18L1802.56 556.527L1784.13 559.818L1744.47 478.034ZM1844.52 478.034L1787.92 592.73H1765.7L1789.89 547.641L1821.65 478.034H1844.52Z" fill="#EFDDDD"/>
<path d="M1893.1 561.629C1884.98 561.629 1877.58 559.873 1870.89 556.363C1864.3 552.743 1859.04 547.751 1855.09 541.388C1851.25 534.916 1849.33 527.456 1849.33 519.009C1849.33 510.342 1851.3 502.827 1855.25 496.465C1859.2 490.102 1864.52 485.165 1871.22 481.654C1878.02 478.034 1885.7 476.224 1894.25 476.224C1903.69 476.224 1911.26 478.144 1916.96 481.984C1922.78 485.714 1927 490.815 1929.63 497.287C1932.27 503.76 1933.58 511 1933.58 519.009C1933.58 523.836 1932.81 528.772 1931.28 533.819C1929.74 538.755 1927.38 543.363 1924.2 547.641C1921.02 551.81 1916.85 555.211 1911.7 557.844C1906.54 560.367 1900.34 561.629 1893.1 561.629ZM1900.01 545.173C1906.49 545.173 1912.08 544.076 1916.8 541.882C1921.52 539.688 1925.14 536.616 1927.66 532.667C1930.18 528.717 1931.44 524.165 1931.44 519.009C1931.44 513.414 1930.13 508.696 1927.49 504.857C1924.97 500.908 1921.35 497.946 1916.63 495.971C1912.03 493.886 1906.49 492.844 1900.01 492.844C1890.91 492.844 1883.83 495.258 1878.79 500.085C1873.74 504.802 1871.22 511.11 1871.22 519.009C1871.22 524.274 1872.42 528.882 1874.84 532.831C1877.25 536.671 1880.6 539.688 1884.87 541.882C1889.26 544.076 1894.31 545.173 1900.01 545.173ZM1931.44 478.034H1952.84V559.818H1932.92C1932.92 559.818 1932.76 558.776 1932.43 556.692C1932.21 554.498 1931.99 551.755 1931.77 548.464C1931.55 545.173 1931.44 541.937 1931.44 538.755V478.034Z" fill="#EFDDDD"/>
<path d="M2012.02 561.629C2003.79 561.629 1996.33 559.873 1989.64 556.363C1983.06 552.743 1977.85 547.751 1974.01 541.388C1970.17 534.916 1968.25 527.456 1968.25 519.009C1968.25 510.342 1970.11 502.827 1973.84 496.465C1977.68 490.102 1982.89 485.165 1989.47 481.654C1996.06 478.034 2003.57 476.224 2012.02 476.224C2019.37 476.224 2025.62 477.321 2030.78 479.515C2035.93 481.709 2040.1 484.781 2043.28 488.73C2046.47 492.57 2048.77 497.068 2050.2 502.224C2051.73 507.38 2052.5 512.975 2052.5 519.009C2052.5 523.836 2051.73 528.772 2050.2 533.819C2048.66 538.755 2046.3 543.363 2043.12 547.641C2039.94 551.81 2035.77 555.211 2030.61 557.844C2025.46 560.367 2019.26 561.629 2012.02 561.629ZM2018.93 545.173C2025.4 545.173 2031 544.076 2035.72 541.882C2040.43 539.688 2044.05 536.616 2046.58 532.667C2049.1 528.717 2050.36 524.165 2050.36 519.009C2050.36 513.414 2049.04 508.696 2046.41 504.857C2043.89 500.908 2040.27 497.891 2035.55 495.806C2030.94 493.722 2025.4 492.68 2018.93 492.68C2009.83 492.68 2002.75 495.093 1997.7 499.92C1992.66 504.747 1990.13 511.11 1990.13 519.009C1990.13 524.274 1991.34 528.882 1993.75 532.831C1996.17 536.671 1999.51 539.688 2003.79 541.882C2008.18 544.076 2013.23 545.173 2018.93 545.173ZM2050.36 445.123H2071.75V559.818H2051.84C2051.51 557.295 2051.18 554.059 2050.85 550.11C2050.52 546.051 2050.36 542.266 2050.36 538.755V445.123Z" fill="#EFDDDD"/>
<path d="M2134.63 561.629C2126.51 561.629 2119.11 559.873 2112.42 556.363C2105.84 552.743 2100.57 547.751 2096.62 541.388C2092.78 534.916 2090.86 527.456 2090.86 519.009C2090.86 510.342 2092.84 502.827 2096.78 496.465C2100.73 490.102 2106.05 485.165 2112.75 481.654C2119.55 478.034 2127.23 476.224 2135.78 476.224C2145.22 476.224 2152.79 478.144 2158.49 481.984C2164.31 485.714 2168.53 490.815 2171.16 497.287C2173.8 503.76 2175.11 511 2175.11 519.009C2175.11 523.836 2174.35 528.772 2172.81 533.819C2171.27 538.755 2168.91 543.363 2165.73 547.641C2162.55 551.81 2158.38 555.211 2153.23 557.844C2148.07 560.367 2141.87 561.629 2134.63 561.629ZM2141.54 545.173C2148.02 545.173 2153.61 544.076 2158.33 541.882C2163.05 539.688 2166.67 536.616 2169.19 532.667C2171.71 528.717 2172.97 524.165 2172.97 519.009C2172.97 513.414 2171.66 508.696 2169.02 504.857C2166.5 500.908 2162.88 497.946 2158.16 495.971C2153.56 493.886 2148.02 492.844 2141.54 492.844C2132.44 492.844 2125.36 495.258 2120.32 500.085C2115.27 504.802 2112.75 511.11 2112.75 519.009C2112.75 524.274 2113.95 528.882 2116.37 532.831C2118.78 536.671 2122.13 539.688 2126.4 541.882C2130.79 544.076 2135.84 545.173 2141.54 545.173ZM2172.97 478.034H2194.37V559.818H2174.45C2174.45 559.818 2174.29 558.776 2173.96 556.692C2173.74 554.498 2173.52 551.755 2173.3 548.464C2173.08 545.173 2172.97 541.937 2172.97 538.755V478.034Z" fill="#EFDDDD"/>
<path d="M2250.42 574.628L2239.07 583.844C2239.07 583.844 2238.14 582.801 2236.27 580.717C2234.52 578.742 2232.32 575.78 2229.69 571.831C2227.17 567.882 2224.59 563.055 2221.95 557.35C2219.32 551.536 2217.07 544.899 2215.21 537.439C2213.45 529.979 2212.58 521.751 2212.58 512.756C2212.58 503.65 2213.45 495.422 2215.21 488.072C2217.07 480.612 2219.32 474.085 2221.95 468.49C2224.59 462.785 2227.17 458.013 2229.69 454.174C2232.32 450.224 2234.52 447.262 2236.27 445.288C2238.14 443.313 2239.07 442.326 2239.07 442.326L2250.42 451.376C2250.42 451.376 2249.33 452.693 2247.13 455.326C2245.05 457.958 2242.63 461.908 2239.89 467.174C2237.15 472.33 2234.68 478.747 2232.49 486.427C2230.4 493.996 2229.36 502.772 2229.36 512.756C2229.36 520.983 2230.07 528.388 2231.5 534.971C2232.93 541.553 2234.68 547.312 2236.76 552.249C2238.85 557.186 2240.93 561.299 2243.02 564.591C2245.1 567.991 2246.86 570.515 2248.28 572.16C2249.71 573.806 2250.42 574.628 2250.42 574.628Z" fill="#EFDDDD"/>
<path d="M2267.86 574.628C2267.86 574.628 2268.57 573.806 2269.99 572.16C2271.42 570.515 2273.18 567.991 2275.26 564.591C2277.34 561.299 2279.43 557.186 2281.51 552.249C2283.6 547.312 2285.35 541.553 2286.78 534.971C2288.21 528.388 2288.92 520.983 2288.92 512.756C2288.92 502.772 2287.82 493.996 2285.63 486.427C2283.54 478.747 2281.13 472.33 2278.39 467.174C2275.64 461.908 2273.18 457.958 2270.98 455.326C2268.9 452.693 2267.86 451.376 2267.86 451.376L2279.21 442.326C2279.21 442.326 2280.09 443.313 2281.84 445.288C2283.71 447.262 2285.96 450.224 2288.59 454.174C2291.22 458.013 2293.8 462.785 2296.32 468.49C2298.96 474.085 2301.15 480.612 2302.91 488.072C2304.77 495.422 2305.7 503.65 2305.7 512.756C2305.7 521.751 2304.77 529.979 2302.91 537.439C2301.15 544.899 2298.96 551.536 2296.32 557.35C2293.8 563.055 2291.22 567.882 2288.59 571.831C2285.96 575.78 2283.71 578.742 2281.84 580.717C2280.09 582.801 2279.21 583.844 2279.21 583.844L2267.86 574.628Z" fill="#EFDDDD"/>
<path d="M2349.14 480.338V499.097H2324.29V480.338H2349.14ZM2328.9 582.198L2325.93 576.603C2327.58 574.19 2329.17 571.502 2330.71 568.54C2332.35 565.578 2333.23 562.561 2333.34 559.489L2324.29 557.679V538.755H2349.46V552.249C2349.46 560.038 2347.6 566.291 2343.87 571.008C2340.25 575.835 2335.26 579.565 2328.9 582.198Z" fill="#EFDDDD"/>
<path d="M2436.46 526.743V499.427H2446.17C2455.05 499.427 2461.58 497.781 2465.75 494.49C2469.92 491.199 2472 486.536 2472 480.503C2472 474.469 2470.03 469.861 2466.08 466.68C2462.13 463.499 2456.86 461.908 2450.28 461.908C2445.56 461.908 2441.61 462.676 2438.43 464.212C2435.36 465.638 2433 467.612 2431.36 470.136C2429.82 472.549 2429 475.292 2428.89 478.363H2407.66C2407.55 475.182 2407.99 471.946 2408.98 468.655C2410.07 465.363 2411.72 462.182 2413.91 459.11C2416.11 456.039 2418.9 453.296 2422.31 450.883C2425.71 448.469 2429.77 446.604 2434.48 445.288C2439.31 443.862 2444.74 443.148 2450.77 443.148C2458.12 443.148 2464.49 444.081 2469.86 445.946C2475.35 447.811 2479.84 450.389 2483.36 453.68C2486.98 456.971 2489.66 460.866 2491.42 465.363C2493.17 469.752 2494.05 474.579 2494.05 479.844C2494.05 487.085 2492.41 493.228 2489.11 498.275C2485.82 503.211 2481.38 507.051 2475.79 509.794C2470.3 512.426 2464.16 513.962 2457.36 514.401V526.743H2436.46ZM2434.98 559.818V541.059H2459.82V559.818H2434.98Z" fill="#EFDDDD"/>
<path d="M2517.58 487.414L2525.64 472.604L2579.62 503.211V521.148L2525.64 551.755L2517.58 536.452L2563 512.097L2517.58 487.414Z" fill="#EFDDDD"/>
<path d="M298.175 670.071L306.403 684.881L260.985 709.564L306.403 733.918L298.175 749.222L244.365 718.615V700.678L298.175 670.071Z" fill="#EFDDDD"/>
<path d="M372.233 633.375L389.511 639.628L339.322 777.032L322.208 770.779L372.233 633.375Z" fill="#EFDDDD"/>
<path d="M480.09 757.285V712.362C480.09 707.864 479.322 704.134 477.786 701.172C476.25 698.21 473.782 695.961 470.381 694.425C467.09 692.889 462.647 692.121 457.052 692.121C451.677 692.121 446.795 693.163 442.407 695.248C438.019 697.222 434.453 699.855 431.711 703.146C428.968 706.328 427.432 709.729 427.103 713.349L426.939 704.298C427.487 700.678 428.749 697.058 430.723 693.438C432.698 689.817 435.331 686.526 438.622 683.564C441.913 680.602 445.862 678.244 450.47 676.488C455.187 674.624 460.453 673.691 466.267 673.691C471.314 673.691 475.976 674.349 480.255 675.666C484.533 676.872 488.263 678.792 491.444 681.425C494.626 684.058 497.094 687.349 498.849 691.299C500.605 695.138 501.482 699.691 501.482 704.957V757.285H480.09ZM406.863 757.285V642.59H428.255V757.285H406.863Z" fill="#EFDDDD"/>
<path d="M573.253 732.437L546.595 744.944L545.772 740.83H607.151V757.285H519.443V740.83C529.317 736.332 538.203 732.492 546.101 729.311C554 726.129 560.692 723.277 566.177 720.754C571.662 718.121 575.831 715.488 578.683 712.855C581.645 710.113 583.126 707.096 583.126 703.805C583.126 701.172 582.358 698.923 580.823 697.058C579.287 695.083 576.873 693.547 573.582 692.45C570.291 691.353 566.013 690.805 560.747 690.805C553.835 690.805 548.241 692.176 543.962 694.919C539.793 697.552 537.599 701.172 537.38 705.779H516.646C516.317 699.417 517.853 693.822 521.253 688.995C524.764 684.168 529.865 680.383 536.557 677.64C543.249 674.898 551.148 673.526 560.253 673.526C566.945 673.526 573.034 674.185 578.519 675.501C584.004 676.708 588.721 678.518 592.671 680.931C596.73 683.345 599.801 686.252 601.886 689.653C604.08 693.054 605.177 696.893 605.177 701.172C605.177 704.463 604.573 707.48 603.367 710.222C602.16 712.855 600.24 715.379 597.607 717.792C595.084 720.205 591.793 722.619 587.734 725.032C583.675 727.336 578.848 729.805 573.253 732.437Z" fill="#EFDDDD"/>
<path d="M629.206 684.881L637.269 670.071L691.243 700.678V718.615L637.269 749.222L629.206 733.918L674.623 709.564L629.206 684.881Z" fill="#EFDDDD"/>
</svg>
