<svg width="3651" height="2037" viewBox="0 0 3651 2037" fill="none" xmlns="http://www.w3.org/2000/svg">
<path d="M423 396H3226.96C3262.86 396 3291.96 425.102 3291.96 461V1937C3291.96 1972.9 3262.86 2002 3226.96 2002H423C387.102 2002 358 1972.9 358 1937V461C358 425.101 387.101 396 423 396Z" stroke="#EFDDDD" stroke-width="70"/>
<path d="M621.175 636.137L629.403 650.947L583.985 675.63L629.403 699.985L621.175 715.288L567.365 684.681V666.744L621.175 636.137Z" fill="#EFDDDD"/>
<path d="M729.49 723.352V678.428C729.49 673.93 728.722 670.2 727.186 667.238C725.65 664.276 723.182 662.027 719.781 660.491C716.49 658.955 712.047 658.188 706.452 658.188C701.077 658.188 696.195 659.23 691.807 661.314C687.418 663.289 683.853 665.922 681.111 669.213C678.368 672.394 676.832 675.795 676.503 679.415L676.338 670.365C676.887 666.744 678.149 663.124 680.123 659.504C682.098 655.884 684.731 652.593 688.022 649.631C691.313 646.669 695.262 644.31 699.87 642.555C704.587 640.69 709.853 639.757 715.667 639.757C720.714 639.757 725.376 640.416 729.654 641.732C733.933 642.939 737.663 644.859 740.844 647.491C744.026 650.124 746.494 653.415 748.249 657.365C750.005 661.204 750.882 665.757 750.882 671.023V723.352H729.49ZM656.263 723.352V608.656H677.655V723.352H656.263Z" fill="#EFDDDD"/>
<path d="M822.653 698.504L795.995 711.01L795.172 706.896H856.551V723.352H768.843V706.896C778.716 702.398 787.603 698.559 795.501 695.377C803.4 692.196 810.092 689.343 815.577 686.82C821.062 684.187 825.231 681.554 828.083 678.922C831.045 676.179 832.526 673.162 832.526 669.871C832.526 667.238 831.758 664.989 830.222 663.124C828.687 661.15 826.273 659.614 822.982 658.517C819.691 657.42 815.412 656.871 810.147 656.871C803.235 656.871 797.64 658.242 793.362 660.985C789.193 663.618 786.999 667.238 786.78 671.846H766.046C765.717 665.483 767.252 659.888 770.653 655.061C774.164 650.234 779.265 646.449 785.957 643.707C792.649 640.964 800.548 639.593 809.653 639.593C816.345 639.593 822.433 640.251 827.919 641.567C833.404 642.774 838.121 644.584 842.07 646.998C846.129 649.411 849.201 652.318 851.286 655.719C853.48 659.12 854.577 662.96 854.577 667.238C854.577 670.529 853.973 673.546 852.767 676.289C851.56 678.922 849.64 681.445 847.007 683.858C844.484 686.272 841.193 688.685 837.134 691.099C833.075 693.402 828.248 695.871 822.653 698.504Z" fill="#EFDDDD"/>
<path d="M1009.79 691.099C1009.24 698.229 1006.94 704.373 1002.88 709.529C998.931 714.685 993.445 718.634 986.424 721.377C979.403 724.01 971.066 725.326 961.412 725.326C951.319 725.326 942.269 723.736 934.26 720.554C926.362 717.263 920.108 712.491 915.501 706.238C911.003 699.875 908.754 692.031 908.754 682.706C908.754 673.382 911.003 665.538 915.501 659.175C920.108 652.812 926.362 647.985 934.26 644.694C942.269 641.403 951.319 639.757 961.412 639.757C971.066 639.757 979.349 641.129 986.26 643.871C993.171 646.504 998.602 650.344 1002.55 655.39C1006.61 660.436 1008.97 666.525 1009.63 673.656H990.045C988.18 668.171 984.724 663.892 979.678 660.82C974.631 657.749 968.543 656.213 961.412 656.213C955.707 656.213 950.496 657.2 945.779 659.175C941.172 661.15 937.442 664.112 934.589 668.061C931.847 671.9 930.475 676.782 930.475 682.706C930.475 688.521 931.847 693.402 934.589 697.352C937.332 701.191 941.062 704.099 945.779 706.073C950.496 707.938 955.707 708.871 961.412 708.871C969.091 708.871 975.344 707.335 980.171 704.263C985.108 701.191 988.454 696.803 990.209 691.099H1009.79Z" fill="#EFDDDD"/>
<path d="M1027.16 608.656H1048.55V723.352H1027.16V608.656Z" fill="#EFDDDD"/>
<path d="M1110.01 725.162C1101.89 725.162 1094.49 723.406 1087.8 719.896C1081.21 716.276 1075.95 711.284 1072 704.921C1068.16 698.449 1066.24 690.989 1066.24 682.542C1066.24 673.875 1068.21 666.36 1072.16 659.998C1076.11 653.635 1081.43 648.698 1088.12 645.188C1094.93 641.567 1102.61 639.757 1111.16 639.757C1120.6 639.757 1128.17 641.677 1133.87 645.517C1139.69 649.247 1143.91 654.348 1146.54 660.82C1149.18 667.293 1150.49 674.533 1150.49 682.542C1150.49 687.369 1149.72 692.305 1148.19 697.352C1146.65 702.288 1144.29 706.896 1141.11 711.174C1137.93 715.343 1133.76 718.744 1128.61 721.377C1123.45 723.9 1117.25 725.162 1110.01 725.162ZM1116.92 708.706C1123.39 708.706 1128.99 707.609 1133.71 705.415C1138.42 703.221 1142.04 700.149 1144.57 696.2C1147.09 692.251 1148.35 687.698 1148.35 682.542C1148.35 676.947 1147.04 672.23 1144.4 668.39C1141.88 664.441 1138.26 661.479 1133.54 659.504C1128.93 657.42 1123.39 656.377 1116.92 656.377C1107.82 656.377 1100.74 658.791 1095.69 663.618C1090.65 668.335 1088.12 674.643 1088.12 682.542C1088.12 687.808 1089.33 692.415 1091.75 696.364C1094.16 700.204 1097.5 703.221 1101.78 705.415C1106.17 707.609 1111.22 708.706 1116.92 708.706ZM1148.35 641.567H1169.74V723.352H1149.83C1149.83 723.352 1149.67 722.309 1149.34 720.225C1149.12 718.031 1148.9 715.288 1148.68 711.997C1148.46 708.706 1148.35 705.47 1148.35 702.288V641.567Z" fill="#EFDDDD"/>
<path d="M1185.81 696.2H1205.56C1206.77 699.93 1209.24 703.002 1212.97 705.415C1216.81 707.719 1221.8 708.871 1227.94 708.871C1232.11 708.871 1235.35 708.487 1237.65 707.719C1239.95 706.951 1241.54 705.854 1242.42 704.428C1243.3 702.892 1243.74 701.191 1243.74 699.326C1243.74 697.023 1243.03 695.267 1241.6 694.061C1240.17 692.744 1237.98 691.702 1235.02 690.934C1232.05 690.166 1228.27 689.453 1223.66 688.795C1219.05 688.027 1214.61 687.094 1210.33 685.997C1206.05 684.9 1202.27 683.474 1198.98 681.719C1195.69 679.854 1193.05 677.55 1191.08 674.808C1189.22 671.955 1188.28 668.5 1188.28 664.441C1188.28 660.491 1189.22 656.981 1191.08 653.909C1193.05 650.837 1195.74 648.259 1199.14 646.175C1202.65 644.091 1206.71 642.5 1211.32 641.403C1216.04 640.306 1221.08 639.757 1226.46 639.757C1234.58 639.757 1241.32 640.964 1246.7 643.378C1252.08 645.681 1256.08 648.972 1258.71 653.251C1261.46 657.42 1262.83 662.247 1262.83 667.732H1243.9C1243.03 663.673 1241.27 660.766 1238.64 659.01C1236 657.145 1231.94 656.213 1226.46 656.213C1221.08 656.213 1217.03 657.036 1214.28 658.681C1211.54 660.327 1210.17 662.576 1210.17 665.428C1210.17 667.732 1210.99 669.542 1212.64 670.858C1214.39 672.065 1216.92 673.052 1220.21 673.82C1223.61 674.588 1227.83 675.411 1232.88 676.289C1237.16 677.166 1241.21 678.154 1245.05 679.251C1249 680.348 1252.51 681.774 1255.59 683.529C1258.66 685.175 1261.07 687.424 1262.83 690.276C1264.69 693.018 1265.62 696.529 1265.62 700.807C1265.62 706.073 1264.09 710.516 1261.02 714.136C1258.05 717.757 1253.78 720.554 1248.18 722.529C1242.59 724.394 1235.89 725.326 1228.11 725.326C1221.19 725.326 1215.22 724.613 1210.17 723.187C1205.23 721.651 1201.12 719.731 1197.83 717.428C1194.54 715.014 1191.96 712.491 1190.09 709.858C1188.34 707.115 1187.13 704.537 1186.47 702.124C1185.81 699.71 1185.6 697.736 1185.81 696.2Z" fill="#EFDDDD"/>
<path d="M1278.7 696.2H1298.45C1299.65 699.93 1302.12 703.002 1305.85 705.415C1309.69 707.719 1314.68 708.871 1320.82 708.871C1324.99 708.871 1328.23 708.487 1330.53 707.719C1332.84 706.951 1334.43 705.854 1335.31 704.428C1336.18 702.892 1336.62 701.191 1336.62 699.326C1336.62 697.023 1335.91 695.267 1334.48 694.061C1333.06 692.744 1330.86 691.702 1327.9 690.934C1324.94 690.166 1321.15 689.453 1316.55 688.795C1311.94 688.027 1307.5 687.094 1303.22 685.997C1298.94 684.9 1295.15 683.474 1291.86 681.719C1288.57 679.854 1285.94 677.55 1283.96 674.808C1282.1 671.955 1281.17 668.5 1281.17 664.441C1281.17 660.491 1282.1 656.981 1283.96 653.909C1285.94 650.837 1288.63 648.259 1292.03 646.175C1295.54 644.091 1299.6 642.5 1304.2 641.403C1308.92 640.306 1313.97 639.757 1319.34 639.757C1327.46 639.757 1334.21 640.964 1339.58 643.378C1344.96 645.681 1348.96 648.972 1351.6 653.251C1354.34 657.42 1355.71 662.247 1355.71 667.732H1336.79C1335.91 663.673 1334.15 660.766 1331.52 659.01C1328.89 657.145 1324.83 656.213 1319.34 656.213C1313.97 656.213 1309.91 657.036 1307.17 658.681C1304.42 660.327 1303.05 662.576 1303.05 665.428C1303.05 667.732 1303.88 669.542 1305.52 670.858C1307.28 672.065 1309.8 673.052 1313.09 673.82C1316.49 674.588 1320.72 675.411 1325.76 676.289C1330.04 677.166 1334.1 678.154 1337.94 679.251C1341.89 680.348 1345.4 681.774 1348.47 683.529C1351.54 685.175 1353.96 687.424 1355.71 690.276C1357.58 693.018 1358.51 696.529 1358.51 700.807C1358.51 706.073 1356.97 710.516 1353.9 714.136C1350.94 717.757 1346.66 720.554 1341.07 722.529C1335.47 724.394 1328.78 725.326 1320.99 725.326C1314.08 725.326 1308.1 724.613 1303.05 723.187C1298.12 721.651 1294 719.731 1290.71 717.428C1287.42 715.014 1284.84 712.491 1282.98 709.858C1281.22 707.115 1280.01 704.537 1279.36 702.124C1278.7 699.71 1278.48 697.736 1278.7 696.2Z" fill="#EFDDDD"/>
<path d="M1373.23 652.922H1453.2V669.048H1373.23V652.922ZM1373.23 686.327H1453.2V702.453H1373.23V686.327Z" fill="#EFDDDD"/>
<path d="M1472.44 659.339L1469.48 653.745C1471.13 651.331 1472.72 648.643 1474.26 645.681C1475.9 642.61 1476.78 639.538 1476.89 636.466L1467.84 634.656V615.897H1493.01V629.39C1493.01 637.07 1491.15 643.323 1487.42 648.15C1483.8 652.867 1478.81 656.597 1472.44 659.339ZM1505.03 659.339L1502.06 653.745C1503.71 651.331 1505.3 648.643 1506.84 645.681C1508.48 642.61 1509.36 639.538 1509.47 636.466L1500.42 634.656V615.897H1525.6V629.39C1525.6 637.07 1523.73 643.323 1520 648.15C1516.38 652.867 1511.39 656.597 1505.03 659.339Z" fill="#EFDDDD"/>
<path d="M1637.8 691.099C1637.25 698.229 1634.95 704.373 1630.89 709.529C1626.94 714.685 1621.46 718.634 1614.44 721.377C1607.41 724.01 1599.08 725.326 1589.42 725.326C1579.33 725.326 1570.28 723.736 1562.27 720.554C1554.37 717.263 1548.12 712.491 1543.51 706.238C1539.01 699.875 1536.77 692.031 1536.77 682.706C1536.77 673.382 1539.01 665.538 1543.51 659.175C1548.12 652.812 1554.37 647.985 1562.27 644.694C1570.28 641.403 1579.33 639.757 1589.42 639.757C1599.08 639.757 1607.36 641.129 1614.27 643.871C1621.18 646.504 1626.61 650.344 1630.56 655.39C1634.62 660.436 1636.98 666.525 1637.64 673.656H1618.06C1616.19 668.171 1612.74 663.892 1607.69 660.82C1602.64 657.749 1596.55 656.213 1589.42 656.213C1583.72 656.213 1578.51 657.2 1573.79 659.175C1569.18 661.15 1565.45 664.112 1562.6 668.061C1559.86 671.9 1558.49 676.782 1558.49 682.706C1558.49 688.521 1559.86 693.402 1562.6 697.352C1565.34 701.191 1569.07 704.099 1573.79 706.073C1578.51 707.938 1583.72 708.871 1589.42 708.871C1597.1 708.871 1603.36 707.335 1608.18 704.263C1613.12 701.191 1616.47 696.803 1618.22 691.099H1637.8Z" fill="#EFDDDD"/>
<path d="M1655.17 608.656H1676.56V723.352H1655.17V608.656Z" fill="#EFDDDD"/>
<path d="M1738.02 725.162C1729.9 725.162 1722.5 723.406 1715.81 719.896C1709.23 716.276 1703.96 711.284 1700.01 704.921C1696.17 698.449 1694.25 690.989 1694.25 682.542C1694.25 673.875 1696.23 666.36 1700.17 659.998C1704.12 653.635 1709.44 648.698 1716.14 645.188C1722.94 641.567 1730.62 639.757 1739.17 639.757C1748.61 639.757 1756.18 641.677 1761.88 645.517C1767.7 649.247 1771.92 654.348 1774.55 660.82C1777.19 667.293 1778.5 674.533 1778.5 682.542C1778.5 687.369 1777.74 692.305 1776.2 697.352C1774.66 702.288 1772.3 706.896 1769.12 711.174C1765.94 715.343 1761.77 718.744 1756.62 721.377C1751.46 723.9 1745.26 725.162 1738.02 725.162ZM1744.93 708.706C1751.41 708.706 1757 707.609 1761.72 705.415C1766.44 703.221 1770.06 700.149 1772.58 696.2C1775.1 692.251 1776.36 687.698 1776.36 682.542C1776.36 676.947 1775.05 672.23 1772.41 668.39C1769.89 664.441 1766.27 661.479 1761.55 659.504C1756.95 657.42 1751.41 656.377 1744.93 656.377C1735.83 656.377 1728.75 658.791 1723.71 663.618C1718.66 668.335 1716.14 674.643 1716.14 682.542C1716.14 687.808 1717.34 692.415 1719.76 696.364C1722.17 700.204 1725.52 703.221 1729.79 705.415C1734.18 707.609 1739.23 708.706 1744.93 708.706ZM1776.36 641.567H1797.76V723.352H1777.84C1777.84 723.352 1777.68 722.309 1777.35 720.225C1777.13 718.031 1776.91 715.288 1776.69 711.997C1776.47 708.706 1776.36 705.47 1776.36 702.288V641.567Z" fill="#EFDDDD"/>
<path d="M1813.83 696.2H1833.57C1834.78 699.93 1837.25 703.002 1840.98 705.415C1844.82 707.719 1849.81 708.871 1855.95 708.871C1860.12 708.871 1863.36 708.487 1865.66 707.719C1867.96 706.951 1869.56 705.854 1870.43 704.428C1871.31 702.892 1871.75 701.191 1871.75 699.326C1871.75 697.023 1871.04 695.267 1869.61 694.061C1868.18 692.744 1865.99 691.702 1863.03 690.934C1860.07 690.166 1856.28 689.453 1851.67 688.795C1847.07 688.027 1842.62 687.094 1838.34 685.997C1834.07 684.9 1830.28 683.474 1826.99 681.719C1823.7 679.854 1821.07 677.55 1819.09 674.808C1817.23 671.955 1816.29 668.5 1816.29 664.441C1816.29 660.491 1817.23 656.981 1819.09 653.909C1821.07 650.837 1823.75 648.259 1827.16 646.175C1830.67 644.091 1834.72 642.5 1839.33 641.403C1844.05 640.306 1849.1 639.757 1854.47 639.757C1862.59 639.757 1869.34 640.964 1874.71 643.378C1880.09 645.681 1884.09 648.972 1886.72 653.251C1889.47 657.42 1890.84 662.247 1890.84 667.732H1871.91C1871.04 663.673 1869.28 660.766 1866.65 659.01C1864.02 657.145 1859.96 656.213 1854.47 656.213C1849.1 656.213 1845.04 657.036 1842.29 658.681C1839.55 660.327 1838.18 662.576 1838.18 665.428C1838.18 667.732 1839 669.542 1840.65 670.858C1842.4 672.065 1844.93 673.052 1848.22 673.82C1851.62 674.588 1855.84 675.411 1860.89 676.289C1865.17 677.166 1869.23 678.154 1873.07 679.251C1877.02 680.348 1880.53 681.774 1883.6 683.529C1886.67 685.175 1889.08 687.424 1890.84 690.276C1892.7 693.018 1893.64 696.529 1893.64 700.807C1893.64 706.073 1892.1 710.516 1889.03 714.136C1886.07 717.757 1881.79 720.554 1876.19 722.529C1870.6 724.394 1863.91 725.326 1856.12 725.326C1849.21 725.326 1843.23 724.613 1838.18 723.187C1833.24 721.651 1829.13 719.731 1825.84 717.428C1822.55 715.014 1819.97 712.491 1818.1 709.858C1816.35 707.115 1815.14 704.537 1814.48 702.124C1813.83 699.71 1813.61 697.736 1813.83 696.2Z" fill="#EFDDDD"/>
<path d="M1906.71 696.2H1926.46C1927.66 699.93 1930.13 703.002 1933.86 705.415C1937.7 707.719 1942.69 708.871 1948.84 708.871C1953.01 708.871 1956.24 708.487 1958.55 707.719C1960.85 706.951 1962.44 705.854 1963.32 704.428C1964.19 702.892 1964.63 701.191 1964.63 699.326C1964.63 697.023 1963.92 695.267 1962.49 694.061C1961.07 692.744 1958.87 691.702 1955.91 690.934C1952.95 690.166 1949.17 689.453 1944.56 688.795C1939.95 688.027 1935.51 687.094 1931.23 685.997C1926.95 684.9 1923.17 683.474 1919.87 681.719C1916.58 679.854 1913.95 677.55 1911.98 674.808C1910.11 671.955 1909.18 668.5 1909.18 664.441C1909.18 660.491 1910.11 656.981 1911.98 653.909C1913.95 650.837 1916.64 648.259 1920.04 646.175C1923.55 644.091 1927.61 642.5 1932.22 641.403C1936.93 640.306 1941.98 639.757 1947.36 639.757C1955.47 639.757 1962.22 640.964 1967.6 643.378C1972.97 645.681 1976.98 648.972 1979.61 653.251C1982.35 657.42 1983.72 662.247 1983.72 667.732H1964.8C1963.92 663.673 1962.17 660.766 1959.53 659.01C1956.9 657.145 1952.84 656.213 1947.36 656.213C1941.98 656.213 1937.92 657.036 1935.18 658.681C1932.44 660.327 1931.06 662.576 1931.06 665.428C1931.06 667.732 1931.89 669.542 1933.53 670.858C1935.29 672.065 1937.81 673.052 1941.1 673.82C1944.5 674.588 1948.73 675.411 1953.77 676.289C1958.05 677.166 1962.11 678.154 1965.95 679.251C1969.9 680.348 1973.41 681.774 1976.48 683.529C1979.55 685.175 1981.97 687.424 1983.72 690.276C1985.59 693.018 1986.52 696.529 1986.52 700.807C1986.52 706.073 1984.98 710.516 1981.91 714.136C1978.95 717.757 1974.67 720.554 1969.08 722.529C1963.48 724.394 1956.79 725.326 1949 725.326C1942.09 725.326 1936.11 724.613 1931.06 723.187C1926.13 721.651 1922.01 719.731 1918.72 717.428C1915.43 715.014 1912.85 712.491 1910.99 709.858C1909.23 707.115 1908.03 704.537 1907.37 702.124C1906.71 699.71 1906.49 697.736 1906.71 696.2Z" fill="#EFDDDD"/>
<path d="M1992.43 641.567H2015.14L2050.52 720.06L2032.08 723.352L1992.43 641.567ZM2092.48 641.567L2035.87 756.263H2013.65L2037.84 711.174L2069.6 641.567H2092.48Z" fill="#EFDDDD"/>
<path d="M2106.08 659.339L2103.12 653.745C2104.76 651.331 2106.36 648.643 2107.89 645.681C2109.54 642.61 2110.41 639.538 2110.52 636.466L2101.47 634.656V615.897H2126.65V629.39C2126.65 637.07 2124.79 643.323 2121.06 648.15C2117.44 652.867 2112.44 656.597 2106.08 659.339ZM2138.66 659.339L2135.7 653.745C2137.35 651.331 2138.94 648.643 2140.47 645.681C2142.12 642.61 2143 639.538 2143.11 636.466L2134.06 634.656V615.897H2159.23V629.39C2159.23 637.07 2157.37 643.323 2153.64 648.15C2150.02 652.867 2145.03 656.597 2138.66 659.339Z" fill="#EFDDDD"/>
<path d="M2181.07 650.947L2189.13 636.137L2243.11 666.744V684.681L2189.13 715.288L2181.07 699.985L2226.49 675.63L2181.07 650.947Z" fill="#EFDDDD"/>
<path d="M621.175 833.604L629.403 848.414L583.985 873.097L629.403 897.452L621.175 912.755L567.365 882.148V864.211L621.175 833.604Z" fill="#EFDDDD"/>
<path d="M682.262 887.743V860.427H691.971C700.857 860.427 707.385 858.781 711.553 855.49C715.722 852.199 717.806 847.536 717.806 841.503C717.806 835.469 715.832 830.861 711.882 827.68C707.933 824.499 702.667 822.908 696.085 822.908C691.368 822.908 687.418 823.676 684.237 825.212C681.165 826.638 678.807 828.612 677.161 831.136C675.625 833.549 674.803 836.292 674.693 839.363H653.465C653.355 836.182 653.794 832.946 654.782 829.655C655.879 826.363 657.524 823.182 659.718 820.11C661.912 817.039 664.71 814.296 668.111 811.883C671.511 809.469 675.57 807.604 680.288 806.288C685.115 804.862 690.545 804.148 696.579 804.148C703.929 804.148 710.292 805.081 715.667 806.946C721.152 808.811 725.65 811.389 729.161 814.68C732.781 817.971 735.469 821.866 737.224 826.363C738.979 830.752 739.857 835.579 739.857 840.844C739.857 848.085 738.211 854.228 734.92 859.275C731.629 864.211 727.186 868.051 721.591 870.794C716.106 873.426 709.963 874.962 703.161 875.401V887.743H682.262ZM680.781 920.818V902.059H705.629V920.818H680.781Z" fill="#EFDDDD"/>
<path d="M817.359 922.793C810.118 922.793 803.92 921.532 798.764 919.008C793.718 916.375 789.604 912.975 786.422 908.806C783.241 904.527 780.882 899.865 779.346 894.819C777.811 889.772 777.043 884.836 777.043 880.009C777.043 873.975 777.756 868.38 779.182 863.224C780.718 858.068 783.076 853.57 786.258 849.73C789.439 845.781 793.553 842.709 798.599 840.515C803.756 838.321 810.009 837.224 817.359 837.224C825.587 837.224 832.992 839.034 839.574 842.654C846.156 846.275 851.367 851.321 855.207 857.794C859.156 864.156 861.131 871.561 861.131 880.009C861.131 888.675 859.156 896.245 855.207 902.717C851.257 909.08 845.992 914.017 839.409 917.527C832.827 921.038 825.477 922.793 817.359 922.793ZM810.447 906.173C816.262 906.173 821.308 905.076 825.587 902.882C829.975 900.688 833.321 897.671 835.625 893.831C838.038 889.882 839.245 885.274 839.245 880.009C839.245 872.11 836.722 865.747 831.675 860.92C826.738 856.093 819.663 853.68 810.447 853.68C804.633 853.68 799.313 854.722 794.486 856.806C789.768 858.891 786.038 861.908 783.296 865.857C780.553 869.696 779.182 874.414 779.182 880.009C779.182 885.274 780.443 889.882 782.967 893.831C785.49 897.671 789.11 900.688 793.827 902.882C798.545 905.076 804.085 906.173 810.447 906.173ZM757.79 839.034H778.195L779.182 860.756V953.73H757.79V839.034Z" fill="#EFDDDD"/>
<path d="M951.576 920.818V875.895C951.576 871.397 950.808 867.667 949.272 864.705C947.736 861.743 945.268 859.494 941.867 857.958C938.576 856.422 934.133 855.654 928.538 855.654C923.163 855.654 918.281 856.697 913.893 858.781C909.504 860.756 905.939 863.389 903.196 866.68C900.454 869.861 898.918 873.262 898.589 876.882L898.424 867.832C898.973 864.211 900.234 860.591 902.209 856.971C904.184 853.351 906.817 850.059 910.108 847.097C913.399 844.135 917.348 841.777 921.956 840.022C926.673 838.157 931.939 837.224 937.753 837.224C942.8 837.224 947.462 837.882 951.74 839.199C956.019 840.406 959.749 842.325 962.93 844.958C966.112 847.591 968.58 850.882 970.335 854.832C972.09 858.671 972.968 863.224 972.968 868.49V920.818H951.576ZM878.349 920.818V806.123H899.741V920.818H878.349Z" fill="#EFDDDD"/>
<path d="M1051.98 922.793C1044.74 922.793 1038.54 921.532 1033.38 919.008C1028.34 916.375 1024.22 912.975 1021.04 908.806C1017.86 904.527 1015.5 899.865 1013.97 894.819C1012.43 889.772 1011.66 884.836 1011.66 880.009C1011.66 873.975 1012.38 868.38 1013.8 863.224C1015.34 858.068 1017.7 853.57 1020.88 849.73C1024.06 845.781 1028.17 842.709 1033.22 840.515C1038.38 838.321 1044.63 837.224 1051.98 837.224C1060.21 837.224 1067.61 839.034 1074.19 842.654C1080.78 846.275 1085.99 851.321 1089.83 857.794C1093.78 864.156 1095.75 871.561 1095.75 880.009C1095.75 888.675 1093.78 896.245 1089.83 902.717C1085.88 909.08 1080.61 914.017 1074.03 917.527C1067.45 921.038 1060.1 922.793 1051.98 922.793ZM1045.07 906.173C1050.88 906.173 1055.93 905.076 1060.21 902.882C1064.6 900.688 1067.94 897.671 1070.24 893.831C1072.66 889.882 1073.87 885.274 1073.87 880.009C1073.87 872.11 1071.34 865.747 1066.3 860.92C1061.36 856.093 1054.28 853.68 1045.07 853.68C1039.25 853.68 1033.93 854.722 1029.11 856.806C1024.39 858.891 1020.66 861.908 1017.92 865.857C1015.17 869.696 1013.8 874.414 1013.8 880.009C1013.8 885.274 1015.06 889.882 1017.59 893.831C1020.11 897.671 1023.73 900.688 1028.45 902.882C1033.17 905.076 1038.71 906.173 1045.07 906.173ZM992.41 839.034H1012.81L1013.8 860.756V953.73H992.41V839.034Z" fill="#EFDDDD"/>
<path d="M1143.78 839.034H1166.48L1201.86 917.527L1183.43 920.818L1143.78 839.034ZM1243.83 839.034L1187.22 953.73H1165L1189.19 908.641L1220.95 839.034H1243.83Z" fill="#EFDDDD"/>
<path d="M1292.4 922.629C1284.29 922.629 1276.88 920.873 1270.19 917.363C1263.61 913.743 1258.34 908.751 1254.39 902.388C1250.55 895.916 1248.63 888.456 1248.63 880.009C1248.63 871.342 1250.61 863.827 1254.56 857.465C1258.51 851.102 1263.83 846.165 1270.52 842.654C1277.32 839.034 1285 837.224 1293.56 837.224C1302.99 837.224 1310.56 839.144 1316.26 842.984C1322.08 846.714 1326.3 851.815 1328.94 858.287C1331.57 864.76 1332.88 872 1332.88 880.009C1332.88 884.836 1332.12 889.772 1330.58 894.819C1329.05 899.755 1326.69 904.363 1323.51 908.641C1320.32 912.81 1316.16 916.211 1311 918.844C1305.84 921.367 1299.64 922.629 1292.4 922.629ZM1299.32 906.173C1305.79 906.173 1311.38 905.076 1316.1 902.882C1320.82 900.688 1324.44 897.616 1326.96 893.667C1329.48 889.717 1330.75 885.165 1330.75 880.009C1330.75 874.414 1329.43 869.696 1326.8 865.857C1324.27 861.908 1320.65 858.946 1315.94 856.971C1311.33 854.886 1305.79 853.844 1299.32 853.844C1290.21 853.844 1283.13 856.258 1278.09 861.085C1273.04 865.802 1270.52 872.11 1270.52 880.009C1270.52 885.274 1271.73 889.882 1274.14 893.831C1276.55 897.671 1279.9 900.688 1284.18 902.882C1288.56 905.076 1293.61 906.173 1299.32 906.173ZM1330.75 839.034H1352.14V920.818H1332.23C1332.23 920.818 1332.06 919.776 1331.73 917.692C1331.51 915.498 1331.29 912.755 1331.07 909.464C1330.86 906.173 1330.75 902.937 1330.75 899.755V839.034Z" fill="#EFDDDD"/>
<path d="M1411.32 922.629C1403.09 922.629 1395.63 920.873 1388.94 917.363C1382.36 913.743 1377.15 908.751 1373.31 902.388C1369.47 895.916 1367.55 888.456 1367.55 880.009C1367.55 871.342 1369.41 863.827 1373.14 857.465C1376.98 851.102 1382.2 846.165 1388.78 842.654C1395.36 839.034 1402.87 837.224 1411.32 837.224C1418.67 837.224 1424.92 838.321 1430.08 840.515C1435.24 842.709 1439.41 845.781 1442.59 849.73C1445.77 853.57 1448.07 858.068 1449.5 863.224C1451.03 868.38 1451.8 873.975 1451.8 880.009C1451.8 884.836 1451.03 889.772 1449.5 894.819C1447.96 899.755 1445.6 904.363 1442.42 908.641C1439.24 912.81 1435.07 916.211 1429.92 918.844C1424.76 921.367 1418.56 922.629 1411.32 922.629ZM1418.23 906.173C1424.71 906.173 1430.3 905.076 1435.02 902.882C1439.73 900.688 1443.35 897.616 1445.88 893.667C1448.4 889.717 1449.66 885.165 1449.66 880.009C1449.66 874.414 1448.35 869.696 1445.71 865.857C1443.19 861.908 1439.57 858.891 1434.85 856.806C1430.25 854.722 1424.71 853.68 1418.23 853.68C1409.13 853.68 1402.05 856.093 1397.01 860.92C1391.96 865.747 1389.44 872.11 1389.44 880.009C1389.44 885.274 1390.64 889.882 1393.06 893.831C1395.47 897.671 1398.82 900.688 1403.09 902.882C1407.48 905.076 1412.53 906.173 1418.23 906.173ZM1449.66 806.123H1471.06V920.818H1451.14C1450.81 918.295 1450.49 915.059 1450.16 911.11C1449.83 907.051 1449.66 903.266 1449.66 899.755V806.123Z" fill="#EFDDDD"/>
<path d="M1533.93 922.629C1525.82 922.629 1518.41 920.873 1511.72 917.363C1505.14 913.743 1499.87 908.751 1495.92 902.388C1492.08 895.916 1490.16 888.456 1490.16 880.009C1490.16 871.342 1492.14 863.827 1496.09 857.465C1500.04 851.102 1505.36 846.165 1512.05 842.654C1518.85 839.034 1526.53 837.224 1535.09 837.224C1544.52 837.224 1552.09 839.144 1557.8 842.984C1563.61 846.714 1567.83 851.815 1570.47 858.287C1573.1 864.76 1574.42 872 1574.42 880.009C1574.42 884.836 1573.65 889.772 1572.11 894.819C1570.58 899.755 1568.22 904.363 1565.04 908.641C1561.85 912.81 1557.69 916.211 1552.53 918.844C1547.37 921.367 1541.18 922.629 1533.93 922.629ZM1540.85 906.173C1547.32 906.173 1552.91 905.076 1557.63 902.882C1562.35 900.688 1565.97 897.616 1568.49 893.667C1571.01 889.717 1572.28 885.165 1572.28 880.009C1572.28 874.414 1570.96 869.696 1568.33 865.857C1565.8 861.908 1562.18 858.946 1557.47 856.971C1552.86 854.886 1547.32 853.844 1540.85 853.844C1531.74 853.844 1524.66 856.258 1519.62 861.085C1514.57 865.802 1512.05 872.11 1512.05 880.009C1512.05 885.274 1513.26 889.882 1515.67 893.831C1518.08 897.671 1521.43 900.688 1525.71 902.882C1530.1 905.076 1535.14 906.173 1540.85 906.173ZM1572.28 839.034H1593.67V920.818H1573.76C1573.76 920.818 1573.59 919.776 1573.26 917.692C1573.04 915.498 1572.82 912.755 1572.61 909.464C1572.39 906.173 1572.28 902.937 1572.28 899.755V839.034Z" fill="#EFDDDD"/>
<path d="M1605.62 839.034H1628.33L1663.71 917.527L1645.28 920.818L1605.62 839.034ZM1705.67 839.034L1649.07 953.73H1626.85L1651.04 908.641L1682.8 839.034H1705.67Z" fill="#EFDDDD"/>
<path d="M1754.25 922.629C1746.13 922.629 1738.73 920.873 1732.04 917.363C1725.46 913.743 1720.19 908.751 1716.24 902.388C1712.4 895.916 1710.48 888.456 1710.48 880.009C1710.48 871.342 1712.46 863.827 1716.41 857.465C1720.35 851.102 1725.68 846.165 1732.37 842.654C1739.17 839.034 1746.85 837.224 1755.4 837.224C1764.84 837.224 1772.41 839.144 1778.11 842.984C1783.93 846.714 1788.15 851.815 1790.78 858.287C1793.42 864.76 1794.73 872 1794.73 880.009C1794.73 884.836 1793.97 889.772 1792.43 894.819C1790.89 899.755 1788.54 904.363 1785.35 908.641C1782.17 912.81 1778 916.211 1772.85 918.844C1767.69 921.367 1761.49 922.629 1754.25 922.629ZM1761.16 906.173C1767.64 906.173 1773.23 905.076 1777.95 902.882C1782.67 900.688 1786.29 897.616 1788.81 893.667C1791.33 889.717 1792.59 885.165 1792.59 880.009C1792.59 874.414 1791.28 869.696 1788.65 865.857C1786.12 861.908 1782.5 858.946 1777.78 856.971C1773.18 854.886 1767.64 853.844 1761.16 853.844C1752.06 853.844 1744.98 856.258 1739.94 861.085C1734.89 865.802 1732.37 872.11 1732.37 880.009C1732.37 885.274 1733.57 889.882 1735.99 893.831C1738.4 897.671 1741.75 900.688 1746.03 902.882C1750.41 905.076 1755.46 906.173 1761.16 906.173ZM1792.59 839.034H1813.99V920.818H1794.08C1794.08 920.818 1793.91 919.776 1793.58 917.692C1793.36 915.498 1793.14 912.755 1792.92 909.464C1792.7 906.173 1792.59 902.937 1792.59 899.755V839.034Z" fill="#EFDDDD"/>
<path d="M1873.17 922.629C1864.94 922.629 1857.48 920.873 1850.79 917.363C1844.21 913.743 1839 908.751 1835.16 902.388C1831.32 895.916 1829.4 888.456 1829.4 880.009C1829.4 871.342 1831.26 863.827 1834.99 857.465C1838.83 851.102 1844.04 846.165 1850.63 842.654C1857.21 839.034 1864.72 837.224 1873.17 837.224C1880.52 837.224 1886.77 838.321 1891.93 840.515C1897.09 842.709 1901.25 845.781 1904.44 849.73C1907.62 853.57 1909.92 858.068 1911.35 863.224C1912.88 868.38 1913.65 873.975 1913.65 880.009C1913.65 884.836 1912.88 889.772 1911.35 894.819C1909.81 899.755 1907.45 904.363 1904.27 908.641C1901.09 912.81 1896.92 916.211 1891.77 918.844C1886.61 921.367 1880.41 922.629 1873.17 922.629ZM1880.08 906.173C1886.55 906.173 1892.15 905.076 1896.87 902.882C1901.58 900.688 1905.2 897.616 1907.73 893.667C1910.25 889.717 1911.51 885.165 1911.51 880.009C1911.51 874.414 1910.2 869.696 1907.56 865.857C1905.04 861.908 1901.42 858.891 1896.7 856.806C1892.09 854.722 1886.55 853.68 1880.08 853.68C1870.98 853.68 1863.9 856.093 1858.85 860.92C1853.81 865.747 1851.28 872.11 1851.28 880.009C1851.28 885.274 1852.49 889.882 1854.9 893.831C1857.32 897.671 1860.66 900.688 1864.94 902.882C1869.33 905.076 1874.38 906.173 1880.08 906.173ZM1911.51 806.123H1932.9V920.818H1912.99C1912.66 918.295 1912.33 915.059 1912.01 911.11C1911.68 907.051 1911.51 903.266 1911.51 899.755V806.123Z" fill="#EFDDDD"/>
<path d="M1995.78 922.629C1987.67 922.629 1980.26 920.873 1973.57 917.363C1966.99 913.743 1961.72 908.751 1957.77 902.388C1953.93 895.916 1952.01 888.456 1952.01 880.009C1952.01 871.342 1953.99 863.827 1957.94 857.465C1961.89 851.102 1967.21 846.165 1973.9 842.654C1980.7 839.034 1988.38 837.224 1996.94 837.224C2006.37 837.224 2013.94 839.144 2019.64 842.984C2025.46 846.714 2029.68 851.815 2032.31 858.287C2034.95 864.76 2036.26 872 2036.26 880.009C2036.26 884.836 2035.5 889.772 2033.96 894.819C2032.42 899.755 2030.07 904.363 2026.88 908.641C2023.7 912.81 2019.53 916.211 2014.38 918.844C2009.22 921.367 2003.02 922.629 1995.78 922.629ZM2002.69 906.173C2009.17 906.173 2014.76 905.076 2019.48 902.882C2024.2 900.688 2027.82 897.616 2030.34 893.667C2032.86 889.717 2034.13 885.165 2034.13 880.009C2034.13 874.414 2032.81 869.696 2030.18 865.857C2027.65 861.908 2024.03 858.946 2019.32 856.971C2014.71 854.886 2009.17 853.844 2002.69 853.844C1993.59 853.844 1986.51 856.258 1981.47 861.085C1976.42 865.802 1973.9 872.11 1973.9 880.009C1973.9 885.274 1975.1 889.882 1977.52 893.831C1979.93 897.671 1983.28 900.688 1987.56 902.882C1991.94 905.076 1996.99 906.173 2002.69 906.173ZM2034.13 839.034H2055.52V920.818H2035.61C2035.61 920.818 2035.44 919.776 2035.11 917.692C2034.89 915.498 2034.67 912.755 2034.45 909.464C2034.23 906.173 2034.13 902.937 2034.13 899.755V839.034Z" fill="#EFDDDD"/>
<path d="M2067.47 839.034H2090.18L2125.56 917.527L2107.13 920.818L2067.47 839.034ZM2167.52 839.034L2110.92 953.73H2088.7L2112.89 908.641L2144.65 839.034H2167.52Z" fill="#EFDDDD"/>
<path d="M2216.1 922.629C2207.98 922.629 2200.58 920.873 2193.89 917.363C2187.3 913.743 2182.04 908.751 2178.09 902.388C2174.25 895.916 2172.33 888.456 2172.33 880.009C2172.33 871.342 2174.3 863.827 2178.25 857.465C2182.2 851.102 2187.52 846.165 2194.22 842.654C2201.02 839.034 2208.7 837.224 2217.25 837.224C2226.69 837.224 2234.26 839.144 2239.96 842.984C2245.78 846.714 2250 851.815 2252.63 858.287C2255.27 864.76 2256.58 872 2256.58 880.009C2256.58 884.836 2255.81 889.772 2254.28 894.819C2252.74 899.755 2250.38 904.363 2247.2 908.641C2244.02 912.81 2239.85 916.211 2234.7 918.844C2229.54 921.367 2223.34 922.629 2216.1 922.629ZM2223.01 906.173C2229.49 906.173 2235.08 905.076 2239.8 902.882C2244.52 900.688 2248.14 897.616 2250.66 893.667C2253.18 889.717 2254.44 885.165 2254.44 880.009C2254.44 874.414 2253.13 869.696 2250.49 865.857C2247.97 861.908 2244.35 858.946 2239.63 856.971C2235.03 854.886 2229.49 853.844 2223.01 853.844C2213.91 853.844 2206.83 856.258 2201.79 861.085C2196.74 865.802 2194.22 872.11 2194.22 880.009C2194.22 885.274 2195.42 889.882 2197.84 893.831C2200.25 897.671 2203.6 900.688 2207.87 902.882C2212.26 905.076 2217.31 906.173 2223.01 906.173ZM2254.44 839.034H2275.84V920.818H2255.92C2255.92 920.818 2255.76 919.776 2255.43 917.692C2255.21 915.498 2254.99 912.755 2254.77 909.464C2254.55 906.173 2254.44 902.937 2254.44 899.755V839.034Z" fill="#EFDDDD"/>
<path d="M2335.02 922.629C2326.79 922.629 2319.33 920.873 2312.64 917.363C2306.06 913.743 2300.85 908.751 2297.01 902.388C2293.17 895.916 2291.25 888.456 2291.25 880.009C2291.25 871.342 2293.11 863.827 2296.84 857.465C2300.68 851.102 2305.89 846.165 2312.47 842.654C2319.06 839.034 2326.57 837.224 2335.02 837.224C2342.37 837.224 2348.62 838.321 2353.78 840.515C2358.93 842.709 2363.1 845.781 2366.28 849.73C2369.47 853.57 2371.77 858.068 2373.2 863.224C2374.73 868.38 2375.5 873.975 2375.5 880.009C2375.5 884.836 2374.73 889.772 2373.2 894.819C2371.66 899.755 2369.3 904.363 2366.12 908.641C2362.94 912.81 2358.77 916.211 2353.61 918.844C2348.46 921.367 2342.26 922.629 2335.02 922.629ZM2341.93 906.173C2348.4 906.173 2354 905.076 2358.72 902.882C2363.43 900.688 2367.05 897.616 2369.58 893.667C2372.1 889.717 2373.36 885.165 2373.36 880.009C2373.36 874.414 2372.04 869.696 2369.41 865.857C2366.89 861.908 2363.27 858.891 2358.55 856.806C2353.94 854.722 2348.4 853.68 2341.93 853.68C2332.83 853.68 2325.75 856.093 2320.7 860.92C2315.66 865.747 2313.13 872.11 2313.13 880.009C2313.13 885.274 2314.34 889.882 2316.75 893.831C2319.17 897.671 2322.51 900.688 2326.79 902.882C2331.18 905.076 2336.23 906.173 2341.93 906.173ZM2373.36 806.123H2394.75V920.818H2374.84C2374.51 918.295 2374.18 915.059 2373.85 911.11C2373.52 907.051 2373.36 903.266 2373.36 899.755V806.123Z" fill="#EFDDDD"/>
<path d="M2457.63 922.629C2449.51 922.629 2442.11 920.873 2435.42 917.363C2428.84 913.743 2423.57 908.751 2419.62 902.388C2415.78 895.916 2413.86 888.456 2413.86 880.009C2413.86 871.342 2415.84 863.827 2419.78 857.465C2423.73 851.102 2429.05 846.165 2435.75 842.654C2442.55 839.034 2450.23 837.224 2458.78 837.224C2468.22 837.224 2475.79 839.144 2481.49 842.984C2487.31 846.714 2491.53 851.815 2494.16 858.287C2496.8 864.76 2498.11 872 2498.11 880.009C2498.11 884.836 2497.35 889.772 2495.81 894.819C2494.27 899.755 2491.91 904.363 2488.73 908.641C2485.55 912.81 2481.38 916.211 2476.23 918.844C2471.07 921.367 2464.87 922.629 2457.63 922.629ZM2464.54 906.173C2471.02 906.173 2476.61 905.076 2481.33 902.882C2486.05 900.688 2489.67 897.616 2492.19 893.667C2494.71 889.717 2495.97 885.165 2495.97 880.009C2495.97 874.414 2494.66 869.696 2492.02 865.857C2489.5 861.908 2485.88 858.946 2481.16 856.971C2476.56 854.886 2471.02 853.844 2464.54 853.844C2455.44 853.844 2448.36 856.258 2443.32 861.085C2438.27 865.802 2435.75 872.11 2435.75 880.009C2435.75 885.274 2436.95 889.882 2439.37 893.831C2441.78 897.671 2445.13 900.688 2449.4 902.882C2453.79 905.076 2458.84 906.173 2464.54 906.173ZM2495.97 839.034H2517.37V920.818H2497.45C2497.45 920.818 2497.29 919.776 2496.96 917.692C2496.74 915.498 2496.52 912.755 2496.3 909.464C2496.08 906.173 2495.97 902.937 2495.97 899.755V839.034Z" fill="#EFDDDD"/>
<path d="M2573.42 935.628L2562.07 944.844C2562.07 944.844 2561.14 943.801 2559.27 941.717C2557.52 939.742 2555.32 936.78 2552.69 932.831C2550.17 928.882 2547.59 924.055 2544.95 918.35C2542.32 912.536 2540.07 905.899 2538.21 898.439C2536.45 890.979 2535.58 882.751 2535.58 873.756C2535.58 864.65 2536.45 856.422 2538.21 849.072C2540.07 841.612 2542.32 835.085 2544.95 829.49C2547.59 823.785 2550.17 819.013 2552.69 815.174C2555.32 811.224 2557.52 808.262 2559.27 806.288C2561.14 804.313 2562.07 803.326 2562.07 803.326L2573.42 812.376C2573.42 812.376 2572.33 813.693 2570.13 816.326C2568.05 818.958 2565.63 822.908 2562.89 828.174C2560.15 833.33 2557.68 839.747 2555.49 847.427C2553.4 854.996 2552.36 863.772 2552.36 873.756C2552.36 881.983 2553.07 889.388 2554.5 895.971C2555.93 902.553 2557.68 908.312 2559.76 913.249C2561.85 918.186 2563.93 922.299 2566.02 925.591C2568.1 928.991 2569.86 931.515 2571.28 933.16C2572.71 934.806 2573.42 935.628 2573.42 935.628Z" fill="#EFDDDD"/>
<path d="M2590.86 935.628C2590.86 935.628 2591.57 934.806 2592.99 933.16C2594.42 931.515 2596.18 928.991 2598.26 925.591C2600.34 922.299 2602.43 918.186 2604.51 913.249C2606.6 908.312 2608.35 902.553 2609.78 895.971C2611.21 889.388 2611.92 881.983 2611.92 873.756C2611.92 863.772 2610.82 854.996 2608.63 847.427C2606.54 839.747 2604.13 833.33 2601.39 828.174C2598.64 822.908 2596.18 818.958 2593.98 816.326C2591.9 813.693 2590.86 812.376 2590.86 812.376L2602.21 803.326C2602.21 803.326 2603.09 804.313 2604.84 806.288C2606.71 808.262 2608.96 811.224 2611.59 815.174C2614.22 819.013 2616.8 823.785 2619.32 829.49C2621.96 835.085 2624.15 841.612 2625.91 849.072C2627.77 856.422 2628.7 864.65 2628.7 873.756C2628.7 882.751 2627.77 890.979 2625.91 898.439C2624.15 905.899 2621.96 912.536 2619.32 918.35C2616.8 924.055 2614.22 928.882 2611.59 932.831C2608.96 936.78 2606.71 939.742 2604.84 941.717C2603.09 943.801 2602.21 944.844 2602.21 944.844L2590.86 935.628Z" fill="#EFDDDD"/>
<path d="M2672.14 841.338V860.097H2647.29V841.338H2672.14ZM2651.9 943.198L2648.93 937.603C2650.58 935.19 2652.17 932.502 2653.71 929.54C2655.35 926.578 2656.23 923.561 2656.34 920.489L2647.29 918.679V899.755H2672.46V913.249C2672.46 921.038 2670.6 927.291 2666.87 932.008C2663.25 936.835 2658.26 940.565 2651.9 943.198Z" fill="#EFDDDD"/>
<path d="M2759.46 887.743V860.427H2769.17C2778.05 860.427 2784.58 858.781 2788.75 855.49C2792.92 852.199 2795 847.536 2795 841.503C2795 835.469 2793.03 830.861 2789.08 827.68C2785.13 824.499 2779.86 822.908 2773.28 822.908C2768.56 822.908 2764.61 823.676 2761.43 825.212C2758.36 826.638 2756 828.612 2754.36 831.136C2752.82 833.549 2752 836.292 2751.89 839.363H2730.66C2730.55 836.182 2730.99 832.946 2731.98 829.655C2733.07 826.363 2734.72 823.182 2736.91 820.11C2739.11 817.039 2741.9 814.296 2745.31 811.883C2748.71 809.469 2752.77 807.604 2757.48 806.288C2762.31 804.862 2767.74 804.148 2773.77 804.148C2781.12 804.148 2787.49 805.081 2792.86 806.946C2798.35 808.811 2802.84 811.389 2806.36 814.68C2809.98 817.971 2812.66 821.866 2814.42 826.363C2816.17 830.752 2817.05 835.579 2817.05 840.844C2817.05 848.085 2815.41 854.228 2812.11 859.275C2808.82 864.211 2804.38 868.051 2798.79 870.794C2793.3 873.426 2787.16 874.962 2780.36 875.401V887.743H2759.46ZM2757.98 920.818V902.059H2782.82V920.818H2757.98Z" fill="#EFDDDD"/>
<path d="M2840.58 848.414L2848.64 833.604L2902.62 864.211V882.148L2848.64 912.755L2840.58 897.452L2886 873.097L2840.58 848.414Z" fill="#EFDDDD"/>
<path d="M621.175 1031.07L629.403 1045.88L583.985 1070.56L629.403 1094.92L621.175 1110.22L567.365 1079.61V1061.68L621.175 1031.07Z" fill="#EFDDDD"/>
<path d="M695.233 994.375L712.511 1000.63L662.322 1138.03L645.208 1131.78L695.233 994.375Z" fill="#EFDDDD"/>
<path d="M803.09 1118.29V1073.36C803.09 1068.86 802.322 1065.13 800.786 1062.17C799.25 1059.21 796.782 1056.96 793.381 1055.43C790.09 1053.89 785.647 1053.12 780.052 1053.12C774.677 1053.12 769.795 1054.16 765.407 1056.25C761.019 1058.22 757.453 1060.86 754.711 1064.15C751.968 1067.33 750.432 1070.73 750.103 1074.35L749.939 1065.3C750.487 1061.68 751.749 1058.06 753.723 1054.44C755.698 1050.82 758.331 1047.53 761.622 1044.56C764.913 1041.6 768.862 1039.24 773.47 1037.49C778.187 1035.62 783.453 1034.69 789.267 1034.69C794.314 1034.69 798.976 1035.35 803.255 1036.67C807.533 1037.87 811.263 1039.79 814.444 1042.43C817.626 1045.06 820.094 1048.35 821.849 1052.3C823.605 1056.14 824.482 1060.69 824.482 1065.96V1118.29H803.09ZM729.863 1118.29V1003.59H751.255V1118.29H729.863Z" fill="#EFDDDD"/>
<path d="M896.253 1093.44L869.595 1105.94L868.772 1101.83H930.151V1118.29H842.443V1101.83C852.317 1097.33 861.203 1093.49 869.101 1090.31C877 1087.13 883.692 1084.28 889.177 1081.75C894.662 1079.12 898.831 1076.49 901.683 1073.86C904.645 1071.11 906.126 1068.1 906.126 1064.8C906.126 1062.17 905.358 1059.92 903.823 1058.06C902.287 1056.08 899.873 1054.55 896.582 1053.45C893.291 1052.35 889.013 1051.8 883.747 1051.8C876.835 1051.8 871.241 1053.18 866.962 1055.92C862.793 1058.55 860.599 1062.17 860.38 1066.78H839.646C839.317 1060.42 840.853 1054.82 844.253 1049.99C847.764 1045.17 852.865 1041.38 859.557 1038.64C866.249 1035.9 874.148 1034.53 883.253 1034.53C889.945 1034.53 896.034 1035.18 901.519 1036.5C907.004 1037.71 911.721 1039.52 915.671 1041.93C919.73 1044.34 922.801 1047.25 924.886 1050.65C927.08 1054.05 928.177 1057.89 928.177 1062.17C928.177 1065.46 927.573 1068.48 926.367 1071.22C925.16 1073.86 923.24 1076.38 920.607 1078.79C918.084 1081.21 914.793 1083.62 910.734 1086.03C906.675 1088.34 901.848 1090.8 896.253 1093.44Z" fill="#EFDDDD"/>
<path d="M952.206 1045.88L960.269 1031.07L1014.24 1061.68V1079.61L960.269 1110.22L952.206 1094.92L997.623 1070.56L952.206 1045.88Z" fill="#EFDDDD"/>
</svg>
