<svg width="3651" height="2037" viewBox="0 0 3651 2037" fill="none" xmlns="http://www.w3.org/2000/svg">
<path d="M1664.68 42.0361L1673.8 9.24478L1602.04 5.173L1592.92 37.9644L1664.68 42.0361ZM1049.1 1992.96C1044.06 2011.07 1056.04 2026.67 1075.86 2027.79C1095.68 2028.92 1115.82 2015.15 1120.86 1997.04L1049.1 1992.96ZM1592.92 37.9644L1049.1 1992.96L1120.86 1997.04L1664.68 42.0361L1592.92 37.9644Z" fill="#EFDDDD"/>
<path d="M1785.92 42.0361L1776.8 9.24478L1848.56 5.173L1857.68 37.9644L1785.92 42.0361ZM2401.5 1992.96C2406.54 2011.07 2394.56 2026.67 2374.74 2027.79C2354.93 2028.92 2334.78 2015.15 2329.74 1997.04L2401.5 1992.96ZM1857.68 37.9644L2401.5 1992.96L2329.74 1997.04L1785.92 42.0361L1857.68 37.9644Z" fill="#EFDDDD"/>
<path fill-rule="evenodd" clip-rule="evenodd" d="M1909 453H1538V383H1909V453ZM1589 418C1589 426.284 1582.28 433 1574 433C1565.72 433 1559 426.284 1559 418C1559 409.716 1565.72 403 1574 403C1582.28 403 1589 409.716 1589 418ZM1873 433C1881.28 433 1888 426.284 1888 418C1888 409.716 1881.28 403 1873 403C1864.72 403 1858 409.716 1858 418C1858 426.284 1864.72 433 1873 433Z" fill="#EFDDDD"/>
<path fill-rule="evenodd" clip-rule="evenodd" d="M2229 1583H1214V1513H2229V1583ZM1280 1548C1280 1556.28 1273.28 1563 1265 1563C1256.72 1563 1250 1556.28 1250 1548C1250 1539.72 1256.72 1533 1265 1533C1273.28 1533 1280 1539.72 1280 1548ZM2187 1563C2195.28 1563 2202 1556.28 2202 1548C2202 1539.72 2195.28 1533 2187 1533C2178.72 1533 2172 1539.72 2172 1548C2172 1556.28 2178.72 1563 2187 1563Z" fill="#EFDDDD"/>
<path d="M1723 418V1583" stroke="#EFDDDD" stroke-width="70"/>
<rect x="1185" y="604" width="1076" height="648" rx="12" fill="#EFDDDD"/>
<rect x="1247" y="655" width="957" height="575" rx="12" fill="#BA1133"/>
<line x1="1093.81" y1="1288" x2="2357.81" y2="1281" stroke="#EFDDDD" stroke-width="70"/>
</svg>
