<svg width="250" height="145" viewBox="0 0 250 145" fill="none" xmlns="http://www.w3.org/2000/svg">
<path d="M112.5 135.313C112.5 130.138 116.7 125.938 121.875 125.938H240.625C245.8 125.938 250 130.138 250 135.313C250 140.488 245.8 144.688 240.625 144.688H121.875C116.7 144.688 112.5 140.488 112.5 135.313ZM0 72.8125C0 67.6375 4.2 63.4375 9.375 63.4375H240.625C245.8 63.4375 250 67.6375 250 72.8125C250 77.9875 245.8 82.1875 240.625 82.1875H9.375C4.2 82.1875 0 77.9875 0 72.8125ZM50 10.3125C50 5.1375 54.2 0.9375 59.375 0.9375H240.625C245.8 0.9375 250 5.1375 250 10.3125C250 15.4875 245.8 19.6875 240.625 19.6875H59.375C54.2 19.6875 50 15.4875 50 10.3125Z" fill="#62516E"/>
</svg>
