<svg width="1488" height="1413" viewBox="0 0 1488 1413" fill="none" xmlns="http://www.w3.org/2000/svg">
<path d="M58.5415 395.601C58.5415 395.601 204.162 503.747 388.042 505.601C571.922 507.454 728.955 397.514 728.042 395.601" stroke="#C48585" stroke-width="30" stroke-linecap="round" stroke-linejoin="round"/>
<path d="M709.946 408.497C1110.43 121.477 1146.71 570.84 1133.54 566.101" stroke="#C48585" stroke-width="30" stroke-linecap="round" stroke-linejoin="round"/>
<path d="M1135.54 561.101C1120.6 730.604 792.6 685.604 806.541 529.601" stroke="#C48585" stroke-width="30" stroke-linecap="round" stroke-linejoin="round"/>
<path d="M806.543 530.1C814.044 460.1 931.231 432.056 990.041 500.1" stroke="#C48585" stroke-width="30" stroke-linecap="round" stroke-linejoin="round"/>
<path d="M988.561 498.5C1033.56 546.5 947.216 627.624 908.817 548.789" stroke="#C48585" stroke-width="30" stroke-linecap="round" stroke-linejoin="round"/>
<path d="M1086.54 643.101C1317.92 496.739 1541.04 720.6 1386.54 848.1" stroke="#C48585" stroke-width="30" stroke-linecap="round" stroke-linejoin="round"/>
<path d="M1388.04 846.601C1278.08 948.459 1013.88 814.415 1161.8 705.455" stroke="#C48585" stroke-width="30" stroke-linecap="round" stroke-linejoin="round"/>
<path d="M1153.22 712.491C1259.26 625.545 1355.24 752.508 1234.06 762.5" stroke="#C48585" stroke-width="30" stroke-linecap="round" stroke-linejoin="round"/>
<path d="M1197.6 864.835C1610.23 1053.91 948.561 1257.5 1014.06 965" stroke="#C48585" stroke-width="30" stroke-linecap="round" stroke-linejoin="round"/>
<path d="M57.0415 393.1C160.789 679.912 378.982 787.176 510.561 717.5" stroke="#C48585" stroke-width="30" stroke-linecap="round" stroke-linejoin="round"/>
<path d="M487.5 743.5C362 943.5 822.561 1161.5 1026.06 943.5" stroke="#C48585" stroke-width="30" stroke-linecap="round" stroke-linejoin="round"/>
<path d="M468.5 790.5C521.5 595 818.541 700.6 728.04 864.101" stroke="#C48585" stroke-width="30" stroke-linecap="round" stroke-linejoin="round"/>
<path d="M730.042 860.1C671.042 966.6 496.133 839.05 596.542 775.1" stroke="#C48585" stroke-width="30" stroke-linecap="round" stroke-linejoin="round"/>
<path d="M590.678 778.923C639.392 744.234 676.561 828.106 618.426 828.106" stroke="#C48585" stroke-width="30" stroke-linecap="round" stroke-linejoin="round"/>
<path d="M1011.06 977.501C1038.06 863.5 1238.06 898 1168.06 1006" stroke="#C48585" stroke-width="30" stroke-linecap="round"/>
<path d="M1175.5 993C1155 1050.5 1082.65 985.204 1118.11 968.022" stroke="#C48585" stroke-width="30" stroke-linecap="round"/>
<path d="M909.252 549.633C892.204 517.136 938.561 494.5 952.061 532" stroke="#C48585" stroke-width="30" stroke-linecap="round"/>
<path d="M1237 762.204C1193.29 767.941 1181 742.5 1215.5 726.5" stroke="#C48585" stroke-width="30" stroke-linecap="round"/>
</svg>
