<svg width="1488" height="944" viewBox="0 0 1488 944" fill="none" xmlns="http://www.w3.org/2000/svg">
<path d="M58.5415 156.601C58.5415 156.601 204.162 264.747 388.042 266.601C571.922 268.454 728.955 158.514 728.042 156.601" stroke="#634C73" stroke-width="30" stroke-linecap="round" stroke-linejoin="round"/>
<path d="M709.946 169.497C1110.43 -117.523 1146.71 331.84 1133.54 327.101" stroke="#634C73" stroke-width="30" stroke-linecap="round" stroke-linejoin="round"/>
<path d="M1135.54 322.101C1120.6 491.604 792.6 446.604 806.541 290.601" stroke="#634C73" stroke-width="30" stroke-linecap="round" stroke-linejoin="round"/>
<path d="M806.543 291.1C814.044 221.1 931.231 193.056 990.041 261.1" stroke="#634C73" stroke-width="30" stroke-linecap="round" stroke-linejoin="round"/>
<path d="M988.561 259.5C1033.56 307.5 947.216 388.624 908.817 309.789" stroke="#634C73" stroke-width="30" stroke-linecap="round" stroke-linejoin="round"/>
<path d="M1086.54 404.101C1317.92 257.739 1541.04 481.6 1386.54 609.1" stroke="#634C73" stroke-width="30" stroke-linecap="round" stroke-linejoin="round"/>
<path d="M1388.04 607.601C1278.08 709.458 1013.88 575.415 1161.8 466.454" stroke="#634C73" stroke-width="30" stroke-linecap="round" stroke-linejoin="round"/>
<path d="M1153.22 473.491C1259.26 386.545 1355.24 513.508 1234.06 523.5" stroke="#634C73" stroke-width="30" stroke-linecap="round" stroke-linejoin="round"/>
<path d="M1197.6 625.835C1619.57 829.981 957.995 1033.73 1014.06 726" stroke="#634C73" stroke-width="30" stroke-linecap="round" stroke-linejoin="round"/>
<path d="M57.0413 154.1C160.789 440.912 378.981 548.176 510.561 478.5" stroke="#634C73" stroke-width="30" stroke-linecap="round" stroke-linejoin="round"/>
<path d="M487.5 504.5C362 704.5 822.561 922.5 1026.06 704.5" stroke="#634C73" stroke-width="30" stroke-linecap="round" stroke-linejoin="round"/>
<path d="M468.5 551.5C521.5 356 818.541 461.6 728.04 625.101" stroke="#634C73" stroke-width="30" stroke-linecap="round" stroke-linejoin="round"/>
<path d="M730.042 621.1C671.042 727.6 496.133 600.05 596.542 536.1" stroke="#634C73" stroke-width="30" stroke-linecap="round" stroke-linejoin="round"/>
<path d="M590.678 539.923C639.392 505.234 676.561 589.106 618.426 589.106" stroke="#634C73" stroke-width="30" stroke-linecap="round" stroke-linejoin="round"/>
<path d="M1011.93 739.547C1041.7 595.161 1295.42 712.714 1213.92 776.401" stroke="#634C73" stroke-width="30" stroke-linecap="round"/>
<path d="M1218.5 773C1182 799.501 1136 796 1136 757" stroke="#634C73" stroke-width="30" stroke-linecap="round"/>
</svg>
