<svg width="3651" height="2037" viewBox="0 0 3651 2037" fill="none" xmlns="http://www.w3.org/2000/svg">
<path d="M2045.37 1637.81C2181.27 1832.56 2076.57 1942.47 1801.92 1970.12C1646.17 1942.47 1531.77 1823.11 1626.55 1637.81C1626.55 1443.18 1739.76 1379 1835.96 1162.03C1877.79 1309.98 2045.37 1443.18 2045.37 1637.81Z" fill="#EFDDDD" stroke="#BA1133" stroke-width="70"/>
<path d="M1131.28 1472.64C1237.16 1635.95 1367.31 1659.04 1465.83 1675.72C1484.56 1575.7 1522.84 1450.73 1416.96 1287.42C1311.08 1124.12 1100.53 1044.44 897.978 1003.31C1090.37 1134.25 1025.4 1309.33 1131.28 1472.64Z" fill="#EFDDDD"/>
<path d="M1131.28 1472.64C1237.16 1635.95 1367.31 1659.04 1465.83 1675.72C1484.56 1575.7 1522.84 1450.73 1416.96 1287.42C1311.08 1124.12 1100.53 1044.44 897.978 1003.31C1090.37 1134.25 1025.4 1309.33 1131.28 1472.64Z" fill="#EFDDDD"/>
<path d="M1131.28 1472.64C1237.16 1635.95 1367.31 1659.04 1465.83 1675.72C1484.56 1575.7 1522.84 1450.73 1416.96 1287.42C1311.08 1124.12 1100.53 1044.44 897.978 1003.31C1090.37 1134.25 1025.4 1309.33 1131.28 1472.64Z" stroke="#BA1133" stroke-width="70"/>
<path d="M2494.39 1481.15C2388.51 1644.46 2258.36 1667.55 2159.84 1684.23C2141.12 1584.21 2102.84 1459.24 2208.72 1295.93C2314.6 1132.62 2525.14 1052.95 2727.7 1011.82C2535.3 1142.76 2600.27 1317.84 2494.39 1481.15Z" fill="#EFDDDD"/>
<path d="M2494.39 1481.15C2388.51 1644.46 2258.36 1667.55 2159.84 1684.23C2141.12 1584.21 2102.84 1459.24 2208.72 1295.93C2314.6 1132.62 2525.14 1052.95 2727.7 1011.82C2535.3 1142.76 2600.27 1317.84 2494.39 1481.15Z" fill="#EFDDDD"/>
<path d="M2494.39 1481.15C2388.51 1644.46 2258.36 1667.55 2159.84 1684.23C2141.12 1584.21 2102.84 1459.24 2208.72 1295.93C2314.6 1132.62 2525.14 1052.95 2727.7 1011.82C2535.3 1142.76 2600.27 1317.84 2494.39 1481.15Z" stroke="#BA1133" stroke-width="70"/>
<path d="M2494.39 1481.15C2388.51 1644.46 2258.36 1667.55 2159.84 1684.23C2141.12 1584.21 2102.84 1459.24 2208.72 1295.93C2314.6 1132.62 2525.14 1052.95 2727.7 1011.82C2535.3 1142.76 2600.27 1317.84 2494.39 1481.15Z" stroke="#BA1133" stroke-width="70"/>
<path d="M1302.52 1332.72C1439.55 1470.93 1569.69 1468.9 1668.02 1466.59C1664.46 1366.28 1674.32 1238.17 1537.29 1099.96C1400.26 961.748 1291.61 979.092 1084.92 878.477C1165.65 1006.8 1165.49 1194.51 1302.52 1332.72Z" fill="#EFDDDD" stroke="#BA1133" stroke-width="70"/>
<path d="M1401.9 1188.08C1523.41 1355.16 1655.6 1377.39 1755.6 1393.4C1764.63 1290.04 1790.78 1160.73 1669.28 993.64C1547.77 826.551 1561.77 859.207 1339.83 776.247C1368.67 918.532 1280.39 1020.99 1401.9 1188.08Z" fill="#EFDDDD" stroke="#BA1133" stroke-width="70"/>
<path d="M1401.9 1188.08C1523.41 1355.16 1655.6 1377.39 1755.6 1393.4C1764.63 1290.04 1790.78 1160.73 1669.28 993.64C1547.77 826.551 1561.77 859.207 1339.83 776.247C1368.67 918.532 1280.39 1020.99 1401.9 1188.08Z" fill="#EFDDDD" stroke="#BA1133" stroke-width="70"/>
<path d="M1650.06 1854.73C1457.03 1928.35 1241.44 1832.07 1148.93 1790.87C1197.8 1699.35 1339.21 1619.46 1532.25 1545.83C1725.28 1472.21 1695.72 1491.92 1926.95 1543.62C1825.09 1647.07 1843.1 1781.1 1650.06 1854.73Z" fill="#EFDDDD" stroke="#BA1133" stroke-width="70"/>
<path d="M2047.02 1878.22C2240.06 1951.84 2455.65 1855.56 2548.16 1814.36C2499.29 1722.84 2357.87 1642.95 2164.84 1569.32C1971.81 1495.7 2001.36 1515.41 1770.14 1567.11C1871.99 1670.56 1853.99 1804.59 2047.02 1878.22Z" fill="#EFDDDD" stroke="#BA1133" stroke-width="70"/>
<path d="M2471.1 1278.91C2335.61 1418.63 2206.73 1419.27 2109.34 1418.99C2112.7 1319.54 2102.73 1192.81 2238.22 1053.09C2373.7 913.362 2481.33 928.33 2685.86 824.431C2606.13 953.207 2606.59 1139.18 2471.1 1278.91Z" fill="#EFDDDD" stroke="#BA1133" stroke-width="70"/>
<path d="M2283.6 1584.88C2177.72 1748.18 2028.91 1759.17 1916.18 1766.65C1883.91 1657.84 1826.3 1520.34 1932.18 1357.03C2038.06 1193.73 2167.97 1201.46 2366.72 1071.74C2321.34 1218.64 2389.48 1421.57 2283.6 1584.88Z" fill="#EFDDDD" stroke="#BA1133" stroke-width="70"/>
<path d="M1392.35 1584.88C1498.22 1748.18 1647.04 1759.17 1759.77 1766.65C1792.04 1657.84 1849.65 1520.34 1743.77 1357.03C1637.89 1193.73 1507.98 1201.46 1309.23 1071.74C1354.61 1218.64 1286.47 1421.57 1392.35 1584.88Z" fill="#EFDDDD" stroke="#BA1133" stroke-width="70"/>
<path d="M1945.72 1088.55C1945.72 1283.18 1918.66 1373.36 1830.45 1440.96C1746.37 1367.21 1626.37 1283.18 1626.37 1088.54C1626.37 893.911 1736.7 829.729 1830.45 612.75C1871.22 760.712 1945.72 893.917 1945.72 1088.55Z" fill="#EFDDDD" stroke="#BA1133" stroke-width="70"/>
<path d="M2045.37 1480.87C2045.37 1675.5 1926.48 1765.67 1835.96 1833.27C1749.69 1759.53 1626.55 1675.5 1626.55 1480.87C1626.55 1286.24 1739.76 1222.06 1835.96 1005.09C1877.79 1153.05 2045.37 1286.24 2045.37 1480.87Z" fill="#EFDDDD" stroke="#BA1133" stroke-width="70"/>
<path d="M2009.47 870.168L2079.57 918.515L2476.28 343.32C2483.13 333.394 2480.63 319.796 2470.71 312.95V312.95C2441.92 293.095 2402.49 300.337 2382.63 329.124L2009.47 870.168Z" fill="#EFDDDD"/>
<path d="M1953.07 1054.38C1974.19 1036.08 2006.63 1016.54 2061 1006.98C2046.41 964.146 2058.23 930.465 2069.38 904.755C2070.55 902.057 2071.71 899.454 2072.83 896.938C2074.39 893.423 2075.88 890.08 2077.22 886.889C2079.51 881.421 2081.31 876.457 2082.24 871.962C2083.16 867.469 2083.19 863.48 2081.96 859.944C2080.72 856.416 2078.22 853.282 2073.95 850.53C2069.7 847.782 2065.69 846.793 2061.77 847.146C2057.83 847.499 2053.93 849.205 2049.91 851.934C2043.09 856.569 2036.03 864.068 2027.98 872.626C2026.52 874.173 2025.03 875.755 2023.51 877.361C2003.73 898.172 1977.93 922.777 1936.77 926.679C1955.3 972.685 1947.2 1014.65 1935.67 1045.13C1929.89 1060.39 1923.24 1072.79 1918.65 1081.36L1918.61 1081.43C1916.31 1085.73 1914.54 1089.03 1913.64 1091.26C1913.19 1092.39 1913 1093.16 1913.02 1093.62C1913.04 1093.83 1913.09 1093.91 1913.12 1093.94C1913.15 1093.96 1913.21 1094 1913.36 1094.02C1915.52 1092.94 1917.75 1091.11 1920.21 1088.66C1922.72 1086.17 1925.43 1083.07 1928.54 1079.52L1928.64 1079.41C1934.83 1072.33 1942.54 1063.51 1953.07 1054.38Z" fill="#EFDDDD" stroke="#EFDDDD"/>
</svg>
