<svg width="692" height="410" viewBox="0 0 692 410" fill="none" xmlns="http://www.w3.org/2000/svg">
<path d="M8.72205 41.9726C6.50512 40.3262 3.37326 40.7887 1.72684 43.0056C0.0804189 45.2225 0.542905 48.3544 2.75983 50.0008L8.72205 41.9726ZM168.502 100.322L168.452 105.322L168.502 100.322ZM340.961 43.8328C339.772 41.3407 336.787 40.2848 334.295 41.4744C331.803 42.6639 330.747 45.6484 331.937 48.1405L340.961 43.8328ZM324.598 48.2931C322.354 49.9017 321.838 53.0253 323.447 55.2698C325.055 57.5143 328.179 58.0298 330.423 56.4212L324.598 48.2931ZM538.445 125.503C535.847 124.567 532.982 125.915 532.047 128.513C531.111 131.112 532.459 133.976 535.058 134.912L538.445 125.503ZM542.72 128.176C542.962 125.425 540.929 122.999 538.178 122.757C535.427 122.514 533.001 124.547 532.758 127.298L542.72 128.176ZM380.205 112.623C380.451 109.872 378.421 107.443 375.67 107.197C372.92 106.952 370.491 108.982 370.245 111.732L380.205 112.623ZM370.254 111.892C369.96 114.637 371.947 117.102 374.693 117.396C377.439 117.69 379.903 115.703 380.197 112.957L370.254 111.892ZM462.085 100.875C463.89 102.964 467.048 103.194 469.137 101.388C471.226 99.5828 471.456 96.4253 469.65 94.3361L462.085 100.875ZM468.784 93.3953C466.895 91.3807 463.731 91.2786 461.716 93.1673C459.702 95.056 459.6 98.2201 461.488 100.235L468.784 93.3953ZM430.241 119.466C429.031 116.984 426.038 115.952 423.556 117.161C421.073 118.37 420.041 121.363 421.25 123.845L430.241 119.466ZM510.861 164.017C508.528 165.493 507.832 168.581 509.309 170.915C510.785 173.249 513.874 173.944 516.207 172.468L510.861 164.017ZM658.541 265.648C656.412 267.405 656.11 270.557 657.867 272.687C659.625 274.816 662.776 275.118 664.906 273.36L658.541 265.648ZM665.862 272.431C667.888 270.555 668.009 267.391 666.133 265.365C664.256 263.34 661.093 263.219 659.067 265.095L665.862 272.431ZM553.673 203.068C555.896 201.43 556.371 198.3 554.733 196.077C553.095 193.854 549.965 193.379 547.742 195.017L553.673 203.068ZM543.303 198.652C541.168 200.403 540.856 203.553 542.607 205.689C544.358 207.824 547.509 208.136 549.644 206.385L543.303 198.652ZM585.993 222.238C583.241 222.465 581.194 224.88 581.421 227.632C581.648 230.384 584.063 232.431 586.815 232.204L585.993 222.238ZM570.569 273.269C568.083 272.067 565.093 273.107 563.891 275.593C562.688 278.079 563.728 281.069 566.214 282.271L570.569 273.269ZM482.651 328.144C483.146 325.427 481.345 322.824 478.628 322.329C475.911 321.834 473.308 323.635 472.813 326.352L482.651 328.144ZM9.70184 43.051C8.76252 40.4542 5.89596 39.1106 3.29921 40.0499C0.702451 40.9893 -0.641163 43.8558 0.29816 46.4526L9.70184 43.051ZM231.362 209.411C233.802 208.119 234.733 205.093 233.441 202.653C232.148 200.212 229.122 199.281 226.682 200.574L231.362 209.411ZM221.866 220.493C223.334 218.154 222.627 215.068 220.288 213.6C217.949 212.132 214.863 212.839 213.395 215.178L221.866 220.493ZM487.315 320.039C489.199 318.021 489.09 314.857 487.072 312.973C485.053 311.088 481.889 311.197 480.005 313.216L487.315 320.039ZM203.42 239.743C202.697 242.409 204.272 245.155 206.937 245.877C209.602 246.6 212.349 245.025 213.071 242.36L203.42 239.743ZM332.074 274.986C330.737 277.402 331.611 280.445 334.027 281.782C336.443 283.12 339.486 282.245 340.823 279.829L332.074 274.986ZM341.811 277.855C343.149 275.439 342.276 272.396 339.861 271.058C337.445 269.72 334.402 270.593 333.064 273.008L341.811 277.855ZM274.179 237.662C276.508 236.179 277.194 233.088 275.71 230.759C274.227 228.43 271.136 227.744 268.807 229.227L274.179 237.662ZM265.696 231.26C263.447 232.862 262.922 235.984 264.524 238.233C266.125 240.482 269.247 241.007 271.497 239.406L265.696 231.26ZM282.303 254.628C279.542 254.628 277.303 256.866 277.303 259.628C277.303 262.389 279.542 264.628 282.303 264.628L282.303 254.628ZM471.783 334.412C471.225 337.116 472.966 339.761 475.671 340.318C478.375 340.876 481.02 339.135 481.577 336.431L471.783 334.412ZM573.376 349.686C571.2 351.386 570.815 354.528 572.515 356.704C574.215 358.88 577.358 359.266 579.533 357.566L573.376 349.686ZM581.655 354.51C583.89 352.888 584.386 349.761 582.764 347.526C581.141 345.292 578.015 344.796 575.78 346.418L581.655 354.51ZM542.965 342.561C542.965 339.799 540.727 337.561 537.965 337.561C535.204 337.561 532.965 339.799 532.965 342.561L542.965 342.561ZM5.74094 45.9867C2.75983 50.0008 2.76128 50.0019 2.76299 50.0031C2.76393 50.0038 2.76593 50.0053 2.76781 50.0067C2.77157 50.0095 2.77642 50.0131 2.78238 50.0175C2.79428 50.0263 2.81057 50.0383 2.83122 50.0535C2.87251 50.0838 2.93123 50.1269 3.00718 50.1822C3.15907 50.2928 3.3799 50.4524 3.66802 50.6579C4.24425 51.0687 5.08983 51.663 6.19179 52.4146C8.39548 53.9176 11.6259 56.0509 15.7792 58.6064C24.0831 63.7157 36.0919 70.5223 50.9739 77.3552C80.6995 91.0033 122.102 104.855 168.452 105.322L168.552 95.3227C124.071 94.8743 84.0938 81.5581 55.1465 68.2673C40.692 61.6307 29.0411 55.025 21.0196 50.0894C17.0101 47.6225 13.9113 45.5752 11.8265 44.1532C10.7842 43.4423 9.99564 42.8879 9.47384 42.5158C9.21296 42.3298 9.01878 42.1894 8.89293 42.0978C8.83001 42.0519 8.78417 42.0183 8.75562 41.9973C8.74135 41.9868 8.7314 41.9795 8.72579 41.9754C8.72299 41.9733 8.72127 41.972 8.72065 41.9716C8.72034 41.9713 8.72069 41.9716 8.72053 41.9715C8.72115 41.9719 8.72205 41.9726 5.74094 45.9867ZM168.452 105.322C214.829 105.79 257.661 92.1725 288.729 78.4246C304.287 71.54 316.967 64.591 325.755 59.2843C330.147 56.6321 333.589 54.3771 335.949 52.7308C337.12 51.9135 338.068 51.2164 338.746 50.6771C339.069 50.4202 339.42 50.1295 339.722 49.8407C339.85 49.7181 340.122 49.4528 340.39 49.1007C340.509 48.9448 340.797 48.5545 341.037 47.998C341.168 47.6939 341.946 45.8962 340.961 43.8328L331.937 48.1405C330.959 46.0919 331.735 44.3155 331.854 44.039C332.082 43.5103 332.349 43.1541 332.437 43.0386C332.556 42.8819 332.656 42.7725 332.703 42.7225C332.756 42.6661 332.794 42.6293 332.808 42.6158C332.837 42.5879 332.767 42.6557 332.524 42.8483C332.072 43.2079 331.31 43.7735 330.227 44.5298C328.075 46.0307 324.822 48.1662 320.586 50.7239C312.119 55.8367 299.814 62.5843 284.683 69.2799C254.372 82.6926 213.005 95.7708 168.552 95.3227L168.452 105.322ZM330.423 56.4212C379.447 21.2868 416.583 9.24477 444.434 10.0364C472.014 10.8203 491.286 24.2187 504.768 42.0132C518.359 59.9504 525.956 82.2625 529.728 100.126C531.607 109.029 532.506 116.683 532.746 121.947C532.868 124.616 532.812 126.496 532.683 127.558C532.608 128.17 532.552 128.131 532.699 127.795C532.755 127.666 533.077 126.914 533.929 126.238C535.076 125.328 536.777 124.902 538.445 125.503L535.058 134.912C536.928 135.585 538.821 135.122 540.146 134.071C541.176 133.254 541.664 132.256 541.87 131.78C542.318 130.749 542.506 129.615 542.61 128.764C542.836 126.901 542.868 124.39 542.736 121.491C542.468 115.618 541.489 107.422 539.512 98.0604C535.571 79.3941 527.544 55.5143 512.739 35.9743C497.826 16.2917 475.933 0.927595 444.718 0.0404066C413.775 -0.839069 374.486 12.5392 324.598 48.2931L330.423 56.4212ZM532.758 127.298C531.081 146.333 520.743 159.246 505.935 167.041C490.93 174.941 471.274 177.564 451.711 175.286C432.157 173.01 413.273 165.902 399.822 155.007C386.47 144.192 378.664 129.867 380.205 112.623L370.245 111.732C368.343 133.018 378.208 150.369 393.528 162.778C408.75 175.108 429.541 182.773 450.554 185.219C471.557 187.665 493.36 184.963 510.594 175.89C528.026 166.713 540.707 151.006 542.72 128.176L532.758 127.298ZM380.197 112.957C381.73 98.6591 394.663 87.6985 411.99 84.3537C429.117 81.0475 448.927 85.6516 462.085 100.875L469.65 94.3361C453.758 75.9486 430.099 70.6733 410.095 74.535C390.29 78.358 372.427 91.6123 370.254 111.892L380.197 112.957ZM461.488 100.235C465.896 104.936 467.012 110.261 466.106 115.288C465.171 120.471 462.042 125.442 457.787 128.809C453.539 132.17 448.607 133.616 444.072 132.647C439.651 131.703 434.507 128.225 430.241 119.466L421.25 123.845C426.468 134.558 433.768 140.673 441.984 142.427C450.086 144.157 457.985 141.404 463.992 136.651C469.992 131.903 474.543 124.844 475.947 117.063C477.378 109.124 475.49 100.549 468.784 93.3953L461.488 100.235ZM516.207 172.468C571.633 137.407 625.394 146.972 655.937 172.011C671.264 184.576 680.591 200.867 681.852 217.327C683.1 233.609 676.52 250.811 658.541 265.648L664.906 273.36C685.086 256.708 693.348 236.469 691.823 216.563C690.312 196.837 679.251 178.193 662.277 164.277C628.219 136.357 569.727 126.78 510.861 164.017L516.207 172.468ZM659.067 265.095C646.655 276.592 629.66 281.638 611.805 281.664C593.947 281.69 575.668 276.676 561.264 268.593C546.711 260.428 536.97 249.651 534.594 238.661C532.34 228.237 536.386 215.802 553.673 203.068L547.742 195.017C528.496 209.194 521.456 225.219 524.82 240.775C528.061 255.765 540.641 268.488 556.371 277.314C572.249 286.224 592.215 291.692 611.82 291.664C631.428 291.636 651.115 286.092 665.862 272.431L659.067 265.095ZM549.644 206.385C574.254 186.205 596.242 191.691 604.99 200.447C609.477 204.937 610.148 209.563 608.374 212.883C606.425 216.528 600.354 221.054 585.993 222.238L586.815 232.204C602.384 230.92 612.833 225.755 617.193 217.596C621.728 209.111 618.496 199.816 612.065 193.379C598.977 180.281 571.071 175.883 543.303 198.652L549.644 206.385ZM566.214 282.271C591.949 294.721 609.031 306.989 619.514 318.457C629.959 329.882 633.646 340.26 633.27 349.209C632.893 358.193 628.38 366.681 620.539 374.214C612.684 381.759 601.713 388.103 589.148 392.622C563.886 401.706 533.532 402.955 511.544 393.251C500.662 388.449 491.952 381.033 486.685 370.64C481.411 360.233 479.336 346.338 482.651 328.144L472.813 326.352C469.204 346.16 471.284 362.371 477.765 375.161C484.255 387.965 494.903 396.838 507.507 402.4C532.49 413.426 565.613 411.712 592.532 402.032C606.059 397.167 618.354 390.179 627.466 381.426C636.592 372.66 642.747 361.886 643.262 349.629C643.778 337.337 638.583 324.495 626.895 311.709C615.245 298.966 596.944 286.029 570.569 273.269L566.214 282.271ZM0.29816 46.4526C26.2249 118.127 66.5941 167.763 109.152 195.113C151.635 222.413 196.794 227.716 231.362 209.411L226.682 200.574C196.254 216.686 155.026 212.706 114.559 186.7C74.1667 160.743 35.0228 113.051 9.70184 43.051L0.29816 46.4526ZM213.395 215.178C196.722 241.748 199.633 269.093 214.689 292.775C229.581 316.199 256.31 336.109 287.773 349.272C350.501 375.516 435.064 376.013 487.315 320.039L480.005 313.216C431.734 364.926 352.286 365.423 291.632 340.047C261.404 327.401 236.598 308.597 223.128 287.41C209.822 266.481 207.543 243.319 221.866 220.493L213.395 215.178ZM213.071 242.36C219.243 219.595 232.344 205.991 247.636 199.205C263.083 192.35 281.195 192.273 297.396 197.489C313.623 202.714 327.406 213.071 334.548 226.432C341.568 239.565 342.491 256.167 332.074 274.986L340.823 279.829C352.758 258.267 352.104 238.062 343.368 221.718C334.753 205.602 318.601 193.811 300.461 187.971C282.296 182.122 261.611 182.063 243.58 190.065C225.396 198.134 210.338 214.223 203.42 239.743L213.071 242.36ZM333.064 273.008C326.6 284.676 317.23 289.67 307.429 290.526C297.381 291.403 286.536 287.933 277.774 281.894C268.948 275.811 262.993 267.667 261.707 259.911C260.511 252.704 263.156 244.682 274.179 237.662L268.807 229.227C255.031 238.002 249.876 249.701 251.842 261.548C253.716 272.846 261.883 283.088 272.1 290.128C282.381 297.214 295.499 301.605 308.299 300.488C321.344 299.349 333.703 292.491 341.811 277.855L333.064 273.008ZM271.497 239.406C276.397 235.916 280.442 235.724 283.419 236.667C286.588 237.67 289.255 240.187 290.748 243.247C292.274 246.373 292.221 249.257 291.255 251.057C290.444 252.567 288.264 254.628 282.303 254.628L282.303 264.628C290.701 264.628 296.994 261.51 300.066 255.787C302.982 250.354 302.219 243.952 299.736 238.862C297.22 233.707 292.581 229.079 286.437 227.133C280.102 225.127 272.827 226.182 265.696 231.26L271.497 239.406ZM481.577 336.431C484.875 320.433 494.119 312.098 505.617 308.529C517.481 304.845 532.136 306.164 545.574 310.717C559.071 315.29 570.367 322.791 575.863 330.406C578.574 334.162 579.607 337.555 579.349 340.442C579.103 343.214 577.59 346.393 573.376 349.686L579.533 357.566C585.385 352.994 588.762 347.477 589.31 341.33C589.847 335.299 587.579 329.551 583.972 324.554C576.832 314.662 563.425 306.206 548.783 301.246C534.083 296.265 517.164 294.473 502.652 298.978C487.773 303.597 475.836 314.749 471.783 334.412L481.577 336.431ZM575.78 346.418C567.53 352.408 558.641 354.659 552.33 353.702C549.243 353.233 546.985 352.045 545.506 350.409C544.06 348.811 542.965 346.354 542.965 342.561L532.965 342.561C532.965 348.399 534.711 353.383 538.089 357.117C541.434 360.816 545.983 362.853 550.83 363.589C560.388 365.039 571.876 361.61 581.655 354.51L575.78 346.418Z" fill="#62516E"/>
</svg>
