<svg width="301" height="178" viewBox="0 0 301 178" fill="none" xmlns="http://www.w3.org/2000/svg">
<path d="M10 147.5L16.7642 143.777C52.1357 124.309 95.8881 126.827 129.069 149.83V149.83C146.473 161.896 167.347 168.5 188.524 168.5V168.5C225.567 168.5 261.944 156.653 292 135V135" stroke="#634C73" stroke-width="18" stroke-linecap="round"/>
<path d="M10 35.5L16.7642 31.777C52.1357 12.3091 95.8881 14.8273 129.069 37.8303V37.8303C146.473 49.8955 167.347 56.5 188.524 56.5V56.5C225.567 56.5 261.944 44.6533 292 23V23" stroke="#634C73" stroke-width="18" stroke-linecap="round"/>
<path d="M10 91.5L16.7642 87.777C52.1357 68.3091 95.8881 70.8273 129.069 93.8303V93.8303C146.473 105.896 167.347 112.5 188.524 112.5V112.5C225.567 112.5 261.944 100.653 292 79V79" stroke="#634C73" stroke-width="18" stroke-linecap="round"/>
</svg>
